Dinish-ExpandedMedium.ufo
<glyph name="exclam" format="2">
  <advance width="247"/>
  <unicode hex="0021"/>
  <outline>
    <contour>
      <point x="86" y="219.333" type="line"/>
      <point x="163" y="219.333" type="line"/>
      <point x="182.667" y="707" type="line"/>
      <point x="65.667" y="707" type="line"/>
    </contour>
    <contour>
      <point x="67.333" y="0" type="line"/>
      <point x="181" y="0" type="line"/>
      <point x="181" y="115" type="line"/>
      <point x="67.333" y="115" type="line"/>
    </contour>
  </outline>
</glyph>
<glyph name="numbersign" format="2">
  <advance width="604"/>
  <unicode hex="0023"/>
  <outline>
    <contour>
      <point x="106.667" y="0" type="line"/>
      <point x="191.333" y="0" type="line"/>
      <point x="219.667" y="217" type="line"/>
      <point x="345.333" y="217" type="line"/>
      <point x="316.667" y="0" type="line"/>
      <point x="402.333" y="0" type="line"/>
      <point x="431" y="217" type="line"/>
      <point x="556.333" y="217" type="line"/>
      <point x="556.333" y="294.333" type="line"/>
      <point x="440.333" y="294.333" type="line"/>
      <point x="457" y="427.333" type="line"/>
      <point x="582.667" y="427.333" type="line"/>
      <point x="582.667" y="504" type="line"/>
      <point x="467.333" y="504" type="line"/>
      <point x="493" y="707" type="line"/>
      <point x="409.333" y="707" type="line"/>
      <point x="382.667" y="504" type="line"/>
      <point x="257" y="504" type="line"/>
      <point x="283" y="707" type="line"/>
      <point x="199" y="707" type="line"/>
      <point x="172.667" y="504" type="line"/>
      <point x="47.667" y="504" type="line"/>
      <point x="47.667" y="427.333" type="line"/>
      <point x="162.667" y="427.333" type="line"/>
      <point x="144.667" y="294.333" type="line"/>
      <point x="22" y="294.333" type="line"/>
      <point x="22" y="217" type="line"/>
      <point x="134.667" y="217" type="line"/>
    </contour>
    <contour>
      <point x="230" y="294.333" type="line"/>
      <point x="247.667" y="427.333" type="line"/>
      <point x="373.333" y="427.333" type="line"/>
      <point x="355.333" y="294.333" type="line"/>
    </contour>
  </outline>
</glyph>
<glyph name="dollar" format="2">
  <advance width="536"/>
  <unicode hex="0024"/>
  <outline>
    <contour>
      <point x="226" y="-60.333" type="line"/>
      <point x="302.333" y="-60.333" type="line"/>
      <point x="302.333" y="31" type="line"/>
      <point x="427.294" y="42.687"/>
      <point x="497.667" y="110.897"/>
      <point x="497.667" y="220.333" type="curve" smooth="yes"/>
      <point x="497.667" y="321.215"/>
      <point x="441.291" y="379.68"/>
      <point x="326.667" y="397.667" type="curve" smooth="yes"/>
      <point x="261.805" y="407.699" type="line" smooth="yes"/>
      <point x="178.478" y="420.964"/>
      <point x="145" y="447.839"/>
      <point x="145" y="501.333" type="curve" smooth="yes"/>
      <point x="145" y="560.666"/>
      <point x="186.74" y="592.548"/>
      <point x="264.409" y="592.548" type="curve" smooth="yes"/>
      <point x="343.878" y="592.548"/>
      <point x="384.449" y="561.002"/>
      <point x="390.333" y="494.667" type="curve"/>
      <point x="487" y="494.667" type="line"/>
      <point x="479.968" y="603.166"/>
      <point x="415.224" y="667.329"/>
      <point x="302.333" y="677.667" type="curve"/>
      <point x="302.333" y="758.667" type="line"/>
      <point x="226" y="758.667" type="line"/>
      <point x="226" y="676.667" type="line"/>
      <point x="111.659" y="664.699"/>
      <point x="45" y="597.184"/>
      <point x="45" y="493.333" type="curve" smooth="yes"/>
      <point x="45" y="396.024"/>
      <point x="101.105" y="340.908"/>
      <point x="220.667" y="320.667" type="curve" smooth="yes"/>
      <point x="299" y="307.333" type="line" smooth="yes"/>
      <point x="369.919" y="295.029"/>
      <point x="397.333" y="268.816"/>
      <point x="397.333" y="213.333" type="curve" smooth="yes"/>
      <point x="397.333" y="149.868"/>
      <point x="353.022" y="115.918"/>
      <point x="270.158" y="115.918" type="curve" smooth="yes"/>
      <point x="178.704" y="115.918"/>
      <point x="134.428" y="149.092"/>
      <point x="126.667" y="223.333" type="curve"/>
      <point x="31" y="223.333" type="line"/>
      <point x="37.217" y="107.008"/>
      <point x="104.543" y="40.235"/>
      <point x="226" y="30" type="curve"/>
    </contour>
  </outline>
</glyph>
<glyph name="ampersand" format="2">
  <advance width="679"/>
  <unicode hex="0026"/>
  <outline>
    <contour>
      <point x="463" y="215.333" type="line"/>
      <point x="330" y="373" type="line"/>
      <point x="432.299" y="437.236"/>
      <point x="467.333" y="484.17"/>
      <point x="467.333" y="557" type="curve" smooth="yes"/>
      <point x="467.333" y="653.265"/>
      <point x="395.787" y="719"/>
      <point x="291" y="719" type="curve" smooth="yes"/>
      <point x="187.669" y="719"/>
      <point x="114.667" y="652.187"/>
      <point x="114.667" y="557.667" type="curve" smooth="yes"/>
      <point x="114.667" y="507.171"/>
      <point x="135.599" y="463.235"/>
      <point x="193.667" y="391.667" type="curve"/>
      <point x="95.677" y="329.149"/>
      <point x="51" y="263.302"/>
      <point x="51" y="181.333" type="curve" smooth="yes"/>
      <point x="51" y="64.485"/>
      <point x="133.551" y="-12"/>
      <point x="259.667" y="-12" type="curve" smooth="yes"/>
      <point x="336.056" y="-12"/>
      <point x="396.696" y="15.292"/>
      <point x="456" y="76.333" type="curve"/>
      <point x="469.667" y="59" type="line"/>
      <point x="508.356" y="13.494"/>
      <point x="537.263" y="0"/>
      <point x="587" y="0" type="curve" smooth="yes"/>
      <point x="628.667" y="0" type="line"/>
      <point x="628.667" y="90" type="line"/>
      <point x="607" y="90" type="line" smooth="yes"/>
      <point x="579.018" y="90"/>
      <point x="561.351" y="98.573"/>
      <point x="539.667" y="124" type="curve" smooth="yes"/>
      <point x="519.667" y="147.333" type="line"/>
      <point x="620" y="263" type="line"/>
      <point x="555" y="321" type="line"/>
    </contour>
    <contour>
      <point x="275" y="438" type="curve"/>
      <point x="240.635" y="478.98"/>
      <point x="211.333" y="522.136"/>
      <point x="211.333" y="560" type="curve" smooth="yes"/>
      <point x="211.333" y="607.052"/>
      <point x="242.843" y="637.667"/>
      <point x="291.333" y="637.667" type="curve" smooth="yes"/>
      <point x="340.055" y="637.667"/>
      <point x="372" y="606.378"/>
      <point x="372" y="558.667" type="curve" smooth="yes"/>
      <point x="372" y="511.034"/>
      <point x="326.905" y="471.497"/>
    </contour>
    <contour>
      <point x="400.333" y="143.333" type="line"/>
      <point x="354.115" y="96.239"/>
      <point x="315.062" y="77"/>
      <point x="265.667" y="77" type="curve" smooth="yes"/>
      <point x="194.113" y="77"/>
      <point x="148.667" y="118.936"/>
      <point x="148.667" y="185" type="curve" smooth="yes"/>
      <point x="148.667" y="236.043"/>
      <point x="178.807" y="278.018"/>
      <point x="249" y="324.667" type="curve"/>
    </contour>
  </outline>
</glyph>
<glyph name="parenleft" format="2">
  <advance width="323"/>
  <unicode hex="0028"/>
  <outline>
    <contour>
      <point x="272.667" y="-86" type="line"/>
      <point x="194.473" y="34.576"/>
      <point x="151" y="185.147"/>
      <point x="151" y="336" type="curve" smooth="yes"/>
      <point x="151" y="485.105"/>
      <point x="194.849" y="636.556"/>
      <point x="273" y="758" type="curve"/>
      <point x="193.667" y="758" type="line"/>
      <point x="99.841" y="637.052"/>
      <point x="51" y="492.696"/>
      <point x="51" y="336.333" type="curve" smooth="yes"/>
      <point x="51" y="182.243"/>
      <point x="99.433" y="37.857"/>
      <point x="192.667" y="-86" type="curve"/>
    </contour>
  </outline>
</glyph>
<glyph name="parenright" format="2">
  <advance width="323"/>
  <unicode hex="0029"/>
  <outline>
    <contour>
      <point x="131.667" y="-86" type="line"/>
      <point x="224.971" y="37.361"/>
      <point x="273" y="180.875"/>
      <point x="273" y="336.333" type="curve" smooth="yes"/>
      <point x="273" y="492.589"/>
      <point x="224.296" y="636.877"/>
      <point x="130.667" y="758" type="curve"/>
      <point x="51" y="758" type="line"/>
      <point x="129.475" y="637.398"/>
      <point x="173" y="487.026"/>
      <point x="173" y="336" type="curve" smooth="yes"/>
      <point x="173" y="184.57"/>
      <point x="129.631" y="34.679"/>
      <point x="51" y="-86" type="curve"/>
    </contour>
  </outline>
</glyph>
<glyph name="asterisk" format="2">
  <advance width="421"/>
  <unicode hex="002A"/>
  <outline>
    <contour>
      <point x="77" y="462.667" type="line"/>
      <point x="181" y="515.667" type="line"/>
      <point x="181" y="410.667" type="line"/>
      <point x="241.333" y="410.667" type="line"/>
      <point x="241.333" y="515.333" type="line"/>
      <point x="345" y="462.667" type="line"/>
      <point x="371.333" y="511.667" type="line"/>
      <point x="270.333" y="561.333" type="line"/>
      <point x="370.333" y="609.667" type="line"/>
      <point x="345.333" y="658.667" type="line"/>
      <point x="241.333" y="605.667" type="line"/>
      <point x="241.333" y="707" type="line"/>
      <point x="181" y="707" type="line"/>
      <point x="181" y="606.667" type="line"/>
      <point x="77" y="658.667" type="line"/>
      <point x="51" y="609.667" type="line"/>
      <point x="151.667" y="560.667" type="line"/>
      <point x="51" y="511.667" type="line"/>
    </contour>
  </outline>
</glyph>
<glyph name="comma" format="2">
  <advance width="186"/>
  <unicode hex="002C"/>
  <outline>
    <contour>
      <point x="45.667" y="-154" type="line"/>
      <point x="141" y="-71" type="line"/>
      <point x="141" y="120" type="line"/>
      <point x="45.667" y="120" type="line"/>
    </contour>
  </outline>
</glyph>
<glyph name="zero" format="2">
  <advance width="567"/>
  <unicode hex="0030"/>
  <outline>
    <contour>
      <point x="286" y="-10.333" type="curve" smooth="yes"/>
      <point x="434.983" y="-10.333"/>
      <point x="511.667" y="77.477"/>
      <point x="511.667" y="248" type="curve" smooth="yes"/>
      <point x="511.667" y="465" type="line" smooth="yes"/>
      <point x="511.667" y="631.829"/>
      <point x="435.217" y="717.333"/>
      <point x="286" y="717.333" type="curve" smooth="yes"/>
      <point x="137.118" y="717.333"/>
      <point x="60" y="631.242"/>
      <point x="60" y="465" type="curve" smooth="yes"/>
      <point x="60" y="248" type="line" smooth="yes"/>
      <point x="60" y="77.519"/>
      <point x="136.818" y="-10.333"/>
    </contour>
    <contour>
      <point x="286" y="83.667" type="curve" smooth="yes"/>
      <point x="203.175" y="83.667"/>
      <point x="167.667" y="135.467"/>
      <point x="167.667" y="256.333" type="curve" smooth="yes"/>
      <point x="167.667" y="450.333" type="line" smooth="yes"/>
      <point x="167.667" y="571.081"/>
      <point x="203.096" y="622.667"/>
      <point x="286" y="622.667" type="curve" smooth="yes"/>
      <point x="369.136" y="622.667"/>
      <point x="405" y="570.748"/>
      <point x="405" y="450.333" type="curve" smooth="yes"/>
      <point x="405" y="256.333" type="line" smooth="yes"/>
      <point x="405" y="137.633"/>
      <point x="367.793" y="83.667"/>
    </contour>
  </outline>
</glyph>
<glyph name="one" format="2">
  <advance width="376"/>
  <unicode hex="0031"/>
  <outline>
    <contour>
      <point x="193.667" y="0" type="line"/>
      <point x="300.667" y="0" type="line"/>
      <point x="300.667" y="707" type="line"/>
      <point x="193.667" y="707" type="line"/>
      <point x="43" y="612.333" type="line"/>
      <point x="43" y="500.333" type="line"/>
      <point x="193.667" y="592" type="line"/>
    </contour>
  </outline>
</glyph>
<glyph name="three" format="2">
  <advance width="564"/>
  <unicode hex="0033"/>
  <outline>
    <contour>
      <point x="55" y="185" type="line"/>
      <point x="55" y="174.333" type="line" smooth="yes"/>
      <point x="55" y="57.922"/>
      <point x="137.91" y="-10.333"/>
      <point x="279.333" y="-10.333" type="curve" smooth="yes"/>
      <point x="420.918" y="-10.333"/>
      <point x="508.667" y="66.703"/>
      <point x="508.667" y="191" type="curve" smooth="yes"/>
      <point x="508.667" y="209" type="line" smooth="yes"/>
      <point x="508.667" y="291.814"/>
      <point x="468.201" y="350.964"/>
      <point x="395.333" y="374.667" type="curve"/>
      <point x="459.85" y="401.453"/>
      <point x="495.333" y="453.257"/>
      <point x="495.333" y="520.667" type="curve" smooth="yes"/>
      <point x="495.333" y="536" type="line" smooth="yes"/>
      <point x="495.333" y="649.697"/>
      <point x="414.874" y="717.333"/>
      <point x="279.667" y="717.333" type="curve" smooth="yes"/>
      <point x="142.057" y="717.333"/>
      <point x="63" y="648.862"/>
      <point x="63" y="529.667" type="curve" smooth="yes"/>
      <point x="63" y="518.667" type="line"/>
      <point x="162.667" y="518.667" type="line"/>
      <point x="162.667" y="528.333" type="line" smooth="yes"/>
      <point x="162.667" y="591.468"/>
      <point x="202.248" y="625.333"/>
      <point x="276" y="625.333" type="curve" smooth="yes"/>
      <point x="349.57" y="625.333"/>
      <point x="390" y="590.344"/>
      <point x="390" y="526.667" type="curve" smooth="yes"/>
      <point x="390" y="513.333" type="line" smooth="yes"/>
      <point x="390" y="448.028"/>
      <point x="346.73" y="411.667"/>
      <point x="269" y="411.667" type="curve" smooth="yes"/>
      <point x="228.667" y="411.667" type="line"/>
      <point x="228.667" y="319" type="line"/>
      <point x="270" y="319" type="line" smooth="yes"/>
      <point x="357.703" y="319"/>
      <point x="402.667" y="281.917"/>
      <point x="402.667" y="209.667" type="curve" smooth="yes"/>
      <point x="402.667" y="191.333" type="line" smooth="yes"/>
      <point x="402.667" y="121.173"/>
      <point x="358.242" y="81.333"/>
      <point x="280" y="81.333" type="curve" smooth="yes"/>
      <point x="199.824" y="81.333"/>
      <point x="156.667" y="114.46"/>
      <point x="156.667" y="176" type="curve" smooth="yes"/>
      <point x="156.667" y="185" type="line"/>
    </contour>
  </outline>
</glyph>
<glyph name="four" format="2">
  <advance width="581"/>
  <unicode hex="0034"/>
  <outline>
    <contour>
      <point x="42.667" y="125" type="line"/>
      <point x="357.333" y="125" type="line"/>
      <point x="357.333" y="0" type="line"/>
      <point x="465" y="0" type="line"/>
      <point x="465" y="125" type="line"/>
      <point x="543" y="125" type="line"/>
      <point x="543" y="219.333" type="line"/>
      <point x="465" y="219.333" type="line"/>
      <point x="465" y="396.667" type="line"/>
      <point x="357.333" y="396.667" type="line"/>
      <point x="357.333" y="219.333" type="line"/>
      <point x="151.333" y="219.333" type="line"/>
      <point x="387.667" y="707" type="line"/>
      <point x="278.667" y="707" type="line"/>
      <point x="42.667" y="219.333" type="line"/>
    </contour>
  </outline>
</glyph>
<glyph name="five" format="2">
  <advance width="552"/>
  <unicode hex="0035"/>
  <outline>
    <contour>
      <point x="60" y="177.333" type="line"/>
      <point x="60" y="169.333" type="line" smooth="yes"/>
      <point x="60" y="59.513"/>
      <point x="142.916" y="-10.333"/>
      <point x="273.333" y="-10.333" type="curve" smooth="yes"/>
      <point x="414.446" y="-10.333"/>
      <point x="496.667" y="69.794"/>
      <point x="496.667" y="207.333" type="curve" smooth="yes"/>
      <point x="496.667" y="249.667" type="line" smooth="yes"/>
      <point x="496.667" y="386.374"/>
      <point x="423.607" y="465.667"/>
      <point x="297.667" y="465.667" type="curve" smooth="yes"/>
      <point x="245.876" y="465.667"/>
      <point x="198.794" y="448.905"/>
      <point x="166" y="419" type="curve"/>
      <point x="166" y="613.333" type="line"/>
      <point x="477" y="613.333" type="line"/>
      <point x="477" y="707" type="line"/>
      <point x="72.333" y="707" type="line"/>
      <point x="72.333" y="311.333" type="line"/>
      <point x="171.333" y="311.333" type="line"/>
      <point x="189.687" y="352.472"/>
      <point x="227.103" y="375"/>
      <point x="277" y="375" type="curve" smooth="yes"/>
      <point x="352.17" y="375"/>
      <point x="391.333" y="330.601"/>
      <point x="391.333" y="245.333" type="curve" smooth="yes"/>
      <point x="391.333" y="210.667" type="line" smooth="yes"/>
      <point x="391.333" y="125.677"/>
      <point x="351.832" y="82"/>
      <point x="275" y="82" type="curve" smooth="yes"/>
      <point x="206.486" y="82"/>
      <point x="162.667" y="117.335"/>
      <point x="162.667" y="172.667" type="curve" smooth="yes"/>
      <point x="162.667" y="177.333" type="line"/>
    </contour>
  </outline>
</glyph>
<glyph name="six" format="2">
  <advance width="571"/>
  <unicode hex="0036"/>
  <outline>
    <contour>
      <point x="294.333" y="707" type="line"/>
      <point x="118" y="409.333" type="line"/>
      <point x="72.603" y="336.946"/>
      <point x="54.333" y="282.427"/>
      <point x="54.333" y="220.667" type="curve" smooth="yes"/>
      <point x="54.333" y="199.333" type="line" smooth="yes"/>
      <point x="54.333" y="69.898"/>
      <point x="143.721" y="-10.333"/>
      <point x="288" y="-10.333" type="curve" smooth="yes"/>
      <point x="431.019" y="-10.333"/>
      <point x="521.333" y="72.383"/>
      <point x="521.333" y="203.333" type="curve" smooth="yes"/>
      <point x="521.333" y="226.333" type="line" smooth="yes"/>
      <point x="521.333" y="345.812"/>
      <point x="437.753" y="429"/>
      <point x="317.667" y="429" type="curve" smooth="yes"/>
      <point x="284.284" y="429"/>
      <point x="253.357" y="422.823"/>
      <point x="234" y="412.333" type="curve"/>
      <point x="410" y="707" type="line"/>
    </contour>
    <contour>
      <point x="161.667" y="199" type="curve" smooth="yes"/>
      <point x="161.667" y="220.667" type="line" smooth="yes"/>
      <point x="161.667" y="293.759"/>
      <point x="208.376" y="337"/>
      <point x="287.333" y="337" type="curve" smooth="yes"/>
      <point x="366.388" y="337"/>
      <point x="415.333" y="292.624"/>
      <point x="415.333" y="221" type="curve" smooth="yes"/>
      <point x="415.333" y="199.667" type="line" smooth="yes"/>
      <point x="415.333" y="126.247"/>
      <point x="367.004" y="81.333"/>
      <point x="288" y="81.333" type="curve" smooth="yes"/>
      <point x="209.996" y="81.333"/>
      <point x="161.667" y="126.353"/>
    </contour>
  </outline>
</glyph>
<glyph name="seven" format="2">
  <advance width="506"/>
  <unicode hex="0037"/>
  <outline>
    <contour>
      <point x="103.333" y="0" type="line"/>
      <point x="212.333" y="0" type="line"/>
      <point x="474" y="612.667" type="line"/>
      <point x="474" y="613.329"/>
      <point x="474" y="701.943"/>
      <point x="474" y="707" type="curve"/>
      <point x="36.667" y="707" type="line"/>
      <point x="36.667" y="612.667" type="line"/>
      <point x="367" y="612.667" type="line"/>
    </contour>
  </outline>
</glyph>
<glyph name="eight" format="2">
  <advance width="584"/>
  <unicode hex="0038"/>
  <outline>
    <contour>
      <point x="166" y="371.667" type="curve"/>
      <point x="97.841" y="340.928"/>
      <point x="60" y="282.716"/>
      <point x="60" y="208.667" type="curve" smooth="yes"/>
      <point x="60" y="193.333" type="line" smooth="yes"/>
      <point x="60" y="69.208"/>
      <point x="151.778" y="-10.333"/>
      <point x="295" y="-10.333" type="curve" smooth="yes"/>
      <point x="437.548" y="-10.333"/>
      <point x="529.333" y="69.837"/>
      <point x="529.333" y="194.333" type="curve" smooth="yes"/>
      <point x="529.333" y="209.667" type="line" smooth="yes"/>
      <point x="529.333" y="281.985"/>
      <point x="491.41" y="340.881"/>
      <point x="425" y="371.667" type="curve"/>
      <point x="481.105" y="397.249"/>
      <point x="515.333" y="452.073"/>
      <point x="515.333" y="516.333" type="curve" smooth="yes"/>
      <point x="515.333" y="528.667" type="line" smooth="yes"/>
      <point x="515.333" y="642.706"/>
      <point x="428.316" y="717.333"/>
      <point x="295.333" y="717.333" type="curve" smooth="yes"/>
      <point x="163.296" y="717.333"/>
      <point x="76" y="642.239"/>
      <point x="76" y="528.667" type="curve" smooth="yes"/>
      <point x="76" y="516.333" type="line" smooth="yes"/>
      <point x="76" y="450.978"/>
      <point x="109.579" y="397"/>
    </contour>
    <contour>
      <point x="181" y="514.667" type="curve" smooth="yes"/>
      <point x="181" y="528.333" type="line" smooth="yes"/>
      <point x="181" y="588.751"/>
      <point x="224.116" y="625.333"/>
      <point x="295.333" y="625.333" type="curve" smooth="yes"/>
      <point x="366.353" y="625.333"/>
      <point x="410" y="588.411"/>
      <point x="410" y="528.333" type="curve" smooth="yes"/>
      <point x="410" y="514.667" type="line" smooth="yes"/>
      <point x="410" y="452.592"/>
      <point x="366.986" y="415.333"/>
      <point x="295.333" y="415.333" type="curve" smooth="yes"/>
      <point x="223.591" y="415.333"/>
      <point x="181" y="452.337"/>
    </contour>
    <contour>
      <point x="166" y="196" type="curve" smooth="yes"/>
      <point x="166" y="211.667" type="line" smooth="yes"/>
      <point x="166" y="281.989"/>
      <point x="214.612" y="324.333"/>
      <point x="295.333" y="324.333" type="curve" smooth="yes"/>
      <point x="375.506" y="324.333"/>
      <point x="424.333" y="281.684"/>
      <point x="424.333" y="211.667" type="curve" smooth="yes"/>
      <point x="424.333" y="196" type="line" smooth="yes"/>
      <point x="424.333" y="123.916"/>
      <point x="376.426" y="81.333"/>
      <point x="295.333" y="81.333" type="curve" smooth="yes"/>
      <point x="214.09" y="81.333"/>
      <point x="166" y="123.97"/>
    </contour>
  </outline>
</glyph>
<glyph name="nine" format="2">
  <advance width="571"/>
  <unicode hex="0039"/>
  <outline>
    <contour>
      <point x="166.333" y="0" type="line"/>
      <point x="281" y="0" type="line"/>
      <point x="457.667" y="297.333" type="line"/>
      <point x="502.957" y="369.644"/>
      <point x="521.333" y="424.145"/>
      <point x="521.333" y="485.333" type="curve" smooth="yes"/>
      <point x="521.333" y="508" type="line" smooth="yes"/>
      <point x="521.333" y="636.756"/>
      <point x="431.559" y="717.333"/>
      <point x="288" y="717.333" type="curve" smooth="yes"/>
      <point x="144.164" y="717.333"/>
      <point x="54.333" y="635.3"/>
      <point x="54.333" y="504" type="curve" smooth="yes"/>
      <point x="54.333" y="480" type="line" smooth="yes"/>
      <point x="54.333" y="361.796"/>
      <point x="139.01" y="277.667"/>
      <point x="258" y="277.667" type="curve"/>
      <point x="292.222" y="277.889"/>
      <point x="320.222" y="283.556"/>
      <point x="342" y="294.667" type="curve"/>
    </contour>
    <contour>
      <point x="160.333" y="485.333" type="curve" smooth="yes"/>
      <point x="160.333" y="507.333" type="line" smooth="yes"/>
      <point x="160.333" y="579.698"/>
      <point x="209.691" y="625.333"/>
      <point x="288" y="625.333" type="curve" smooth="yes"/>
      <point x="366.441" y="625.333"/>
      <point x="415" y="580.58"/>
      <point x="415" y="508.333" type="curve" smooth="yes"/>
      <point x="415" y="485.667" type="line" smooth="yes"/>
      <point x="415" y="413.208"/>
      <point x="367.146" y="369"/>
      <point x="288.667" y="369" type="curve" smooth="yes"/>
      <point x="209.635" y="369"/>
      <point x="160.333" y="413.702"/>
    </contour>
  </outline>
</glyph>
<glyph name="colon" format="2">
  <advance width="208"/>
  <unicode hex="003A"/>
  <outline>
    <contour>
      <point x="45.667" y="33.333" type="line"/>
      <point x="163" y="33.333" type="line"/>
      <point x="163" y="155" type="line"/>
      <point x="45.667" y="155" type="line"/>
    </contour>
    <contour>
      <point x="45.667" y="312.667" type="line"/>
      <point x="163" y="312.667" type="line"/>
      <point x="163" y="434.667" type="line"/>
      <point x="45.667" y="434.667" type="line"/>
    </contour>
  </outline>
</glyph>
<glyph name="semicolon" format="2">
  <advance width="208"/>
  <unicode hex="003B"/>
  <outline>
    <contour>
      <point x="45.667" y="346" type="line"/>
      <point x="163" y="346" type="line"/>
      <point x="163" y="468" type="line"/>
      <point x="45.667" y="468" type="line"/>
    </contour>
    <contour>
      <point x="66.333" y="-154" type="line"/>
      <point x="162.333" y="-71" type="line"/>
      <point x="162.333" y="120" type="line"/>
      <point x="66.333" y="120" type="line"/>
    </contour>
  </outline>
</glyph>
<glyph name="less" format="2">
  <advance width="528"/>
  <unicode hex="003C"/>
  <outline>
    <contour>
      <point x="52.333" y="240" type="line"/>
      <point x="474.667" y="70.667" type="line"/>
      <point x="474.667" y="167.667" type="line"/>
      <point x="180.333" y="282.333" type="line"/>
      <point x="474.667" y="395.667" type="line"/>
      <point x="474.667" y="492.333" type="line"/>
      <point x="52.333" y="324" type="line"/>
    </contour>
  </outline>
</glyph>
<glyph name="greater" format="2">
  <advance width="528"/>
  <unicode hex="003E"/>
  <outline>
    <contour>
      <point x="52.333" y="70.667" type="line"/>
      <point x="474.667" y="240" type="line"/>
      <point x="474.667" y="324" type="line"/>
      <point x="52.333" y="492.333" type="line"/>
      <point x="52.333" y="395.667" type="line"/>
      <point x="346.667" y="282.333" type="line"/>
      <point x="52.333" y="167.667" type="line"/>
    </contour>
  </outline>
</glyph>
<glyph name="question" format="2">
  <advance width="501"/>
  <unicode hex="003F"/>
  <outline>
    <contour>
      <point x="192.667" y="190.667" type="line"/>
      <point x="295" y="190.667" type="line"/>
      <point x="295" y="236.333" type="line" smooth="yes"/>
      <point x="295" y="278.37"/>
      <point x="303.413" y="296.892"/>
      <point x="332.667" y="326.667" type="curve" smooth="yes"/>
      <point x="398.333" y="393.333" type="line" smooth="yes"/>
      <point x="441.886" y="437.597"/>
      <point x="461.667" y="484.065"/>
      <point x="461.667" y="540" type="curve" smooth="yes"/>
      <point x="461.667" y="650.274"/>
      <point x="380.494" y="717"/>
      <point x="246.333" y="717" type="curve" smooth="yes"/>
      <point x="109.813" y="717"/>
      <point x="35.79" y="650.107"/>
      <point x="32.667" y="524" type="curve"/>
      <point x="133.333" y="524" type="line"/>
      <point x="133.784" y="590.936"/>
      <point x="170.313" y="623.667"/>
      <point x="244.667" y="623.667" type="curve" smooth="yes"/>
      <point x="317.322" y="623.667"/>
      <point x="356" y="593.087"/>
      <point x="356" y="535.667" type="curve" smooth="yes"/>
      <point x="356" y="496.352"/>
      <point x="341.951" y="472.982"/>
      <point x="304.333" y="435.333" type="curve" smooth="yes"/>
      <point x="247.667" y="378.667" type="line" smooth="yes"/>
      <point x="205.466" y="336.377"/>
      <point x="192.667" y="308.272"/>
      <point x="192.667" y="244.333" type="curve" smooth="yes"/>
    </contour>
    <contour>
      <point x="186" y="0" type="line"/>
      <point x="300" y="0" type="line"/>
      <point x="300" y="113" type="line"/>
      <point x="186" y="113" type="line"/>
    </contour>
  </outline>
</glyph>
<glyph name="at" format="2">
  <advance width="883"/>
  <unicode hex="0040"/>
  <outline>
    <contour>
      <point x="654.667" y="2.333" type="line"/>
      <point x="585.369" y="-34.589"/>
      <point x="523.607" y="-49.667"/>
      <point x="441.667" y="-49.667" type="curve" smooth="yes"/>
      <point x="260.722" y="-49.667"/>
      <point x="146" y="67.259"/>
      <point x="146" y="251.667" type="curve" smooth="yes"/>
      <point x="146" y="328.667" type="line" smooth="yes"/>
      <point x="146" y="511.72"/>
      <point x="259.63" y="626"/>
      <point x="441.667" y="626" type="curve" smooth="yes"/>
      <point x="623.115" y="626"/>
      <point x="737.333" y="511.649"/>
      <point x="737.333" y="330" type="curve" smooth="yes"/>
      <point x="737.333" y="254" type="line" smooth="yes"/>
      <point x="737.333" y="171.127"/>
      <point x="716.603" y="134"/>
      <point x="670.333" y="134" type="curve" smooth="yes"/>
      <point x="633.002" y="134"/>
      <point x="611" y="161.93"/>
      <point x="611" y="209.333" type="curve" smooth="yes"/>
      <point x="611" y="504" type="line"/>
      <point x="519.667" y="504" type="line"/>
      <point x="519.667" y="460.333" type="line"/>
      <point x="498.564" y="494.555"/>
      <point x="458.752" y="514.333"/>
      <point x="411" y="514.333" type="curve" smooth="yes"/>
      <point x="314.38" y="514.333"/>
      <point x="263.667" y="450.998"/>
      <point x="263.667" y="330.333" type="curve" smooth="yes"/>
      <point x="263.667" y="240.333" type="line" smooth="yes"/>
      <point x="263.667" y="118.859"/>
      <point x="315.428" y="56.333"/>
      <point x="416" y="56.333" type="curve" smooth="yes"/>
      <point x="480.889" y="56.333"/>
      <point x="524.111" y="79.556"/>
      <point x="545.667" y="126" type="curve"/>
      <point x="566.682" y="81.314"/>
      <point x="611" y="56.333"/>
      <point x="669.333" y="56.333" type="curve" smooth="yes"/>
      <point x="770.52" y="56.333"/>
      <point x="832.333" y="131.884"/>
      <point x="832.333" y="255.667" type="curve" smooth="yes"/>
      <point x="832.333" y="331" type="line" smooth="yes"/>
      <point x="832.333" y="554.144"/>
      <point x="670.672" y="711.667"/>
      <point x="441.667" y="711.667" type="curve" smooth="yes"/>
      <point x="210.116" y="711.667"/>
      <point x="51" y="555.126"/>
      <point x="51" y="327.333" type="curve" smooth="yes"/>
      <point x="51" y="251.333" type="line" smooth="yes"/>
      <point x="51" y="21.477"/>
      <point x="209.227" y="-135"/>
      <point x="441.667" y="-135" type="curve" smooth="yes"/>
      <point x="541.028" y="-135"/>
      <point x="615.862" y="-115.91"/>
      <point x="691.333" y="-71.333" type="curve"/>
    </contour>
    <contour>
      <point x="438.333" y="136" type="curve" smooth="yes"/>
      <point x="384.17" y="136"/>
      <point x="358" y="171.727"/>
      <point x="358" y="245.667" type="curve" smooth="yes"/>
      <point x="358" y="329.667" type="line" smooth="yes"/>
      <point x="358" y="399.657"/>
      <point x="384.956" y="435"/>
      <point x="438.333" y="435" type="curve" smooth="yes"/>
      <point x="490.594" y="435"/>
      <point x="517.667" y="399.401"/>
      <point x="517.667" y="330.667" type="curve" smooth="yes"/>
      <point x="517.667" y="242" type="line" smooth="yes"/>
      <point x="517.667" y="171.333"/>
      <point x="491.222" y="136"/>
    </contour>
  </outline>
</glyph>
<glyph name="A" format="2">
  <advance width="686"/>
  <unicode hex="0041"/>
  <anchor x="342.667" y="765.333" name="top"/>
  <anchor x="342.667" y="659" name="t.ring"/>
  <anchor x="343.333" y="-86" name="bottom"/>
  <anchor x="675.333" y="0" name="b.cedilla"/>
  <outline>
    <contour>
      <point x="5.333" y="0" type="line"/>
      <point x="117.667" y="0" type="line"/>
      <point x="177.667" y="152.333" type="line"/>
      <point x="508.333" y="152.333" type="line"/>
      <point x="568.667" y="0" type="line"/>
      <point x="681.667" y="0" type="line"/>
      <point x="387.667" y="707" type="line"/>
      <point x="298.667" y="707" type="line"/>
    </contour>
    <contour>
      <point x="213" y="242.333" type="line"/>
      <point x="342.667" y="573.667" type="line"/>
      <point x="473" y="242.333" type="line"/>
    </contour>
  </outline>
</glyph>
<glyph name="B" format="2">
  <advance width="681"/>
  <unicode hex="0042"/>
  <anchor x="304.667" y="765.333" name="top"/>
  <anchor x="306" y="-86" name="bottom"/>
  <outline>
    <contour>
      <point x="139.82" y="0" type="line"/>
      <point x="386.667" y="0" type="line" smooth="yes"/>
      <point x="541.684" y="0"/>
      <point x="626" y="70.108"/>
      <point x="626" y="199" type="curve" smooth="yes"/>
      <point x="626" y="280.48"/>
      <point x="585.734" y="337.825"/>
      <point x="509.667" y="364.667" type="curve"/>
      <point x="575.633" y="389.733"/>
      <point x="613.667" y="444.59"/>
      <point x="613.667" y="514.667" type="curve" smooth="yes"/>
      <point x="613.667" y="639.954"/>
      <point x="531.619" y="707"/>
      <point x="378.333" y="707" type="curve" smooth="yes"/>
      <point x="139.82" y="707" type="line"/>
      <point x="139.82" y="613.333" type="line"/>
      <point x="381.667" y="613.333" type="line" smooth="yes"/>
      <point x="466.111" y="613.333"/>
      <point x="507.667" y="579.033"/>
      <point x="507.667" y="509.333" type="curve" smooth="yes"/>
      <point x="507.667" y="440.752"/>
      <point x="465.61" y="407.333"/>
      <point x="378.667" y="407.333" type="curve" smooth="yes"/>
      <point x="139.82" y="407.333" type="line"/>
      <point x="139.82" y="314.333" type="line"/>
      <point x="383" y="314.333" type="line" smooth="yes"/>
      <point x="473.889" y="314.333"/>
      <point x="519.333" y="278.222"/>
      <point x="519.333" y="206" type="curve" smooth="yes"/>
      <point x="519.333" y="130.373"/>
      <point x="476.644" y="93.667"/>
      <point x="388.667" y="93.667" type="curve" smooth="yes"/>
      <point x="139.82" y="93.667" type="line"/>
    </contour>
    <contour>
      <point x="69.333" y="0" type="line"/>
      <point x="176.333" y="-0.026" type="line"/>
      <point x="176.333" y="707.3" type="line"/>
      <point x="69.333" y="707" type="line"/>
    </contour>
  </outline>
</glyph>
<glyph name="C" format="2">
  <advance width="694"/>
  <unicode hex="0043"/>
  <anchor x="357.667" y="765.333" name="top"/>
  <anchor x="324" y="0" name="b.cedilla"/>
  <anchor x="236" y="-86" name="bottom"/>
  <outline>
    <contour>
      <point x="531.667" y="228" type="line"/>
      <point x="531.667" y="223.333" type="line" smooth="yes"/>
      <point x="531.667" y="135.728"/>
      <point x="469.96" y="86.667"/>
      <point x="359.667" y="86.667" type="curve" smooth="yes"/>
      <point x="229.725" y="86.667"/>
      <point x="167.667" y="155.952"/>
      <point x="167.667" y="301" type="curve" smooth="yes"/>
      <point x="167.667" y="400.667" type="line" smooth="yes"/>
      <point x="167.667" y="551.565"/>
      <point x="228.829" y="622.667"/>
      <point x="358.667" y="622.667" type="curve" smooth="yes"/>
      <point x="468.482" y="622.667"/>
      <point x="531.667" y="572.215"/>
      <point x="531.667" y="484.667" type="curve" smooth="yes"/>
      <point x="531.667" y="480.667" type="line"/>
      <point x="638.333" y="480.667" type="line"/>
      <point x="638.333" y="487.333" type="line" smooth="yes"/>
      <point x="638.333" y="630.338"/>
      <point x="532.312" y="718"/>
      <point x="359.333" y="718" type="curve" smooth="yes"/>
      <point x="165.102" y="718"/>
      <point x="60" y="608.922"/>
      <point x="60" y="407.333" type="curve" smooth="yes"/>
      <point x="60" y="301" type="line" smooth="yes"/>
      <point x="60" y="99.833"/>
      <point x="164.922" y="-9.667"/>
      <point x="357.667" y="-9.667" type="curve" smooth="yes"/>
      <point x="531.262" y="-9.667"/>
      <point x="637.333" y="78.437"/>
      <point x="637.333" y="222.667" type="curve" smooth="yes"/>
      <point x="637.333" y="228" type="line"/>
    </contour>
  </outline>
</glyph>
<glyph name="D" format="2">
  <advance width="686"/>
  <unicode hex="0044"/>
  <anchor x="304.667" y="765.333" name="top"/>
  <anchor x="305.333" y="-86" name="bottom"/>
  <outline>
    <contour>
      <point x="69.333" y="0" type="line"/>
      <point x="332.333" y="0" type="line" smooth="yes"/>
      <point x="527.099" y="0"/>
      <point x="630.667" y="106.925"/>
      <point x="630.667" y="308" type="curve" smooth="yes"/>
      <point x="630.667" y="399" type="line" smooth="yes"/>
      <point x="630.667" y="600.142"/>
      <point x="528.201" y="707"/>
      <point x="335.333" y="707" type="curve" smooth="yes"/>
      <point x="69.333" y="707" type="line"/>
    </contour>
    <contour>
      <point x="176.333" y="94.333" type="line"/>
      <point x="176.333" y="612.667" type="line"/>
      <point x="335" y="612.667" type="line" smooth="yes"/>
      <point x="463.482" y="612.667"/>
      <point x="524" y="542.468"/>
      <point x="524" y="393.333" type="curve" smooth="yes"/>
      <point x="524" y="306.667" type="line" smooth="yes"/>
      <point x="524" y="162.117"/>
      <point x="463.648" y="94.333"/>
      <point x="335" y="94.333" type="curve" smooth="yes"/>
    </contour>
  </outline>
</glyph>
<glyph name="E" format="2">
  <advance width="608"/>
  <unicode hex="0045"/>
  <anchor x="316.667" y="765.333" name="top"/>
  <anchor x="316.667" y="-86" name="bottom"/>
  <anchor x="566.333" y="0" name="b.cedilla"/>
  <outline>
    <contour>
      <point x="69.333" y="0" type="line"/>
      <point x="566.333" y="0" type="line"/>
      <point x="566.333" y="94.333" type="line"/>
      <point x="176.333" y="94.333" type="line"/>
      <point x="176.333" y="310.667" type="line"/>
      <point x="511" y="310.667" type="line"/>
      <point x="511" y="405" type="line"/>
      <point x="176.333" y="405" type="line"/>
      <point x="176.333" y="612.667" type="line"/>
      <point x="566.333" y="612.667" type="line"/>
      <point x="566.333" y="707" type="line"/>
      <point x="69.333" y="707" type="line"/>
    </contour>
  </outline>
</glyph>
<glyph name="F" format="2">
  <advance width="601"/>
  <unicode hex="0046"/>
  <anchor x="323.667" y="765.333" name="top"/>
  <anchor x="236" y="-86" name="bottom"/>
  <outline>
    <contour>
      <point x="155.973" y="306.667" type="line"/>
      <point x="512.333" y="306.667" type="line"/>
      <point x="512.333" y="401" type="line"/>
      <point x="155.973" y="401" type="line"/>
    </contour>
    <contour>
      <point x="156.066" y="612.667" type="line"/>
      <point x="566.333" y="612.667" type="line"/>
      <point x="566.333" y="707" type="line"/>
      <point x="156.066" y="707" type="line"/>
    </contour>
    <contour>
      <point x="69.333" y="0" type="line"/>
      <point x="176.333" y="0" type="line"/>
      <point x="176.333" y="707.063" type="line"/>
      <point x="69.333" y="707" type="line"/>
    </contour>
  </outline>
</glyph>
<glyph name="G" format="2">
  <advance width="694"/>
  <unicode hex="0047"/>
  <anchor x="350.333" y="765.333" name="top"/>
  <anchor x="350" y="-86" name="bottom"/>
  <outline>
    <contour>
      <point x="350.333" y="282.667" type="line"/>
      <point x="532.667" y="282.667" type="line"/>
      <point x="532.667" y="246.333" type="line" smooth="yes"/>
      <point x="532.667" y="139.483"/>
      <point x="475.015" y="86.667"/>
      <point x="359.667" y="86.667" type="curve" smooth="yes"/>
      <point x="229.213" y="86.667"/>
      <point x="167.667" y="155.476"/>
      <point x="167.667" y="301.333" type="curve" smooth="yes"/>
      <point x="167.667" y="401" type="line" smooth="yes"/>
      <point x="167.667" y="551.786"/>
      <point x="228.734" y="622.667"/>
      <point x="358.667" y="622.667" type="curve" smooth="yes"/>
      <point x="466.423" y="622.667"/>
      <point x="531.667" y="571.469"/>
      <point x="531.667" y="487" type="curve" smooth="yes"/>
      <point x="531.667" y="482.333" type="line"/>
      <point x="637.667" y="482.333" type="line"/>
      <point x="637.667" y="489" type="line" smooth="yes"/>
      <point x="637.667" y="629.198"/>
      <point x="529.47" y="718"/>
      <point x="358.667" y="718" type="curve" smooth="yes"/>
      <point x="164.657" y="718"/>
      <point x="60" y="609.144"/>
      <point x="60" y="407.333" type="curve" smooth="yes"/>
      <point x="60" y="301" type="line" smooth="yes"/>
      <point x="60" y="99.623"/>
      <point x="164.956" y="-9.667"/>
      <point x="358.333" y="-9.667" type="curve" smooth="yes"/>
      <point x="537.502" y="-9.667"/>
      <point x="638.333" y="86.241"/>
      <point x="638.333" y="256.667" type="curve" smooth="yes"/>
      <point x="638.333" y="372.333" type="line"/>
      <point x="350.333" y="372.333" type="line"/>
    </contour>
  </outline>
</glyph>
<glyph name="H" format="2">
  <advance width="697"/>
  <unicode hex="0048"/>
  <anchor x="348.667" y="765.333" name="top"/>
  <anchor x="348.667" y="-86" name="bottom"/>
  <outline>
    <contour>
      <point x="155.973" y="312.333" type="line"/>
      <point x="542.027" y="312.333" type="line"/>
      <point x="542.027" y="406" type="line"/>
      <point x="155.973" y="406" type="line"/>
    </contour>
    <contour>
      <point x="521.667" y="0" type="line"/>
      <point x="627.667" y="0" type="line"/>
      <point x="627.667" y="707" type="line"/>
      <point x="521.667" y="707" type="line"/>
    </contour>
    <contour>
      <point x="69.333" y="0" type="line"/>
      <point x="176.333" y="0" type="line"/>
      <point x="176.333" y="707" type="line"/>
      <point x="69.333" y="707" type="line"/>
    </contour>
  </outline>
</glyph>
<glyph name="I" format="2">
  <advance width="258"/>
  <unicode hex="0049"/>
  <anchor x="130" y="765.333" name="top"/>
  <anchor x="183.667" y="0" name="b.cedilla"/>
  <anchor x="130" y="-86" name="bottom"/>
  <outline>
    <contour>
      <point x="76.33" y="0" type="line"/>
      <point x="183.663" y="0" type="line"/>
      <point x="183.663" y="707" type="line"/>
      <point x="76.33" y="707" type="line"/>
    </contour>
  </outline>
</glyph>
<glyph name="J" format="2">
  <advance width="359"/>
  <unicode hex="004A"/>
  <anchor x="229.333" y="765.333" name="top"/>
  <anchor x="236" y="-86" name="bottom"/>
  <outline>
    <contour>
      <point x="28.333" y="0" type="line"/>
      <point x="115.333" y="0" type="line" smooth="yes"/>
      <point x="227.22" y="0"/>
      <point x="282.667" y="54.663"/>
      <point x="282.667" y="165" type="curve" smooth="yes"/>
      <point x="282.667" y="707" type="line"/>
      <point x="175.667" y="707" type="line"/>
      <point x="175.667" y="180.667" type="line" smooth="yes"/>
      <point x="175.667" y="117.292"/>
      <point x="153.404" y="94.667"/>
      <point x="91" y="94.667" type="curve" smooth="yes"/>
      <point x="28.333" y="94.667" type="line"/>
    </contour>
  </outline>
</glyph>
<glyph name="K" format="2">
  <advance width="689"/>
  <unicode hex="004B"/>
  <anchor x="325.333" y="765.333" name="top"/>
  <anchor x="320.667" y="-86" name="bottom"/>
  <outline>
    <contour>
      <point x="69.333" y="0" type="line"/>
      <point x="176.333" y="0" type="line"/>
      <point x="176.333" y="195" type="line"/>
      <point x="322.667" y="351.333" type="line"/>
      <point x="553.667" y="0" type="line"/>
      <point x="682.667" y="0" type="line"/>
      <point x="393.333" y="426.667" type="line"/>
      <point x="654" y="707" type="line"/>
      <point x="518.667" y="707" type="line"/>
      <point x="176.333" y="328.667" type="line"/>
      <point x="176.333" y="707" type="line"/>
      <point x="69.333" y="707" type="line"/>
    </contour>
  </outline>
</glyph>
<glyph name="M" format="2">
  <advance width="840"/>
  <unicode hex="004D"/>
  <anchor x="421.333" y="765.333" name="top"/>
  <anchor x="236" y="-86" name="bottom"/>
  <outline>
    <contour>
      <point x="69.333" y="0" type="line"/>
      <point x="176.333" y="0" type="line"/>
      <point x="176.333" y="507" type="line"/>
      <point x="384.333" y="138.667" type="line"/>
      <point x="458.333" y="138.667" type="line"/>
      <point x="665.333" y="505.667" type="line"/>
      <point x="665.333" y="0" type="line"/>
      <point x="771.333" y="0" type="line"/>
      <point x="771.333" y="707" type="line"/>
      <point x="665.333" y="707" type="line"/>
      <point x="421.333" y="266" type="line"/>
      <point x="176.333" y="707" type="line"/>
      <point x="69.333" y="707" type="line"/>
    </contour>
  </outline>
</glyph>
<glyph name="N" format="2">
  <advance width="731"/>
  <unicode hex="004E"/>
  <anchor x="358" y="765.333" name="top"/>
  <anchor x="358" y="-86" name="bottom"/>
  <outline>
    <contour>
      <point x="69.333" y="0" type="line"/>
      <point x="176.333" y="0" type="line"/>
      <point x="176.333" y="520.667" type="line"/>
      <point x="554.333" y="0" type="line"/>
      <point x="661.667" y="0" type="line"/>
      <point x="661.667" y="707" type="line"/>
      <point x="554.333" y="707" type="line"/>
      <point x="554.333" y="185.333" type="line"/>
      <point x="176.333" y="707" type="line"/>
      <point x="69.333" y="707" type="line"/>
    </contour>
  </outline>
</glyph>
<glyph name="O" format="2">
  <advance width="704"/>
  <unicode hex="004F"/>
  <anchor x="353.333" y="765.333" name="top"/>
  <anchor x="353.333" y="-86" name="bottom"/>
  <anchor x="271.667" y="0" name="b.cedilla"/>
  <outline>
    <contour>
      <point x="352.333" y="-9.667" type="curve" smooth="yes"/>
      <point x="544.132" y="-9.667"/>
      <point x="648.333" y="99.695"/>
      <point x="648.333" y="301" type="curve" smooth="yes"/>
      <point x="648.333" y="407.333" type="line" smooth="yes"/>
      <point x="648.333" y="608.13"/>
      <point x="544.829" y="718"/>
      <point x="355.667" y="718" type="curve" smooth="yes"/>
      <point x="163.989" y="718"/>
      <point x="60" y="608.735"/>
      <point x="60" y="407.333" type="curve" smooth="yes"/>
      <point x="60" y="301" type="line" smooth="yes"/>
      <point x="60" y="99.576"/>
      <point x="162.795" y="-9.667"/>
    </contour>
    <contour>
      <point x="355" y="86.667" type="curve" smooth="yes"/>
      <point x="227.757" y="86.667"/>
      <point x="167.667" y="155.43"/>
      <point x="167.667" y="301" type="curve" smooth="yes"/>
      <point x="167.667" y="400.667" type="line" smooth="yes"/>
      <point x="167.667" y="551.717"/>
      <point x="227.525" y="622.667"/>
      <point x="355" y="622.667" type="curve" smooth="yes"/>
      <point x="481.682" y="622.667"/>
      <point x="542.333" y="550.735"/>
      <point x="542.333" y="400.667" type="curve" smooth="yes"/>
      <point x="542.333" y="301" type="line" smooth="yes"/>
      <point x="542.333" y="156.593"/>
      <point x="481.246" y="86.667"/>
    </contour>
  </outline>
</glyph>
<glyph name="P" format="2">
  <advance width="649"/>
  <unicode hex="0050"/>
  <anchor x="313.667" y="765.333" name="top"/>
  <anchor x="236" y="-86" name="bottom"/>
  <outline>
    <contour>
      <point x="69.333" y="0" type="line"/>
      <point x="176.333" y="0" type="line"/>
      <point x="176.333" y="278.667" type="line"/>
      <point x="373.333" y="278.667" type="line" smooth="yes"/>
      <point x="532.936" y="278.667"/>
      <point x="621.333" y="354.566"/>
      <point x="621.333" y="491.667" type="curve" smooth="yes"/>
      <point x="621.333" y="630.682"/>
      <point x="534.155" y="707"/>
      <point x="375.333" y="707" type="curve" smooth="yes"/>
      <point x="69.333" y="707" type="line"/>
    </contour>
    <contour>
      <point x="176.333" y="373.333" type="line"/>
      <point x="176.333" y="612.667" type="line"/>
      <point x="374.333" y="612.667" type="line" smooth="yes"/>
      <point x="471.06" y="612.667"/>
      <point x="514" y="575.255"/>
      <point x="514" y="491.333" type="curve" smooth="yes"/>
      <point x="514" y="410.201"/>
      <point x="471.632" y="373.333"/>
      <point x="378.333" y="373.333" type="curve" smooth="yes"/>
    </contour>
  </outline>
</glyph>
<glyph name="Q" format="2">
  <advance width="704"/>
  <unicode hex="0051"/>
  <anchor x="353.667" y="765.333" name="top"/>
  <anchor x="236" y="-86" name="bottom"/>
  <outline>
    <contour>
      <point x="352.333" y="-9.667" type="curve" smooth="yes"/>
      <point x="543.458" y="-9.667"/>
      <point x="648.35" y="99.668"/>
      <point x="648.339" y="298.863" type="curve" smooth="yes"/>
      <point x="648.333" y="407.333" type="line" smooth="yes"/>
      <point x="648.323" y="608.136"/>
      <point x="544.824" y="718"/>
      <point x="355.667" y="718" type="curve" smooth="yes"/>
      <point x="163.989" y="718"/>
      <point x="60" y="608.735"/>
      <point x="60" y="407.333" type="curve" smooth="yes"/>
      <point x="60" y="301" type="line" smooth="yes"/>
      <point x="60" y="99.19"/>
      <point x="162.432" y="-9.667"/>
    </contour>
    <contour>
      <point x="355" y="86.667" type="curve" smooth="yes"/>
      <point x="228.107" y="86.667"/>
      <point x="167.667" y="155.848"/>
      <point x="167.667" y="301" type="curve" smooth="yes"/>
      <point x="167.667" y="400.667" type="line" smooth="yes"/>
      <point x="167.667" y="551.717"/>
      <point x="227.525" y="622.667"/>
      <point x="355" y="622.667" type="curve" smooth="yes"/>
      <point x="481.682" y="622.667"/>
      <point x="542.333" y="550.735"/>
      <point x="542.333" y="400.667" type="curve" smooth="yes"/>
      <point x="542.333" y="301" type="line" smooth="yes"/>
      <point x="542.333" y="156.778"/>
      <point x="481.081" y="86.667"/>
    </contour>
    <contour>
      <point x="536.333" y="-156" type="line"/>
      <point x="618.667" y="-111" type="line"/>
      <point x="530.442" y="54.554" type="line"/>
      <point x="444.056" y="15.526" type="line"/>
    </contour>
  </outline>
</glyph>
<glyph name="R" format="2">
  <advance width="680"/>
  <unicode hex="0052"/>
  <anchor x="311" y="765.333" name="top"/>
  <anchor x="311.333" y="-86" name="bottom"/>
  <outline>
    <contour>
      <point x="69.333" y="0" type="line"/>
      <point x="176.333" y="0" type="line"/>
      <point x="176.333" y="293.333" type="line"/>
      <point x="359.667" y="293.333" type="line"/>
      <point x="521" y="0" type="line"/>
      <point x="645" y="0" type="line"/>
      <point x="470" y="304.667" type="line"/>
      <point x="568.994" y="330.412"/>
      <point x="621" y="397.655"/>
      <point x="621" y="500" type="curve" smooth="yes"/>
      <point x="621" y="632.725"/>
      <point x="533.586" y="707"/>
      <point x="377.333" y="707" type="curve" smooth="yes"/>
      <point x="69.333" y="707" type="line"/>
    </contour>
    <contour>
      <point x="176.333" y="385.333" type="line"/>
      <point x="176.333" y="612.667" type="line"/>
      <point x="376" y="612.667" type="line" smooth="yes"/>
      <point x="468.559" y="612.667"/>
      <point x="514" y="575.502"/>
      <point x="514" y="500" type="curve" smooth="yes"/>
      <point x="514" y="421.731"/>
      <point x="471.723" y="385.333"/>
      <point x="380" y="385.333" type="curve" smooth="yes"/>
    </contour>
  </outline>
</glyph>
<glyph name="S" format="2">
  <advance width="624"/>
  <unicode hex="0053"/>
  <anchor x="303.667" y="765.333" name="top"/>
  <anchor x="277.667" y="0" name="b.cedilla"/>
  <anchor x="303.667" y="-86" name="bottom"/>
  <outline>
    <contour>
      <point x="31" y="207.667" type="line"/>
      <point x="40.782" y="67.648"/>
      <point x="135.445" y="-6"/>
      <point x="305.667" y="-6" type="curve" smooth="yes"/>
      <point x="482.65" y="-6"/>
      <point x="586.333" y="72.316"/>
      <point x="586.333" y="206" type="curve" smooth="yes"/>
      <point x="586.333" y="317.586"/>
      <point x="516.495" y="383.406"/>
      <point x="378.667" y="401.667" type="curve" smooth="yes"/>
      <point x="283.667" y="413.333" type="line" smooth="yes"/>
      <point x="192.516" y="424.545"/>
      <point x="150.667" y="457.747"/>
      <point x="150.667" y="518.667" type="curve" smooth="yes"/>
      <point x="150.667" y="589.03"/>
      <point x="205.091" y="626"/>
      <point x="308.667" y="626" type="curve" smooth="yes"/>
      <point x="411.399" y="626"/>
      <point x="462.727" y="589.508"/>
      <point x="469" y="512" type="curve"/>
      <point x="572.333" y="512" type="line"/>
      <point x="559.46" y="645.211"/>
      <point x="468.047" y="716.333"/>
      <point x="309.667" y="716.333" type="curve" smooth="yes"/>
      <point x="146.396" y="716.333"/>
      <point x="47.333" y="638.908"/>
      <point x="47.333" y="511.333" type="curve" smooth="yes"/>
      <point x="47.333" y="400.748"/>
      <point x="117.145" y="336.614"/>
      <point x="256.333" y="319.333" type="curve" smooth="yes"/>
      <point x="344.667" y="308.333" type="line" smooth="yes"/>
      <point x="439.127" y="297.679"/>
      <point x="481" y="263.948"/>
      <point x="481" y="198.667" type="curve"/>
      <point x="480.333" y="123.333"/>
      <point x="423.556" y="85.667"/>
      <point x="310.667" y="85.667" type="curve" smooth="yes"/>
      <point x="197.011" y="85.667"/>
      <point x="141.901" y="123.654"/>
      <point x="133.667" y="207.667" type="curve"/>
    </contour>
  </outline>
</glyph>
<glyph name="T" format="2">
  <advance width="565"/>
  <unicode hex="0054"/>
  <anchor x="283" y="-86" name="bottom"/>
  <anchor x="282.333" y="765.333" name="top"/>
  <anchor x="244.667" y="0" name="b.cedilla"/>
  <outline>
    <contour>
      <point x="230" y="0" type="line"/>
      <point x="336" y="0" type="line"/>
      <point x="336" y="612.667" type="line"/>
      <point x="558.667" y="612.667" type="line"/>
      <point x="558.667" y="707" type="line"/>
      <point x="6.667" y="707" type="line"/>
      <point x="6.667" y="612.667" type="line"/>
      <point x="230" y="612.667" type="line"/>
    </contour>
  </outline>
</glyph>
<glyph name="U" format="2">
  <advance width="703"/>
  <unicode hex="0055"/>
  <anchor x="351" y="765.333" name="top"/>
  <anchor x="351" y="-86" name="bottom"/>
  <anchor x="408" y="0" name="b.cedilla"/>
  <outline>
    <contour>
      <point x="69.333" y="707" type="line"/>
      <point x="69.333" y="253.333" type="line" smooth="yes"/>
      <point x="69.333" y="91.783"/>
      <point x="175.56" y="-6"/>
      <point x="351" y="-6" type="curve" smooth="yes"/>
      <point x="527.113" y="-6"/>
      <point x="634" y="91.926"/>
      <point x="634" y="253.333" type="curve" smooth="yes"/>
      <point x="634" y="707" type="line"/>
      <point x="526.667" y="707" type="line"/>
      <point x="526.667" y="258.667" type="line" smooth="yes"/>
      <point x="526.667" y="145.746"/>
      <point x="466.986" y="87.667"/>
      <point x="351" y="87.667" type="curve" smooth="yes"/>
      <point x="235.34" y="87.667"/>
      <point x="176.667" y="145.436"/>
      <point x="176.667" y="258.667" type="curve" smooth="yes"/>
      <point x="176.667" y="707" type="line"/>
    </contour>
  </outline>
</glyph>
<glyph name="V" format="2">
  <advance width="625"/>
  <unicode hex="0056"/>
  <anchor x="313.333" y="765.333" name="top"/>
  <anchor x="313.333" y="-86" name="bottom"/>
  <outline>
    <contour>
      <point x="269.333" y="0" type="line"/>
      <point x="357.333" y="0" type="line"/>
      <point x="620" y="707" type="line"/>
      <point x="507.333" y="707" type="line"/>
      <point x="313.333" y="150" type="line"/>
      <point x="117.667" y="707" type="line"/>
      <point x="5.333" y="707" type="line"/>
    </contour>
  </outline>
</glyph>
<glyph name="W" format="2">
  <advance width="943"/>
  <unicode hex="0057"/>
  <anchor x="474" y="765.333" name="top"/>
  <anchor x="474.667" y="-86" name="bottom"/>
  <outline>
    <contour>
      <point x="210" y="0" type="line"/>
      <point x="313.333" y="0" type="line"/>
      <point x="474" y="575.333" type="line"/>
      <point x="634.667" y="0" type="line"/>
      <point x="738.333" y="0" type="line"/>
      <point x="938" y="707" type="line"/>
      <point x="834" y="707" type="line"/>
      <point x="690.333" y="150.333" type="line"/>
      <point x="539.667" y="707" type="line"/>
      <point x="407.667" y="707" type="line"/>
      <point x="265.667" y="150.333" type="line"/>
      <point x="112.333" y="707" type="line"/>
      <point x="5.333" y="707" type="line"/>
    </contour>
  </outline>
</glyph>
<glyph name="X" format="2">
  <advance width="669"/>
  <unicode hex="0058"/>
  <anchor x="330.667" y="765.333" name="top"/>
  <anchor x="236" y="-86" name="bottom"/>
  <outline>
    <contour>
      <point x="5.333" y="0" type="line"/>
      <point x="131.333" y="0" type="line"/>
      <point x="330.667" y="287.667" type="line"/>
      <point x="535.667" y="0" type="line"/>
      <point x="664" y="0" type="line"/>
      <point x="397.333" y="371.667" type="line"/>
      <point x="639.333" y="707" type="line"/>
      <point x="513.333" y="707" type="line"/>
      <point x="336.667" y="450.333" type="line"/>
      <point x="154.333" y="707" type="line"/>
      <point x="26.333" y="707" type="line"/>
      <point x="270.333" y="367.667" type="line"/>
    </contour>
  </outline>
</glyph>
<glyph name="Y" format="2">
  <advance width="603"/>
  <unicode hex="0059"/>
  <anchor x="302.333" y="765.333" name="top"/>
  <anchor x="302.333" y="-86" name="bottom"/>
  <outline>
    <contour>
      <point x="249" y="0" type="line"/>
      <point x="355" y="0" type="line"/>
      <point x="355" y="287.333" type="line"/>
      <point x="598" y="707" type="line"/>
      <point x="477.667" y="707" type="line"/>
      <point x="302.333" y="379.667" type="line"/>
      <point x="126" y="707" type="line"/>
      <point x="5.333" y="707" type="line"/>
      <point x="249" y="287.667" type="line"/>
    </contour>
  </outline>
</glyph>
<glyph name="Z" format="2">
  <advance width="581"/>
  <unicode hex="005A"/>
  <anchor x="278" y="765.333" name="top"/>
  <anchor x="278" y="-86" name="bottom"/>
  <outline>
    <contour>
      <point x="35" y="0.667" type="line"/>
      <point x="549.667" y="0.667" type="line"/>
      <point x="549.667" y="95.333" type="line"/>
      <point x="158.333" y="95.333" type="line"/>
      <point x="543" y="613.333" type="line"/>
      <point x="543" y="707.667" type="line"/>
      <point x="46" y="707.667" type="line"/>
      <point x="46" y="613.333" type="line"/>
      <point x="419.667" y="613.333" type="line"/>
      <point x="35" y="95.333" type="line"/>
    </contour>
  </outline>
</glyph>
<glyph name="bracketleft" format="2">
  <advance width="336"/>
  <unicode hex="005B"/>
  <outline>
    <contour>
      <point x="69.333" y="-86" type="line"/>
      <point x="286.333" y="-86" type="line"/>
      <point x="286.333" y="8.667" type="line"/>
      <point x="170.333" y="8.667" type="line"/>
      <point x="170.333" y="663.667" type="line"/>
      <point x="286.333" y="663.667" type="line"/>
      <point x="286.333" y="758.333" type="line"/>
      <point x="69.333" y="758.333" type="line"/>
    </contour>
  </outline>
</glyph>
<glyph name="backslash" format="2">
  <advance width="444"/>
  <unicode hex="005C"/>
  <outline>
    <contour>
      <point x="307.667" y="-10" type="line"/>
      <point x="393.333" y="-10" type="line"/>
      <point x="136.667" y="710" type="line"/>
      <point x="51" y="710" type="line"/>
    </contour>
  </outline>
</glyph>
<glyph name="bracketright" format="2">
  <advance width="337"/>
  <unicode hex="005D"/>
  <outline>
    <contour>
      <point x="51" y="-86" type="line"/>
      <point x="268" y="-86" type="line"/>
      <point x="268" y="757.667" type="line"/>
      <point x="51" y="757.667" type="line"/>
      <point x="51" y="663.333" type="line"/>
      <point x="166.333" y="663.333" type="line"/>
      <point x="166.333" y="8.667" type="line"/>
      <point x="51" y="8.667" type="line"/>
    </contour>
  </outline>
</glyph>
<glyph name="asciicircum" format="2">
  <advance width="528"/>
  <unicode hex="005E"/>
  <outline>
    <contour>
      <point x="47.667" y="284.667" type="line"/>
      <point x="132.667" y="284.667" type="line"/>
      <point x="263.333" y="612.333" type="line"/>
      <point x="394.667" y="284.667" type="line"/>
      <point x="480" y="284.667" type="line"/>
      <point x="306.667" y="710" type="line"/>
      <point x="221" y="710" type="line"/>
    </contour>
  </outline>
</glyph>
<glyph name="underscore" format="2">
  <advance width="558"/>
  <unicode hex="005F"/>
  <outline>
    <contour>
      <point x="0" y="-116" type="line"/>
      <point x="559" y="-116" type="line"/>
      <point x="559" y="-47.667" type="line"/>
      <point x="0" y="-47.667" type="line"/>
    </contour>
  </outline>
</glyph>
<glyph name="grave" format="2">
  <advance width="512"/>
  <unicode hex="0060"/>
  <outline>
    <contour>
      <point x="82" y="724" type="line"/>
      <point x="240.667" y="591.333" type="line"/>
      <point x="336.667" y="591.333" type="line"/>
      <point x="213" y="724" type="line"/>
    </contour>
  </outline>
</glyph>
<glyph name="a" format="2">
  <advance width="563"/>
  <unicode hex="0061"/>
  <anchor x="270" y="591.333" name="top"/>
  <anchor x="270" y="581.333" name="t.ring"/>
  <anchor x="270" y="-86" name="bottom"/>
  <anchor x="499" y="0" name="b.cedilla"/>
  <outline>
    <contour>
      <point x="402" y="0" type="line"/>
      <point x="499.667" y="0" type="line"/>
      <point x="499.667" y="341.333" type="line" smooth="yes"/>
      <point x="499.667" y="465.908"/>
      <point x="418.641" y="533.667"/>
      <point x="269.667" y="533.667" type="curve" smooth="yes"/>
      <point x="138.569" y="533.667"/>
      <point x="58" y="472.899"/>
      <point x="58" y="374" type="curve" smooth="yes"/>
      <point x="58" y="371" type="line"/>
      <point x="155" y="371" type="line"/>
      <point x="155" y="374" type="line" smooth="yes"/>
      <point x="155" y="424.684"/>
      <point x="195.986" y="453"/>
      <point x="269.333" y="453" type="curve" smooth="yes"/>
      <point x="356.222" y="453"/>
      <point x="399.667" y="416"/>
      <point x="399.667" y="342" type="curve" smooth="yes"/>
      <point x="399.667" y="307.333" type="line"/>
      <point x="373.67" y="307.333"/>
      <point x="269.667" y="307.333"/>
      <point x="243.667" y="307.333" type="curve" smooth="yes"/>
      <point x="111.616" y="307.333"/>
      <point x="41.333" y="254.187"/>
      <point x="41.333" y="154.333" type="curve" smooth="yes"/>
      <point x="41.333" y="50.293"/>
      <point x="109.794" y="-6"/>
      <point x="236.333" y="-6" type="curve" smooth="yes"/>
      <point x="311.568" y="-6"/>
      <point x="363.852" y="13.069"/>
      <point x="402" y="55.667" type="curve"/>
    </contour>
    <contour>
      <point x="399.667" y="235" type="line"/>
      <point x="399.667" y="197" type="line" smooth="yes"/>
      <point x="399.667" y="114.995"/>
      <point x="353.133" y="75"/>
      <point x="257" y="75" type="curve" smooth="yes"/>
      <point x="177.75" y="75"/>
      <point x="139.667" y="101.268"/>
      <point x="139.667" y="156" type="curve" smooth="yes"/>
      <point x="139.667" y="210.392"/>
      <point x="177.35" y="235"/>
      <point x="260.667" y="235" type="curve" smooth="yes"/>
    </contour>
  </outline>
</glyph>
<glyph name="b" format="2">
  <advance width="590"/>
  <unicode hex="0062"/>
  <anchor x="325" y="590" name="top"/>
  <anchor x="325.333" y="-86" name="bottom"/>
  <outline>
    <contour>
      <point x="64.333" y="0" type="line"/>
      <point x="163" y="0" type="line"/>
      <point x="163" y="63.333" type="line"/>
      <point x="198.453" y="15.381"/>
      <point x="252.926" y="-9"/>
      <point x="324.667" y="-9" type="curve" smooth="yes"/>
      <point x="457.568" y="-9"/>
      <point x="540.333" y="85.205"/>
      <point x="540.333" y="236.333" type="curve" smooth="yes"/>
      <point x="540.333" y="295" type="line" smooth="yes"/>
      <point x="540.333" y="446.164"/>
      <point x="459.313" y="537.333"/>
      <point x="325" y="537.333" type="curve" smooth="yes"/>
      <point x="257.223" y="537.333"/>
      <point x="200.389" y="509.918"/>
      <point x="164.667" y="460" type="curve"/>
      <point x="164.667" y="707" type="line"/>
      <point x="64.333" y="707" type="line"/>
    </contour>
    <contour>
      <point x="306" y="80" type="curve" smooth="yes"/>
      <point x="219.249" y="80"/>
      <point x="164.667" y="137.292"/>
      <point x="164.667" y="228.333" type="curve" smooth="yes"/>
      <point x="164.667" y="297" type="line" smooth="yes"/>
      <point x="164.667" y="390.538"/>
      <point x="217.503" y="447.667"/>
      <point x="304" y="447.667" type="curve" smooth="yes"/>
      <point x="393.94" y="447.667"/>
      <point x="440" y="394.382"/>
      <point x="440" y="290.333" type="curve" smooth="yes"/>
      <point x="440" y="240.667" type="line" smooth="yes"/>
      <point x="440" y="136.122"/>
      <point x="393.193" y="80"/>
    </contour>
  </outline>
</glyph>
<glyph name="d" format="2">
  <advance width="590"/>
  <unicode hex="0064"/>
  <anchor x="270" y="590" name="top"/>
  <anchor x="283.333" y="-86" name="bottom"/>
  <outline>
    <contour>
      <point x="427.333" y="0" type="line"/>
      <point x="525.667" y="0" type="line"/>
      <point x="525.667" y="707" type="line"/>
      <point x="426.333" y="707" type="line"/>
      <point x="426.333" y="461.667" type="line"/>
      <point x="391.382" y="509.866"/>
      <point x="332.167" y="537.333"/>
      <point x="263" y="537.333" type="curve" smooth="yes"/>
      <point x="132.074" y="537.333"/>
      <point x="51" y="444.261"/>
      <point x="51" y="294" type="curve" smooth="yes"/>
      <point x="51" y="233.667" type="line" smooth="yes"/>
      <point x="51" y="82.108"/>
      <point x="131.336" y="-9"/>
      <point x="265" y="-9" type="curve" smooth="yes"/>
      <point x="337.155" y="-9"/>
      <point x="392.428" y="15.984"/>
      <point x="427.333" y="65" type="curve"/>
    </contour>
    <contour>
      <point x="286" y="80" type="curve" smooth="yes"/>
      <point x="197.941" y="80"/>
      <point x="151.333" y="135.022"/>
      <point x="151.333" y="239" type="curve" smooth="yes"/>
      <point x="151.333" y="288.667" type="line" smooth="yes"/>
      <point x="151.333" y="392.775"/>
      <point x="197.939" y="447.667"/>
      <point x="286.333" y="447.667" type="curve" smooth="yes"/>
      <point x="373.677" y="447.667"/>
      <point x="426.333" y="391.01"/>
      <point x="426.333" y="297" type="curve" smooth="yes"/>
      <point x="426.333" y="228.333" type="line" smooth="yes"/>
      <point x="426.333" y="136.298"/>
      <point x="373.072" y="80"/>
    </contour>
  </outline>
</glyph>
<glyph name="e" format="2">
  <advance width="575"/>
  <unicode hex="0065"/>
  <anchor x="288.333" y="591.333" name="top"/>
  <anchor x="289" y="-86" name="bottom"/>
  <anchor x="370.333" y="0" name="b.cedilla"/>
  <outline>
    <contour>
      <point x="151" y="237.667" type="line"/>
      <point x="523.667" y="237.667" type="line"/>
      <point x="523.667" y="299" type="line" smooth="yes"/>
      <point x="523.667" y="450.382"/>
      <point x="437.81" y="537.333"/>
      <point x="288.333" y="537.333" type="curve" smooth="yes"/>
      <point x="137.502" y="537.333"/>
      <point x="51" y="445.733"/>
      <point x="51" y="286" type="curve" smooth="yes"/>
      <point x="51" y="242.667" type="line" smooth="yes"/>
      <point x="51" y="81.541"/>
      <point x="139.745" y="-9"/>
      <point x="297.667" y="-9" type="curve" smooth="yes"/>
      <point x="426.733" y="-9"/>
      <point x="520" y="60.58"/>
      <point x="520" y="163.667" type="curve" smooth="yes"/>
      <point x="520" y="168.333" type="line"/>
      <point x="421.333" y="168.333" type="line"/>
      <point x="421.333" y="165.333" type="line" smooth="yes"/>
      <point x="421.333" y="111.842"/>
      <point x="371.376" y="78.333"/>
      <point x="300.667" y="78.333" type="curve" smooth="yes"/>
      <point x="200.889" y="78.333"/>
      <point x="151" y="130"/>
      <point x="151" y="234" type="curve" smooth="yes"/>
    </contour>
    <contour>
      <point x="151" y="310" type="line"/>
      <point x="151" y="313.667" type="line" smooth="yes"/>
      <point x="151" y="402.976"/>
      <point x="202.585" y="449.667"/>
      <point x="288.333" y="449.667" type="curve" smooth="yes"/>
      <point x="375.654" y="449.667"/>
      <point x="423.333" y="403.457"/>
      <point x="423.333" y="318.667" type="curve" smooth="yes"/>
      <point x="423.333" y="310" type="line"/>
    </contour>
  </outline>
</glyph>
<glyph name="f" format="2">
  <advance width="373"/>
  <unicode hex="0066"/>
  <anchor x="187" y="765.333" name="top"/>
  <anchor x="236" y="-86" name="bottom"/>
  <outline>
    <contour>
      <point x="116.333" y="0" type="line"/>
      <point x="216" y="0" type="line"/>
      <point x="216" y="453.667" type="line"/>
      <point x="341.667" y="453.667" type="line"/>
      <point x="341.667" y="526.667" type="line"/>
      <point x="216" y="526.667" type="line"/>
      <point x="216" y="562.333" type="line" smooth="yes"/>
      <point x="216" y="612.651"/>
      <point x="239.974" y="635"/>
      <point x="294" y="635" type="curve" smooth="yes"/>
      <point x="341.667" y="635" type="line"/>
      <point x="341.667" y="707" type="line"/>
      <point x="272" y="707" type="line" smooth="yes"/>
      <point x="170.502" y="707"/>
      <point x="116.333" y="655.401"/>
      <point x="116.333" y="558.667" type="curve" smooth="yes"/>
      <point x="116.333" y="526.667" type="line"/>
      <point x="43" y="526.667" type="line"/>
      <point x="43" y="453.667" type="line"/>
      <point x="116.333" y="453.667" type="line"/>
    </contour>
  </outline>
</glyph>
<glyph name="g" format="2">
  <advance width="590"/>
  <unicode hex="0067"/>
  <anchor x="276.667" y="591.333" name="top"/>
  <anchor x="236" y="-86" name="bottom"/>
  <outline>
    <contour>
      <point x="63" y="-14.333" type="line"/>
      <point x="69.6" y="-112.253"/>
      <point x="147.019" y="-165.333"/>
      <point x="283.333" y="-165.333" type="curve" smooth="yes"/>
      <point x="437.023" y="-165.333"/>
      <point x="525.667" y="-87.91"/>
      <point x="525.667" y="46.333" type="curve" smooth="yes"/>
      <point x="525.667" y="526.667" type="line"/>
      <point x="426.667" y="526.667" type="line"/>
      <point x="426.667" y="462.333" type="line"/>
      <point x="391.478" y="510.225"/>
      <point x="332.387" y="537.333"/>
      <point x="263" y="537.333" type="curve" smooth="yes"/>
      <point x="131.462" y="537.333"/>
      <point x="51" y="446.492"/>
      <point x="51" y="298" type="curve" smooth="yes"/>
      <point x="51" y="257.667" type="line" smooth="yes"/>
      <point x="51" y="109.607"/>
      <point x="131.682" y="20"/>
      <point x="265" y="20" type="curve"/>
      <point x="337.416" y="19.778"/>
      <point x="392.209" y="45.092"/>
      <point x="426.667" y="94.667" type="curve"/>
      <point x="426.667" y="39.667" type="line"/>
      <point x="426.889" y="-43.31"/>
      <point x="381.674" y="-82.667"/>
      <point x="286" y="-82.667" type="curve" smooth="yes"/>
      <point x="211.908" y="-82.667"/>
      <point x="171.603" y="-60.751"/>
      <point x="160.333" y="-14.333" type="curve"/>
    </contour>
    <contour>
      <point x="285.333" y="109.667" type="curve" smooth="yes"/>
      <point x="198.102" y="109.667"/>
      <point x="151.333" y="163.048"/>
      <point x="151.333" y="262.667" type="curve" smooth="yes"/>
      <point x="151.333" y="292.667" type="line" smooth="yes"/>
      <point x="151.333" y="394.469"/>
      <point x="197.928" y="448.333"/>
      <point x="286" y="448.333" type="curve" smooth="yes"/>
      <point x="372.506" y="448.333"/>
      <point x="426.333" y="392.077"/>
      <point x="426.333" y="301.667" type="curve" smooth="yes"/>
      <point x="426.333" y="255.667" type="line" smooth="yes"/>
      <point x="426.333" y="163.189"/>
      <point x="374.634" y="109.667"/>
    </contour>
  </outline>
</glyph>
<glyph name="h" format="2">
  <advance width="585"/>
  <unicode hex="0068"/>
  <anchor x="304.333" y="765.333" name="top"/>
  <anchor x="304" y="-86" name="bottom"/>
  <outline>
    <contour>
      <point x="64.333" y="0" type="line"/>
      <point x="164.667" y="0" type="line"/>
      <point x="164.667" y="305" type="line" smooth="yes"/>
      <point x="164.667" y="391.894"/>
      <point x="215.2" y="444"/>
      <point x="299.333" y="444" type="curve" smooth="yes"/>
      <point x="379.786" y="444"/>
      <point x="421" y="399.983"/>
      <point x="421" y="314" type="curve" smooth="yes"/>
      <point x="421" y="0" type="line"/>
      <point x="521.333" y="0" type="line"/>
      <point x="521.333" y="330.667" type="line" smooth="yes"/>
      <point x="521.333" y="458.43"/>
      <point x="449.588" y="533"/>
      <point x="326.667" y="533" type="curve" smooth="yes"/>
      <point x="257.383" y="533"/>
      <point x="201.542" y="508.325"/>
      <point x="164.667" y="461.333" type="curve"/>
      <point x="164.667" y="707" type="line"/>
      <point x="64.333" y="707" type="line"/>
    </contour>
  </outline>
</glyph>
<glyph name="i" format="2">
  <advance width="241"/>
  <unicode hex="0069"/>
  <anchor x="170.667" y="0" name="b.cedilla"/>
  <anchor x="120.333" y="-86" name="bottom"/>
  <outline>
    <contour>
      <point x="70.667" y="0" type="line"/>
      <point x="170.667" y="0" type="line"/>
      <point x="170.667" y="526.667" type="line"/>
      <point x="70.667" y="526.667" type="line"/>
    </contour>
    <contour>
      <point x="70.667" y="610" type="line"/>
      <point x="170.667" y="610" type="line"/>
      <point x="170.667" y="707.333" type="line"/>
      <point x="70.667" y="707.333" type="line"/>
    </contour>
  </outline>
</glyph>
<glyph name="j" format="2">
  <advance width="240"/>
  <unicode hex="006A"/>
  <outline>
    <contour>
      <point x="68.667" y="610" type="line"/>
      <point x="169.333" y="610" type="line"/>
      <point x="169.333" y="708" type="line"/>
      <point x="68.667" y="708" type="line"/>
    </contour>
    <contour>
      <point x="-57" y="-158" type="line"/>
      <point x="2.333" y="-158" type="line" smooth="yes"/>
      <point x="114.684" y="-158"/>
      <point x="170" y="-104.533"/>
      <point x="170" y="4" type="curve" smooth="yes"/>
      <point x="170" y="526.667" type="line"/>
      <point x="70" y="526.667" type="line"/>
      <point x="70" y="10.667" type="line" smooth="yes"/>
      <point x="70" y="-47.632"/>
      <point x="48.242" y="-69.333"/>
      <point x="-10.333" y="-69.333" type="curve" smooth="yes"/>
      <point x="-57" y="-69.333" type="line"/>
    </contour>
  </outline>
</glyph>
<glyph name="k" format="2">
  <advance width="577"/>
  <unicode hex="006B"/>
  <anchor x="249.333" y="765.333" name="top"/>
  <anchor x="267" y="-86" name="bottom"/>
  <outline>
    <contour>
      <point x="64.333" y="0" type="line"/>
      <point x="164.667" y="0" type="line"/>
      <point x="164.667" y="707" type="line"/>
      <point x="64.333" y="707" type="line"/>
    </contour>
    <contour>
      <point x="153.837" y="147.541" type="line"/>
      <point x="537.667" y="526.667" type="line"/>
      <point x="410.667" y="526.667" type="line"/>
      <point x="153.837" y="264.011" type="line"/>
    </contour>
    <contour>
      <point x="439.333" y="0" type="line"/>
      <point x="561.667" y="0" type="line"/>
      <point x="323.465" y="336.875" type="line"/>
      <point x="253.945" y="268.309" type="line"/>
    </contour>
  </outline>
</glyph>
<glyph name="l" format="2">
  <advance width="308"/>
  <unicode hex="006C"/>
  <anchor x="114.667" y="765.333" name="top"/>
  <anchor x="183" y="-86" name="bottom"/>
  <anchor x="291" y="397" name="dot"/>
  <outline>
    <contour>
      <point x="291.667" y="0" type="line"/>
      <point x="291.667" y="88.667" type="line"/>
      <point x="245.667" y="88.667" type="line" smooth="yes"/>
      <point x="186.184" y="88.667"/>
      <point x="164.667" y="109.93"/>
      <point x="164.667" y="168.667" type="curve" smooth="yes"/>
      <point x="164.667" y="707" type="line"/>
      <point x="64.333" y="707" type="line"/>
      <point x="64.333" y="162.667" type="line" smooth="yes"/>
      <point x="64.333" y="52.763"/>
      <point x="118.075" y="0"/>
      <point x="230" y="0" type="curve" smooth="yes"/>
    </contour>
  </outline>
</glyph>
<glyph name="m" format="2">
  <advance width="928"/>
  <unicode hex="006D"/>
  <anchor x="464.333" y="591.333" name="top"/>
  <anchor x="236" y="-86" name="bottom"/>
  <outline>
    <contour>
      <point x="64.333" y="0" type="line"/>
      <point x="164.667" y="0" type="line"/>
      <point x="164.667" y="305" type="line" smooth="yes"/>
      <point x="164.667" y="391.441"/>
      <point x="215.134" y="444"/>
      <point x="298" y="444" type="curve" smooth="yes"/>
      <point x="372.717" y="444"/>
      <point x="413.667" y="398.815"/>
      <point x="413.667" y="316.333" type="curve" smooth="yes"/>
      <point x="413.667" y="0" type="line"/>
      <point x="514.667" y="0" type="line"/>
      <point x="514.667" y="311.667" type="line" smooth="yes"/>
      <point x="514.667" y="396.256"/>
      <point x="561.154" y="444"/>
      <point x="643.667" y="444" type="curve" smooth="yes"/>
      <point x="722.156" y="444"/>
      <point x="763" y="399.492"/>
      <point x="763" y="314" type="curve" smooth="yes"/>
      <point x="763" y="0" type="line"/>
      <point x="863.333" y="0" type="line"/>
      <point x="863.333" y="330.667" type="line" smooth="yes"/>
      <point x="863.333" y="458.871"/>
      <point x="789.689" y="533"/>
      <point x="662.333" y="533" type="curve" smooth="yes"/>
      <point x="584.693" y="533"/>
      <point x="527.305" y="507.475"/>
      <point x="482.667" y="453" type="curve"/>
      <point x="450.05" y="504.197"/>
      <point x="392.963" y="533"/>
      <point x="324" y="533" type="curve" smooth="yes"/>
      <point x="256.413" y="533"/>
      <point x="199.586" y="507.615"/>
      <point x="163" y="461" type="curve"/>
      <point x="163" y="526.667" type="line"/>
      <point x="64.333" y="526.667" type="line"/>
    </contour>
  </outline>
</glyph>
<glyph name="n" format="2">
  <advance width="585"/>
  <unicode hex="006E"/>
  <anchor x="299.333" y="591.333" name="top"/>
  <anchor x="300" y="-86" name="bottom"/>
  <anchor x="0" y="760" name="dot"/>
  <outline>
    <contour>
      <point x="64.333" y="0" type="line"/>
      <point x="164.667" y="0" type="line"/>
      <point x="164.667" y="305" type="line" smooth="yes"/>
      <point x="164.667" y="391.894"/>
      <point x="215.2" y="444"/>
      <point x="299.333" y="444" type="curve" smooth="yes"/>
      <point x="379.786" y="444"/>
      <point x="421" y="399.983"/>
      <point x="421" y="314" type="curve" smooth="yes"/>
      <point x="421" y="0" type="line"/>
      <point x="521.333" y="0" type="line"/>
      <point x="521.333" y="330.667" type="line" smooth="yes"/>
      <point x="521.333" y="458.208"/>
      <point x="449.38" y="533"/>
      <point x="326.667" y="533" type="curve" smooth="yes"/>
      <point x="257.101" y="533"/>
      <point x="200.435" y="508.092"/>
      <point x="163" y="461" type="curve"/>
      <point x="163" y="526.667" type="line"/>
      <point x="64.333" y="526.667" type="line"/>
    </contour>
  </outline>
</glyph>
<glyph name="o" format="2">
  <advance width="582"/>
  <unicode hex="006F"/>
  <anchor x="292" y="591.333" name="top"/>
  <anchor x="292" y="-86" name="bottom"/>
  <anchor x="232.333" y="0" name="b.cedilla"/>
  <outline>
    <contour>
      <point x="292.667" y="-9" type="curve" smooth="yes"/>
      <point x="445.055" y="-9"/>
      <point x="531.333" y="79.808"/>
      <point x="531.333" y="236.667" type="curve" smooth="yes"/>
      <point x="531.333" y="292.333" type="line" smooth="yes"/>
      <point x="531.333" y="448.32"/>
      <point x="444.623" y="537.333"/>
      <point x="292.667" y="537.333" type="curve" smooth="yes"/>
      <point x="138.417" y="537.333"/>
      <point x="51" y="448.709"/>
      <point x="51" y="292.333" type="curve" smooth="yes"/>
      <point x="51" y="236.667" type="line" smooth="yes"/>
      <point x="51" y="79.934"/>
      <point x="138.487" y="-9"/>
    </contour>
    <contour>
      <point x="292" y="80" type="curve" smooth="yes"/>
      <point x="197.999" y="80"/>
      <point x="151" y="133"/>
      <point x="151" y="238.333" type="curve" smooth="yes"/>
      <point x="151" y="290.333" type="line" smooth="yes"/>
      <point x="151" y="395.222"/>
      <point x="198" y="447.667"/>
      <point x="292" y="447.667" type="curve" smooth="yes"/>
      <point x="384.828" y="447.667"/>
      <point x="431.333" y="395.152"/>
      <point x="431.333" y="290.333" type="curve" smooth="yes"/>
      <point x="431.333" y="238.333" type="line" smooth="yes"/>
      <point x="431.333" y="133"/>
      <point x="384.89" y="80"/>
    </contour>
  </outline>
</glyph>
<glyph name="p" format="2">
  <advance width="590"/>
  <unicode hex="0070"/>
  <anchor x="307.333" y="591.333" name="top"/>
  <anchor x="236" y="-86" name="bottom"/>
  <outline>
    <contour>
      <point x="64.333" y="-164" type="line"/>
      <point x="164.667" y="-164" type="line"/>
      <point x="164.667" y="63.333" type="line"/>
      <point x="199.667" y="15.333"/>
      <point x="253.667" y="-9"/>
      <point x="324.667" y="-9" type="curve" smooth="yes"/>
      <point x="457.333" y="-9"/>
      <point x="540.333" y="85"/>
      <point x="540.333" y="236.333" type="curve" smooth="yes"/>
      <point x="540.333" y="295" type="line" smooth="yes"/>
      <point x="540.333" y="445.667"/>
      <point x="459.333" y="536.667"/>
      <point x="325" y="536.667" type="curve" smooth="yes"/>
      <point x="256.333" y="536.667"/>
      <point x="200.667" y="510.333"/>
      <point x="163" y="460" type="curve"/>
      <point x="163" y="526.667" type="line"/>
      <point x="64.333" y="526.667" type="line"/>
    </contour>
    <contour>
      <point x="306" y="80" type="curve" smooth="yes"/>
      <point x="219.333" y="80"/>
      <point x="164.667" y="137.333"/>
      <point x="164.667" y="228.333" type="curve" smooth="yes"/>
      <point x="164.667" y="297" type="line" smooth="yes"/>
      <point x="164.667" y="390.667"/>
      <point x="217.333" y="447.667"/>
      <point x="304" y="447.667" type="curve" smooth="yes"/>
      <point x="394" y="447.667"/>
      <point x="440" y="393.667"/>
      <point x="440" y="289.667" type="curve" smooth="yes"/>
      <point x="440" y="240.667" type="line" smooth="yes"/>
      <point x="440" y="136.333"/>
      <point x="393" y="80"/>
    </contour>
  </outline>
</glyph>
<glyph name="q" format="2">
  <advance width="590"/>
  <unicode hex="0071"/>
  <anchor x="285.333" y="591.333" name="top"/>
  <anchor x="236" y="-86" name="bottom"/>
  <outline>
    <contour>
      <point x="426.333" y="-164" type="line"/>
      <point x="525.667" y="-164" type="line"/>
      <point x="525.667" y="526.667" type="line"/>
      <point x="427.333" y="526.667" type="line"/>
      <point x="427.333" y="461.667" type="line"/>
      <point x="391.604" y="509.702"/>
      <point x="333.068" y="536.667"/>
      <point x="264.333" y="536.667" type="curve" smooth="yes"/>
      <point x="131.947" y="536.667"/>
      <point x="51" y="444.574"/>
      <point x="51" y="294" type="curve" smooth="yes"/>
      <point x="51" y="233.667" type="line" smooth="yes"/>
      <point x="51" y="81.594"/>
      <point x="130.883" y="-9"/>
      <point x="265" y="-9" type="curve" smooth="yes"/>
      <point x="336.266" y="-9"/>
      <point x="391.857" y="16.287"/>
      <point x="426.333" y="65" type="curve"/>
    </contour>
    <contour>
      <point x="286" y="80" type="curve" smooth="yes"/>
      <point x="197.941" y="80"/>
      <point x="151.333" y="135.022"/>
      <point x="151.333" y="239" type="curve" smooth="yes"/>
      <point x="151.333" y="288.667" type="line" smooth="yes"/>
      <point x="151.333" y="392.775"/>
      <point x="197.939" y="447.667"/>
      <point x="286.333" y="447.667" type="curve" smooth="yes"/>
      <point x="373.677" y="447.667"/>
      <point x="426.333" y="391.01"/>
      <point x="426.333" y="297" type="curve" smooth="yes"/>
      <point x="426.333" y="228.333" type="line" smooth="yes"/>
      <point x="426.333" y="136.298"/>
      <point x="373.072" y="80"/>
    </contour>
  </outline>
</glyph>
<glyph name="r" format="2">
  <advance width="392"/>
  <unicode hex="0072"/>
  <anchor x="205" y="591.333" name="top"/>
  <anchor x="205" y="-86" name="bottom"/>
  <outline>
    <contour>
      <point x="64.333" y="0" type="line"/>
      <point x="164.667" y="0" type="line"/>
      <point x="164.667" y="299.667" type="line" smooth="yes"/>
      <point x="164.667" y="391.222"/>
      <point x="219.889" y="446.667"/>
      <point x="307" y="446.667" type="curve" smooth="yes"/>
      <point x="329.452" y="446.667"/>
      <point x="350.778" y="442.778"/>
      <point x="371" y="436.333" type="curve"/>
      <point x="371" y="532" type="line"/>
      <point x="358.111" y="534.222"/>
      <point x="343.222" y="535.333"/>
      <point x="326.333" y="535.333" type="curve" smooth="yes"/>
      <point x="256.111" y="535.333"/>
      <point x="199" y="510.444"/>
      <point x="163" y="458" type="curve"/>
      <point x="163" y="526.667" type="line"/>
      <point x="64.333" y="526.667" type="line"/>
    </contour>
  </outline>
</glyph>
<glyph name="s" format="2">
  <advance width="532"/>
  <unicode hex="0073"/>
  <anchor x="265" y="591.333" name="top"/>
  <anchor x="232" y="0" name="b.cedilla"/>
  <anchor x="265" y="-86" name="bottom"/>
  <outline>
    <contour>
      <point x="41.333" y="162.333" type="line"/>
      <point x="41.333" y="159.333" type="line" smooth="yes"/>
      <point x="41.333" y="57.484"/>
      <point x="127.218" y="-6"/>
      <point x="265" y="-6" type="curve" smooth="yes"/>
      <point x="410.721" y="-6"/>
      <point x="496.667" y="55.211"/>
      <point x="496.667" y="159" type="curve" smooth="yes"/>
      <point x="496.667" y="244.521"/>
      <point x="439.326" y="290.2"/>
      <point x="320.667" y="305.333" type="curve" smooth="yes"/>
      <point x="239.667" y="315.667" type="line" smooth="yes"/>
      <point x="171.668" y="324.324"/>
      <point x="144.333" y="341.502"/>
      <point x="144.333" y="382" type="curve" smooth="yes"/>
      <point x="144.333" y="429.258"/>
      <point x="185.638" y="453.667"/>
      <point x="265.667" y="453.667" type="curve" smooth="yes"/>
      <point x="348.44" y="453.667"/>
      <point x="392.667" y="426.355"/>
      <point x="392.667" y="375.333" type="curve" smooth="yes"/>
      <point x="392.667" y="372.333" type="line"/>
      <point x="487.333" y="372.333" type="line"/>
      <point x="487.333" y="376.333" type="line" smooth="yes"/>
      <point x="487.333" y="473.6"/>
      <point x="402.577" y="533.667"/>
      <point x="265.333" y="533.667" type="curve" smooth="yes"/>
      <point x="130.684" y="533.667"/>
      <point x="49.333" y="474.041"/>
      <point x="49.333" y="375.333" type="curve" smooth="yes"/>
      <point x="49.333" y="289.281"/>
      <point x="102.768" y="243.865"/>
      <point x="220.333" y="230" type="curve" smooth="yes"/>
      <point x="296.667" y="221" type="line" smooth="yes"/>
      <point x="370.577" y="212.253"/>
      <point x="401" y="193.469"/>
      <point x="401" y="153" type="curve" smooth="yes"/>
      <point x="401" y="104.041"/>
      <point x="354.052" y="76.667"/>
      <point x="270" y="76.667" type="curve" smooth="yes"/>
      <point x="183.925" y="76.667"/>
      <point x="136.333" y="105.447"/>
      <point x="136.333" y="159.333" type="curve" smooth="yes"/>
      <point x="136.333" y="162.333" type="line"/>
    </contour>
  </outline>
</glyph>
<glyph name="t" format="2">
  <advance width="396"/>
  <unicode hex="0074"/>
  <anchor x="215.333" y="-86" name="bottom"/>
  <anchor x="172.667" y="765.333" name="top"/>
  <outline>
    <contour>
      <point x="344" y="0" type="line"/>
      <point x="344" y="86.667" type="line"/>
      <point x="299.667" y="86.667" type="line" smooth="yes"/>
      <point x="244.044" y="86.667"/>
      <point x="222.333" y="107.619"/>
      <point x="222.333" y="161.333" type="curve" smooth="yes"/>
      <point x="222.333" y="453.667" type="line"/>
      <point x="355.333" y="453.667" type="line"/>
      <point x="355.333" y="526.667" type="line"/>
      <point x="222.333" y="526.667" type="line"/>
      <point x="222.333" y="676.333" type="line"/>
      <point x="122.333" y="637.667" type="line"/>
      <point x="122.333" y="526.667" type="line"/>
      <point x="30" y="526.667" type="line"/>
      <point x="30" y="453.667" type="line"/>
      <point x="122.333" y="453.667" type="line"/>
      <point x="122.333" y="155.333" type="line" smooth="yes"/>
      <point x="122.333" y="52.99"/>
      <point x="177.012" y="0"/>
      <point x="282.667" y="0" type="curve" smooth="yes"/>
    </contour>
  </outline>
</glyph>
<glyph name="u" format="2">
  <advance width="585"/>
  <unicode hex="0075"/>
  <anchor x="291.667" y="591.333" name="top"/>
  <anchor x="292" y="-86" name="bottom"/>
  <anchor x="365.333" y="0" name="b.cedilla"/>
  <outline>
    <contour>
      <point x="64.333" y="526.667" type="line"/>
      <point x="64.333" y="213" type="line" smooth="yes"/>
      <point x="64.333" y="69.545"/>
      <point x="144.119" y="-7.667"/>
      <point x="292.333" y="-7.667" type="curve" smooth="yes"/>
      <point x="441.382" y="-7.667"/>
      <point x="521.333" y="69.348"/>
      <point x="521.333" y="213" type="curve" smooth="yes"/>
      <point x="521.333" y="526.667" type="line"/>
      <point x="421" y="526.667" type="line"/>
      <point x="421" y="221" type="line" smooth="yes"/>
      <point x="421" y="125.981"/>
      <point x="380.489" y="82"/>
      <point x="293" y="82" type="curve" smooth="yes"/>
      <point x="207.178" y="82"/>
      <point x="164.667" y="128.02"/>
      <point x="164.667" y="221" type="curve" smooth="yes"/>
      <point x="164.667" y="526.667" type="line"/>
    </contour>
  </outline>
</glyph>
<glyph name="v" format="2">
  <advance width="534"/>
  <unicode hex="0076"/>
  <anchor x="267.333" y="591.333" name="top"/>
  <anchor x="267.333" y="-86" name="bottom"/>
  <outline>
    <contour>
      <point x="221" y="0" type="line"/>
      <point x="312.667" y="0" type="line"/>
      <point x="522.333" y="526.667" type="line"/>
      <point x="414.667" y="526.667" type="line"/>
      <point x="267.333" y="129.667" type="line"/>
      <point x="119.333" y="526.667" type="line"/>
      <point x="11.667" y="526.667" type="line"/>
    </contour>
  </outline>
</glyph>
<glyph name="w" format="2">
  <advance width="841"/>
  <unicode hex="0077"/>
  <anchor x="420.333" y="591.333" name="top"/>
  <anchor x="422" y="-86" name="bottom"/>
  <anchor x="420.333" y="581.333" name="t.ring"/>
  <outline>
    <contour>
      <point x="193" y="0" type="line"/>
      <point x="285.667" y="0" type="line"/>
      <point x="420.333" y="386" type="line"/>
      <point x="554.667" y="0" type="line"/>
      <point x="647.667" y="0" type="line"/>
      <point x="829.667" y="526.667" type="line"/>
      <point x="722.333" y="526.667" type="line"/>
      <point x="598.667" y="132.667" type="line"/>
      <point x="460" y="526.667" type="line"/>
      <point x="381" y="526.667" type="line"/>
      <point x="243.667" y="132.667" type="line"/>
      <point x="118.333" y="526.667" type="line"/>
      <point x="11.667" y="526.667" type="line"/>
    </contour>
  </outline>
</glyph>
<glyph name="x" format="2">
  <advance width="508"/>
  <unicode hex="0078"/>
  <anchor x="252.333" y="591.333" name="top"/>
  <anchor x="236" y="-86" name="bottom"/>
  <outline>
    <contour>
      <point x="11.667" y="0" type="line"/>
      <point x="120" y="0" type="line"/>
      <point x="252.333" y="195.333" type="line"/>
      <point x="388.333" y="0" type="line"/>
      <point x="496.333" y="0" type="line"/>
      <point x="306" y="273.333" type="line"/>
      <point x="485" y="526.667" type="line"/>
      <point x="377" y="526.667" type="line"/>
      <point x="255" y="347.667" type="line"/>
      <point x="130.333" y="526.667" type="line"/>
      <point x="21.667" y="526.667" type="line"/>
      <point x="200" y="270" type="line"/>
    </contour>
  </outline>
</glyph>
<glyph name="y" format="2">
  <advance width="534"/>
  <unicode hex="0079"/>
  <anchor x="263.333" y="591.333" name="top"/>
  <anchor x="411" y="-110.333" name="dot"/>
  <anchor x="263.333" y="581.333" name="t.ring"/>
  <outline>
    <contour>
      <point x="81.667" y="-157.333" type="line"/>
      <point x="122.667" y="-157.333" type="line" smooth="yes"/>
      <point x="213.628" y="-157.333"/>
      <point x="267.202" y="-124.223"/>
      <point x="296.333" y="-50" type="curve" smooth="yes"/>
      <point x="522.667" y="526.667" type="line"/>
      <point x="418" y="526.667" type="line"/>
      <point x="273" y="133.333" type="line"/>
      <point x="119.333" y="526.667" type="line"/>
      <point x="11.667" y="526.667" type="line"/>
      <point x="225.333" y="3.667" type="line"/>
      <point x="220.333" y="-10.667" type="line" smooth="yes"/>
      <point x="205.58" y="-53.137"/>
      <point x="181.858" y="-66.667"/>
      <point x="124.667" y="-66.667" type="curve" smooth="yes"/>
      <point x="81.667" y="-66.667" type="line"/>
    </contour>
  </outline>
</glyph>
<glyph name="z" format="2">
  <advance width="512"/>
  <unicode hex="007A"/>
  <anchor x="250.333" y="591.333" name="top"/>
  <anchor x="251.333" y="-86" name="bottom"/>
  <outline>
    <contour>
      <point x="51" y="0" type="line"/>
      <point x="461.667" y="0" type="line"/>
      <point x="461.667" y="86.667" type="line"/>
      <point x="167" y="86.667" type="line"/>
      <point x="461.667" y="439.333" type="line"/>
      <point x="461.667" y="526.667" type="line"/>
      <point x="51" y="526.667" type="line"/>
      <point x="51" y="439.333" type="line"/>
      <point x="344.333" y="439.333" type="line"/>
      <point x="51" y="86.667" type="line"/>
    </contour>
  </outline>
</glyph>
<glyph name="braceleft" format="2">
  <advance width="382"/>
  <unicode hex="007B"/>
  <outline>
    <contour>
      <point x="337.333" y="-86" type="line"/>
      <point x="337.333" y="-2" type="line"/>
      <point x="289.667" y="-2" type="line" smooth="yes"/>
      <point x="249.875" y="-2"/>
      <point x="234.333" y="12.567"/>
      <point x="234.333" y="49.667" type="curve" smooth="yes"/>
      <point x="234.333" y="212" type="line" smooth="yes"/>
      <point x="234.333" y="287.759"/>
      <point x="217.16" y="320.165"/>
      <point x="167.667" y="338" type="curve"/>
      <point x="217.002" y="355.778"/>
      <point x="234.333" y="388.657"/>
      <point x="234.333" y="464.667" type="curve" smooth="yes"/>
      <point x="234.333" y="622.333" type="line" smooth="yes"/>
      <point x="234.333" y="658.867"/>
      <point x="250.155" y="673.667"/>
      <point x="289.667" y="673.667" type="curve" smooth="yes"/>
      <point x="337.333" y="673.667" type="line"/>
      <point x="337.333" y="758" type="line"/>
      <point x="260.333" y="758" type="line" smooth="yes"/>
      <point x="177.222" y="758"/>
      <point x="135.667" y="717.333"/>
      <point x="135.667" y="636" type="curve" smooth="yes"/>
      <point x="135.667" y="464.667" type="line" smooth="yes"/>
      <point x="135.667" y="405.024"/>
      <point x="111.914" y="382.667"/>
      <point x="45" y="382.667" type="curve"/>
      <point x="45" y="294" type="line"/>
      <point x="112.137" y="294"/>
      <point x="135.667" y="271.672"/>
      <point x="135.667" y="211.333" type="curve" smooth="yes"/>
      <point x="135.667" y="36.333" type="line" smooth="yes"/>
      <point x="135.667" y="-45.222"/>
      <point x="177.222" y="-86"/>
      <point x="260.333" y="-86" type="curve" smooth="yes"/>
    </contour>
  </outline>
</glyph>
<glyph name="bar" format="2">
  <advance width="298"/>
  <unicode hex="007C"/>
  <outline>
    <contour>
      <point x="101.667" y="-85.333" type="line"/>
      <point x="197" y="-85.333" type="line"/>
      <point x="197" y="758" type="line"/>
      <point x="101.667" y="758" type="line"/>
    </contour>
  </outline>
</glyph>
<glyph name="asciitilde" format="2">
  <advance width="528"/>
  <unicode hex="007E"/>
  <outline>
    <contour>
      <point x="110" y="210.333" type="line"/>
      <point x="134.218" y="254.304"/>
      <point x="152.165" y="268.667"/>
      <point x="183" y="268.667" type="curve" smooth="yes"/>
      <point x="236.698" y="268.667"/>
      <point x="272.313" y="208"/>
      <point x="346.333" y="208" type="curve" smooth="yes"/>
      <point x="404.928" y="208"/>
      <point x="454.087" y="244.872"/>
      <point x="485" y="312" type="curve"/>
      <point x="418.333" y="353.333" type="line"/>
      <point x="394.624" y="309.466"/>
      <point x="375.661" y="294.333"/>
      <point x="344.333" y="294.333" type="curve" smooth="yes"/>
      <point x="293.24" y="294.333"/>
      <point x="250.732" y="354"/>
      <point x="180" y="354" type="curve" smooth="yes"/>
      <point x="121.848" y="354"/>
      <point x="74.021" y="318.127"/>
      <point x="42.667" y="251" type="curve"/>
    </contour>
  </outline>
</glyph>
<glyph name="exclamdown" format="2">
  <advance width="247"/>
  <unicode hex="00A1"/>
  <outline>
    <contour>
      <point x="67" y="410" type="line"/>
      <point x="182" y="410" type="line"/>
      <point x="182" y="526.667" type="line"/>
      <point x="67" y="526.667" type="line"/>
    </contour>
    <contour>
      <point x="65.667" y="-158" type="line"/>
      <point x="182.667" y="-158" type="line"/>
      <point x="163" y="307.667" type="line"/>
      <point x="86" y="307.667" type="line"/>
    </contour>
  </outline>
</glyph>
<glyph name="cent" format="2">
  <advance width="568"/>
  <unicode hex="00A2"/>
  <outline>
    <contour>
      <point x="259.333" y="-102" type="line"/>
      <point x="326" y="-102" type="line"/>
      <point x="326" y="-7.667" type="line"/>
      <point x="446.613" y="2.539"/>
      <point x="517" y="72.189"/>
      <point x="517" y="181.333" type="curve" smooth="yes"/>
      <point x="517" y="185.333" type="line"/>
      <point x="419" y="185.333" type="line"/>
      <point x="419" y="181.333" type="line" smooth="yes"/>
      <point x="419" y="117.514"/>
      <point x="372.256" y="79.595"/>
      <point x="293.618" y="79.595" type="curve" smooth="yes"/>
      <point x="198.528" y="79.595"/>
      <point x="151" y="132.532"/>
      <point x="151" y="238.333" type="curve" smooth="yes"/>
      <point x="151" y="290.333" type="line" smooth="yes"/>
      <point x="151" y="394.966"/>
      <point x="198.689" y="448.079"/>
      <point x="292.662" y="448.079" type="curve" smooth="yes"/>
      <point x="372.371" y="448.079"/>
      <point x="419.333" y="409.382"/>
      <point x="419.333" y="343.667" type="curve" smooth="yes"/>
      <point x="419.333" y="339" type="line"/>
      <point x="517.333" y="339" type="line"/>
      <point x="517.333" y="344.333" type="line" smooth="yes"/>
      <point x="517.333" y="455.106"/>
      <point x="446.743" y="525.821"/>
      <point x="326" y="536" type="curve"/>
      <point x="326" y="628.333" type="line"/>
      <point x="259.333" y="628.333" type="line"/>
      <point x="259.333" y="536.333" type="line"/>
      <point x="124.993" y="522.625"/>
      <point x="51" y="435.964"/>
      <point x="51" y="292.333" type="curve" smooth="yes"/>
      <point x="51" y="236.667" type="line" smooth="yes"/>
      <point x="51" y="91.679"/>
      <point x="125.441" y="4.255"/>
      <point x="259.333" y="-8" type="curve"/>
    </contour>
  </outline>
</glyph>
<glyph name="sterling" format="2">
  <advance width="519"/>
  <unicode hex="00A3"/>
  <outline>
    <contour>
      <point x="53" y="0" type="line"/>
      <point x="490.667" y="0" type="line"/>
      <point x="490.667" y="94.667" type="line"/>
      <point x="175.667" y="94.667" type="line"/>
      <point x="200.925" y="119.925"/>
      <point x="212.667" y="153.259"/>
      <point x="212.667" y="199.667" type="curve" smooth="yes"/>
      <point x="212.667" y="290.333" type="line"/>
      <point x="384" y="290.333" type="line"/>
      <point x="384" y="383.667" type="line"/>
      <point x="212.667" y="383.667" type="line"/>
      <point x="212.667" y="527" type="line" smooth="yes"/>
      <point x="212.667" y="591.45"/>
      <point x="242.45" y="624.333"/>
      <point x="300.667" y="624.333" type="curve" smooth="yes"/>
      <point x="359.331" y="624.333"/>
      <point x="387.667" y="598.222"/>
      <point x="387.667" y="544" type="curve"/>
      <point x="488.667" y="544" type="line"/>
      <point x="488.667" y="654.379"/>
      <point x="420.557" y="717"/>
      <point x="300.667" y="717" type="curve" smooth="yes"/>
      <point x="175.582" y="717"/>
      <point x="106" y="644.511"/>
      <point x="106" y="514" type="curve" smooth="yes"/>
      <point x="106" y="383.667" type="line"/>
      <point x="31" y="383.667" type="line"/>
      <point x="31" y="290.333" type="line"/>
      <point x="106" y="290.333" type="line"/>
      <point x="106" y="188.667" type="line" smooth="yes"/>
      <point x="106" y="133.858"/>
      <point x="91.123" y="106.068"/>
      <point x="53" y="89.667" type="curve"/>
    </contour>
  </outline>
</glyph>
<glyph name="currency" format="2">
  <advance width="616"/>
  <unicode hex="00A4"/>
  <outline>
    <contour>
      <point x="126.667" y="86.333" type="line"/>
      <point x="196.333" y="155" type="line"/>
      <point x="229.222" y="133.667"/>
      <point x="266.222" y="123"/>
      <point x="307.333" y="123" type="curve" smooth="yes"/>
      <point x="349.113" y="123"/>
      <point x="386.444" y="133.444"/>
      <point x="419.333" y="155" type="curve"/>
      <point x="489.667" y="85.333" type="line"/>
      <point x="552" y="148.333" type="line"/>
      <point x="482" y="218" type="line"/>
      <point x="503.111" y="251.333"/>
      <point x="513.667" y="288.222"/>
      <point x="513.667" y="328.667" type="curve" smooth="yes"/>
      <point x="513.667" y="368.444"/>
      <point x="502.778" y="405.111"/>
      <point x="481" y="438.667" type="curve"/>
      <point x="551" y="509" type="line"/>
      <point x="489" y="571" type="line"/>
      <point x="418.333" y="502.667" type="line"/>
      <point x="385" y="523.333"/>
      <point x="348" y="533.667"/>
      <point x="307.333" y="533.667" type="curve" smooth="yes"/>
      <point x="267.109" y="533.667"/>
      <point x="230.222" y="523.556"/>
      <point x="196.667" y="502.667" type="curve"/>
      <point x="126.667" y="571" type="line"/>
      <point x="64.333" y="509" type="line"/>
      <point x="134" y="438" type="line"/>
      <point x="112.667" y="406.222"/>
      <point x="102" y="369.778"/>
      <point x="102" y="328.667" type="curve" smooth="yes"/>
      <point x="102" y="287.778"/>
      <point x="112.333" y="251"/>
      <point x="133" y="218.333" type="curve"/>
      <point x="64.333" y="149.333" type="line"/>
    </contour>
    <contour>
      <point x="307.333" y="206.333" type="curve" smooth="yes"/>
      <point x="239.438" y="206.333"/>
      <point x="188.667" y="258.675"/>
      <point x="188.667" y="328.667" type="curve" smooth="yes"/>
      <point x="188.667" y="398.466"/>
      <point x="239.255" y="450.333"/>
      <point x="307.333" y="450.333" type="curve" smooth="yes"/>
      <point x="376.69" y="450.333"/>
      <point x="426.667" y="399.382"/>
      <point x="426.667" y="328.667" type="curve" smooth="yes"/>
      <point x="426.667" y="257.204"/>
      <point x="377.045" y="206.333"/>
    </contour>
  </outline>
</glyph>
<glyph name="yen" format="2">
  <advance width="553"/>
  <unicode hex="00A5"/>
  <outline>
    <contour>
      <point x="59.667" y="137.333" type="line"/>
      <point x="223.667" y="137.333" type="line"/>
      <point x="223.667" y="0" type="line"/>
      <point x="330" y="0" type="line"/>
      <point x="330" y="137.333" type="line"/>
      <point x="494.667" y="137.333" type="line"/>
      <point x="494.667" y="212.667" type="line"/>
      <point x="330" y="212.667" type="line"/>
      <point x="330" y="274" type="line"/>
      <point x="494.667" y="274" type="line"/>
      <point x="494.667" y="349.333" type="line"/>
      <point x="352.333" y="349.333" type="line"/>
      <point x="545.333" y="707" type="line"/>
      <point x="428.333" y="707" type="line"/>
      <point x="278.333" y="399.667" type="line"/>
      <point x="125.667" y="707" type="line"/>
      <point x="8.333" y="707" type="line"/>
      <point x="202.333" y="349.333" type="line"/>
      <point x="59.667" y="349.333" type="line"/>
      <point x="59.667" y="274" type="line"/>
      <point x="223.667" y="274" type="line"/>
      <point x="223.667" y="212.667" type="line"/>
      <point x="59.667" y="212.667" type="line"/>
    </contour>
  </outline>
</glyph>
<glyph name="brokenbar" format="2">
  <advance width="298"/>
  <unicode hex="00A6"/>
  <outline>
    <contour>
      <point x="101.667" y="387" type="line"/>
      <point x="197" y="387" type="line"/>
      <point x="197" y="747.333" type="line"/>
      <point x="101.667" y="747.333" type="line"/>
    </contour>
    <contour>
      <point x="101.667" y="-75.333" type="line"/>
      <point x="197" y="-75.333" type="line"/>
      <point x="197" y="286.667" type="line"/>
      <point x="101.667" y="286.667" type="line"/>
    </contour>
  </outline>
</glyph>
<glyph name="section" format="2">
  <advance width="572"/>
  <unicode hex="00A7"/>
  <outline>
    <contour>
      <point x="85" y="0.667" type="line"/>
      <point x="85" y="-110.094"/>
      <point x="156.235" y="-172"/>
      <point x="283.667" y="-172" type="curve" smooth="yes"/>
      <point x="406.351" y="-172"/>
      <point x="482.667" y="-110.14"/>
      <point x="482.667" y="-10.667" type="curve" smooth="yes"/>
      <point x="482.667" y="55.068"/>
      <point x="455.324" y="97.377"/>
      <point x="396" y="123.667" type="curve"/>
      <point x="464.718" y="148.142"/>
      <point x="503.667" y="207.125"/>
      <point x="503.667" y="286.667" type="curve" smooth="yes"/>
      <point x="503.667" y="386.564"/>
      <point x="447.915" y="442.736"/>
      <point x="338.667" y="471.667" type="curve" smooth="yes"/>
      <point x="244.044" y="496.718"/>
      <point x="194" y="525.307"/>
      <point x="194" y="571.667" type="curve" smooth="yes"/>
      <point x="194" y="619.3"/>
      <point x="227.972" y="645.667"/>
      <point x="289.333" y="645.667" type="curve" smooth="yes"/>
      <point x="354.698" y="645.667"/>
      <point x="388" y="617.889"/>
      <point x="388" y="563.333" type="curve"/>
      <point x="482.333" y="563.333" type="line"/>
      <point x="482.333" y="670.361"/>
      <point x="412.399" y="731.667"/>
      <point x="290.333" y="731.667" type="curve" smooth="yes"/>
      <point x="171.707" y="731.667"/>
      <point x="94.667" y="668.815"/>
      <point x="94.667" y="572" type="curve" smooth="yes"/>
      <point x="94.667" y="509.126"/>
      <point x="121.924" y="466.622"/>
      <point x="178.333" y="441.667" type="curve"/>
      <point x="107.646" y="415.086"/>
      <point x="69.333" y="358.025"/>
      <point x="69.333" y="279.333" type="curve" smooth="yes"/>
      <point x="69.333" y="180.351"/>
      <point x="119.629" y="123.665"/>
      <point x="236" y="92.667" type="curve" smooth="yes"/>
      <point x="334.2" y="66.507"/>
      <point x="383.667" y="38.781"/>
      <point x="383.667" y="-9.667" type="curve" smooth="yes"/>
      <point x="383.667" y="-59.581"/>
      <point x="349.153" y="-86"/>
      <point x="284" y="-86" type="curve" smooth="yes"/>
      <point x="214.836" y="-86"/>
      <point x="179.667" y="-56.801"/>
      <point x="179.667" y="0.667" type="curve"/>
    </contour>
    <contour>
      <point x="169" y="282.333" type="curve" smooth="yes"/>
      <point x="169" y="349.9"/>
      <point x="210.454" y="386.333"/>
      <point x="287.333" y="386.333" type="curve" smooth="yes"/>
      <point x="363.003" y="386.333"/>
      <point x="404" y="349.786"/>
      <point x="404" y="282.333" type="curve" smooth="yes"/>
      <point x="404" y="215.209"/>
      <point x="362.632" y="178.333"/>
      <point x="287.333" y="178.333" type="curve" smooth="yes"/>
      <point x="210.269" y="178.333"/>
      <point x="169" y="214.594"/>
    </contour>
  </outline>
</glyph>
<glyph name="dieresis" format="2">
  <advance width="512"/>
  <unicode hex="00A8"/>
  <outline>
    <contour>
      <point x="96" y="591" type="line"/>
      <point x="190.667" y="591" type="line"/>
      <point x="190.667" y="695.333" type="line"/>
      <point x="96" y="695.333" type="line"/>
    </contour>
    <contour>
      <point x="321.333" y="591" type="line"/>
      <point x="415.333" y="591" type="line"/>
      <point x="415.333" y="695.333" type="line"/>
      <point x="321.333" y="695.333" type="line"/>
    </contour>
  </outline>
</glyph>
<glyph name="copyright" format="2">
  <advance width="815"/>
  <unicode hex="00A9"/>
  <outline>
    <contour>
      <point x="411" y="-9" type="curve" smooth="yes"/>
      <point x="620.667" y="-9"/>
      <point x="760.333" y="134.667"/>
      <point x="760.333" y="349.333" type="curve" smooth="yes"/>
      <point x="760.333" y="564.333"/>
      <point x="620" y="708.667"/>
      <point x="411" y="708.667" type="curve" smooth="yes"/>
      <point x="201.667" y="708.667"/>
      <point x="60" y="564"/>
      <point x="60" y="349.333" type="curve" smooth="yes"/>
      <point x="60" y="135"/>
      <point x="201" y="-9"/>
    </contour>
    <contour>
      <point x="411" y="57.333" type="curve" smooth="yes"/>
      <point x="240.667" y="57.333"/>
      <point x="131.667" y="171.333"/>
      <point x="131.667" y="349.333" type="curve" smooth="yes"/>
      <point x="131.667" y="527.667"/>
      <point x="240.333" y="641.333"/>
      <point x="411" y="641.333" type="curve" smooth="yes"/>
      <point x="580.667" y="641.333"/>
      <point x="688.667" y="528"/>
      <point x="688.667" y="349.333" type="curve" smooth="yes"/>
      <point x="688.667" y="170.667"/>
      <point x="581" y="57.333"/>
    </contour>
    <contour>
      <point x="501.667" y="291" type="line"/>
      <point x="501.667" y="287.333" type="line" smooth="yes"/>
      <point x="501.667" y="243"/>
      <point x="470" y="217.333"/>
      <point x="416" y="217.333" type="curve" smooth="yes"/>
      <point x="348.667" y="217.333"/>
      <point x="315" y="255"/>
      <point x="315" y="330.667" type="curve" smooth="yes"/>
      <point x="315" y="370.667" type="line" smooth="yes"/>
      <point x="315" y="445"/>
      <point x="348.333" y="482.333"/>
      <point x="414.667" y="482.333" type="curve" smooth="yes"/>
      <point x="469.667" y="482.333"/>
      <point x="501.667" y="456.667"/>
      <point x="501.667" y="412.667" type="curve" smooth="yes"/>
      <point x="501.667" y="409.333" type="line"/>
      <point x="576.667" y="409.333" type="line"/>
      <point x="576.667" y="414" type="line" smooth="yes"/>
      <point x="576.667" y="497.667"/>
      <point x="514.333" y="549.667"/>
      <point x="413" y="549.667" type="curve" smooth="yes"/>
      <point x="303.333" y="549.667"/>
      <point x="239.333" y="484"/>
      <point x="239.333" y="372.333" type="curve" smooth="yes"/>
      <point x="239.333" y="329.333" type="line" smooth="yes"/>
      <point x="239.333" y="216.667"/>
      <point x="302.667" y="152"/>
      <point x="413" y="152" type="curve" smooth="yes"/>
      <point x="513.333" y="152"/>
      <point x="576" y="204.333"/>
      <point x="576" y="287.333" type="curve" smooth="yes"/>
      <point x="576" y="291" type="line"/>
    </contour>
  </outline>
</glyph>
<glyph name="ordfeminine" format="2">
  <advance width="389"/>
  <unicode hex="00AA"/>
  <outline>
    <contour>
      <point x="261" y="440" type="line"/>
      <point x="337" y="440" type="line"/>
      <point x="337" y="644.333" type="line" smooth="yes"/>
      <point x="337" y="725.333"/>
      <point x="288.667" y="766"/>
      <point x="191" y="766" type="curve" smooth="yes"/>
      <point x="103" y="766"/>
      <point x="51.667" y="730.333"/>
      <point x="51.667" y="668.667" type="curve" smooth="yes"/>
      <point x="51.667" y="665.667" type="line"/>
      <point x="125" y="665.667" type="line"/>
      <point x="125" y="668.667" type="line" smooth="yes"/>
      <point x="125" y="692"/>
      <point x="148.333" y="706"/>
      <point x="188" y="706" type="curve" smooth="yes"/>
      <point x="235.667" y="706"/>
      <point x="258" y="688"/>
      <point x="258" y="649" type="curve" smooth="yes"/>
      <point x="258" y="631.333" type="line"/>
      <point x="170.333" y="631.333" type="line" smooth="yes"/>
      <point x="85.667" y="631.333"/>
      <point x="41.667" y="598.667"/>
      <point x="41.667" y="536.667" type="curve" smooth="yes"/>
      <point x="41.667" y="473"/>
      <point x="85.667" y="436"/>
      <point x="161.667" y="436" type="curve" smooth="yes"/>
      <point x="203.667" y="436"/>
      <point x="235.667" y="448"/>
      <point x="261" y="473" type="curve"/>
    </contour>
    <contour>
      <point x="258" y="578" type="line"/>
      <point x="258" y="565" type="line" smooth="yes"/>
      <point x="258" y="521"/>
      <point x="232.667" y="500"/>
      <point x="179" y="500" type="curve" smooth="yes"/>
      <point x="139" y="500"/>
      <point x="118.333" y="513.667"/>
      <point x="118.333" y="539.667" type="curve" smooth="yes"/>
      <point x="118.333" y="566"/>
      <point x="138.333" y="578"/>
      <point x="180.667" y="578" type="curve" smooth="yes"/>
    </contour>
  </outline>
</glyph>
<glyph name="guillemotleft" format="2">
  <advance width="575"/>
  <unicode hex="00AB"/>
  <outline>
    <contour>
      <point x="22" y="270" type="line"/>
      <point x="268" y="52.667" type="line"/>
      <point x="268" y="158" type="line"/>
      <point x="138.333" y="270" type="line"/>
      <point x="268" y="383" type="line"/>
      <point x="268" y="487.667" type="line"/>
    </contour>
    <contour>
      <point x="265.333" y="270" type="line"/>
      <point x="511.667" y="52.667" type="line"/>
      <point x="511.667" y="158" type="line"/>
      <point x="381" y="270" type="line"/>
      <point x="511.667" y="383" type="line"/>
      <point x="511.667" y="487.667" type="line"/>
    </contour>
  </outline>
</glyph>
<glyph name="registered" format="2">
  <advance width="523"/>
  <unicode hex="00AE"/>
  <outline>
    <contour>
      <point x="261" y="314.333" type="curve" smooth="yes"/>
      <point x="371.571" y="314.333"/>
      <point x="454" y="398.471"/>
      <point x="454" y="511.333" type="curve" smooth="yes"/>
      <point x="454" y="622.36"/>
      <point x="370.327" y="707.333"/>
      <point x="261" y="707.333" type="curve" smooth="yes"/>
      <point x="152.568" y="707.333"/>
      <point x="69.333" y="622.219"/>
      <point x="69.333" y="511.333" type="curve" smooth="yes"/>
      <point x="69.333" y="398.567"/>
      <point x="151.291" y="314.333"/>
    </contour>
    <contour>
      <point x="261" y="351.333" type="curve" smooth="yes"/>
      <point x="170.785" y="351.333"/>
      <point x="109" y="416.368"/>
      <point x="109" y="511.333" type="curve" smooth="yes"/>
      <point x="109" y="606.025"/>
      <point x="170.48" y="670.333"/>
      <point x="261" y="670.333" type="curve" smooth="yes"/>
      <point x="351.376" y="670.333"/>
      <point x="414.667" y="604.847"/>
      <point x="414.667" y="511.333" type="curve" smooth="yes"/>
      <point x="414.667" y="416.394"/>
      <point x="352.182" y="351.333"/>
    </contour>
    <contour>
      <point x="186.667" y="402.667" type="line"/>
      <point x="231.667" y="402.667" type="line"/>
      <point x="231.667" y="488" type="line"/>
      <point x="263.667" y="488" type="line"/>
      <point x="303.667" y="402.667" type="line"/>
      <point x="352" y="402.667" type="line"/>
      <point x="309" y="495" type="line"/>
      <point x="334.333" y="506.111"/>
      <point x="347" y="526.222"/>
      <point x="347" y="555.333" type="curve" smooth="yes"/>
      <point x="347" y="598.221"/>
      <point x="320.25" y="622"/>
      <point x="272" y="622" type="curve" smooth="yes"/>
      <point x="186.667" y="622" type="line"/>
    </contour>
    <contour>
      <point x="231.667" y="527" type="line"/>
      <point x="231.667" y="582.333" type="line"/>
      <point x="269.667" y="582.333" type="line" smooth="yes"/>
      <point x="291.222" y="582.333"/>
      <point x="302" y="573.222"/>
      <point x="302" y="555" type="curve" smooth="yes"/>
      <point x="302" y="536.333"/>
      <point x="291.222" y="527"/>
      <point x="269.667" y="527" type="curve" smooth="yes"/>
    </contour>
  </outline>
</glyph>
<glyph name="degree" format="2">
  <advance width="408"/>
  <unicode hex="00B0"/>
  <outline>
    <contour>
      <point x="60" y="571" type="curve" smooth="yes"/>
      <point x="60" y="487.05"/>
      <point x="122.475" y="425"/>
      <point x="207" y="425" type="curve" smooth="yes"/>
      <point x="288.549" y="425"/>
      <point x="352.333" y="489.077"/>
      <point x="352.333" y="571" type="curve" smooth="yes"/>
      <point x="352.333" y="653.867"/>
      <point x="289.301" y="717.333"/>
      <point x="207" y="717.333" type="curve" smooth="yes"/>
      <point x="123.015" y="717.333"/>
      <point x="60" y="654.602"/>
    </contour>
    <contour>
      <point x="207" y="489.333" type="curve" smooth="yes"/>
      <point x="160.25" y="489.333"/>
      <point x="127.333" y="523.075"/>
      <point x="127.333" y="571" type="curve" smooth="yes"/>
      <point x="127.333" y="619.666"/>
      <point x="160.102" y="653.667"/>
      <point x="207" y="653.667" type="curve" smooth="yes"/>
      <point x="252.824" y="653.667"/>
      <point x="286" y="618.951"/>
      <point x="286" y="571" type="curve" smooth="yes"/>
      <point x="286" y="524.199"/>
      <point x="252.273" y="489.333"/>
    </contour>
  </outline>
</glyph>
<glyph name="plusminus" format="2">
  <advance width="528"/>
  <unicode hex="00B1"/>
  <outline>
    <contour>
      <point x="217" y="122.667" type="line"/>
      <point x="311.333" y="122.667" type="line"/>
      <point x="311.333" y="287.333" type="line"/>
      <point x="475.667" y="287.333" type="line"/>
      <point x="475.667" y="381.333" type="line"/>
      <point x="311.333" y="381.333" type="line"/>
      <point x="311.333" y="546" type="line"/>
      <point x="217" y="546" type="line"/>
      <point x="217" y="381.333" type="line"/>
      <point x="52.333" y="381.333" type="line"/>
      <point x="52.333" y="287.333" type="line"/>
      <point x="217" y="287.333" type="line"/>
    </contour>
    <contour>
      <point x="52.333" y="-19.667" type="line"/>
      <point x="475.667" y="-19.667" type="line"/>
      <point x="475.667" y="74.667" type="line"/>
      <point x="52.333" y="74.667" type="line"/>
    </contour>
  </outline>
</glyph>
<glyph name="twosuperior" format="2">
  <advance width="359"/>
  <unicode hex="00B2"/>
  <outline>
    <contour>
      <point x="33.201" y="440" type="line"/>
      <point x="322.868" y="440" type="line"/>
      <point x="322.868" y="516.333" type="line"/>
      <point x="156.868" y="516.333" type="line"/>
      <point x="256.868" y="622.667" type="line" smooth="yes"/>
      <point x="301.224" y="669.673"/>
      <point x="321.535" y="699.111"/>
      <point x="321.535" y="745" type="curve" smooth="yes"/>
      <point x="321.535" y="754" type="line" smooth="yes"/>
      <point x="321.535" y="828.773"/>
      <point x="266.249" y="875"/>
      <point x="176.868" y="875" type="curve" smooth="yes"/>
      <point x="84.415" y="875"/>
      <point x="29.201" y="829.135"/>
      <point x="29.201" y="752.333" type="curve" smooth="yes"/>
      <point x="29.201" y="742.333" type="line"/>
      <point x="114.201" y="742.333" type="line"/>
      <point x="114.201" y="750" type="line" smooth="yes"/>
      <point x="114.201" y="783.711"/>
      <point x="135.194" y="802"/>
      <point x="173.868" y="802" type="curve" smooth="yes"/>
      <point x="212.73" y="802"/>
      <point x="232.535" y="784.444"/>
      <point x="232.535" y="750" type="curve" smooth="yes"/>
      <point x="232.535" y="743.333" type="line" smooth="yes"/>
      <point x="232.535" y="721.449"/>
      <point x="221.342" y="702.667"/>
      <point x="194.535" y="675" type="curve" smooth="yes"/>
      <point x="33.201" y="508.667" type="line"/>
    </contour>
  </outline>
</glyph>
<glyph name="threesuperior" format="2">
  <advance width="354"/>
  <unicode hex="00B3"/>
  <outline>
    <contour>
      <point x="26.617" y="553" type="line"/>
      <point x="26.617" y="545" type="line" smooth="yes"/>
      <point x="26.617" y="469.583"/>
      <point x="79.073" y="426.667"/>
      <point x="171.284" y="426.667" type="curve" smooth="yes"/>
      <point x="262.018" y="426.667"/>
      <point x="319.284" y="475.17"/>
      <point x="319.284" y="552" type="curve" smooth="yes"/>
      <point x="319.284" y="560.667" type="line" smooth="yes"/>
      <point x="319.284" y="611.448"/>
      <point x="296.165" y="646.113"/>
      <point x="252.617" y="660.667" type="curve"/>
      <point x="291.492" y="677.454"/>
      <point x="311.951" y="707.429"/>
      <point x="311.951" y="747.667" type="curve" smooth="yes"/>
      <point x="311.951" y="755.333" type="line" smooth="yes"/>
      <point x="311.951" y="825.511"/>
      <point x="258.783" y="868"/>
      <point x="170.951" y="868" type="curve" smooth="yes"/>
      <point x="80.613" y="868"/>
      <point x="28.617" y="824.532"/>
      <point x="28.617" y="749" type="curve" smooth="yes"/>
      <point x="28.617" y="742" type="line"/>
      <point x="107.284" y="742" type="line"/>
      <point x="107.284" y="749.333" type="line" smooth="yes"/>
      <point x="107.284" y="779.603"/>
      <point x="128.356" y="796"/>
      <point x="167.284" y="796" type="curve" smooth="yes"/>
      <point x="207.062" y="796"/>
      <point x="226.951" y="779.778"/>
      <point x="226.951" y="747.333" type="curve" smooth="yes"/>
      <point x="226.951" y="740" type="line"/>
      <point x="226.729" y="706.667"/>
      <point x="205.173" y="690"/>
      <point x="162.284" y="690" type="curve" smooth="yes"/>
      <point x="138.617" y="690" type="line"/>
      <point x="138.617" y="617" type="line"/>
      <point x="162.617" y="617" type="line" smooth="yes"/>
      <point x="210.886" y="617"/>
      <point x="233.951" y="598.368"/>
      <point x="233.951" y="559.333" type="curve" smooth="yes"/>
      <point x="233.951" y="551.667" type="line" smooth="yes"/>
      <point x="233.951" y="516.667"/>
      <point x="212.214" y="498.667"/>
      <point x="169.951" y="498.667" type="curve" smooth="yes"/>
      <point x="127.062" y="498.667"/>
      <point x="105.617" y="514.778"/>
      <point x="105.617" y="547" type="curve" smooth="yes"/>
      <point x="105.617" y="553" type="line"/>
    </contour>
  </outline>
</glyph>
<glyph name="acute" format="2">
  <advance width="512"/>
  <unicode hex="00B4"/>
  <outline>
    <contour>
      <point x="152" y="591.333" type="line"/>
      <point x="242.667" y="591.333" type="line"/>
      <point x="381.667" y="724" type="line"/>
      <point x="263" y="724" type="line"/>
    </contour>
  </outline>
</glyph>
<glyph name="mu" format="2">
  <advance width="584"/>
  <unicode hex="00B5"/>
  <outline>
    <contour>
      <point x="64.333" y="-158" type="line"/>
      <point x="164.667" y="-158" type="line"/>
      <point x="164.667" y="27.333" type="line"/>
      <point x="190.889" y="5.111"/>
      <point x="227.444" y="-6"/>
      <point x="274.333" y="-6" type="curve" smooth="yes"/>
      <point x="338.947" y="-6"/>
      <point x="390.588" y="18.513"/>
      <point x="422.333" y="64.333" type="curve"/>
      <point x="422.333" y="0" type="line"/>
      <point x="520.667" y="0" type="line"/>
      <point x="520.667" y="526.667" type="line"/>
      <point x="419.667" y="526.667" type="line"/>
      <point x="419.667" y="224.333" type="line" smooth="yes"/>
      <point x="419.667" y="134.766"/>
      <point x="371.49" y="82.667"/>
      <point x="288.667" y="82.667" type="curve" smooth="yes"/>
      <point x="208.667" y="82.667"/>
      <point x="164.667" y="128.281"/>
      <point x="164.667" y="211.333" type="curve" smooth="yes"/>
      <point x="164.667" y="526.667" type="line"/>
      <point x="64.333" y="526.667" type="line"/>
    </contour>
  </outline>
</glyph>
<glyph name="paragraph" format="2">
  <advance width="703"/>
  <unicode hex="00B6"/>
  <outline>
    <contour>
      <point x="325.667" y="-158" type="line"/>
      <point x="418" y="-158" type="line"/>
      <point x="418" y="620.667" type="line"/>
      <point x="507.333" y="620.667" type="line"/>
      <point x="507.333" y="-158" type="line"/>
      <point x="599.333" y="-158" type="line"/>
      <point x="599.333" y="707" type="line"/>
      <point x="312.667" y="707" type="line" smooth="yes"/>
      <point x="159.21" y="707"/>
      <point x="69.333" y="626.603"/>
      <point x="69.333" y="489.333" type="curve" smooth="yes"/>
      <point x="69.333" y="352.064"/>
      <point x="163.008" y="273"/>
      <point x="325.667" y="273" type="curve"/>
    </contour>
  </outline>
</glyph>
<glyph name="periodcentered" format="2">
  <advance width="208"/>
  <unicode hex="00B7"/>
  <anchor x="104.667" y="279.333" name="_dot"/>
  <outline>
    <contour>
      <point x="45.667" y="220.333" type="line"/>
      <point x="163" y="220.333" type="line"/>
      <point x="163" y="342" type="line"/>
      <point x="45.667" y="342" type="line"/>
    </contour>
  </outline>
</glyph>
<glyph name="cedilla" format="2">
  <advance width="512"/>
  <unicode hex="00B8"/>
  <outline>
    <contour>
      <point x="159.333" y="-157.333" type="line"/>
      <point x="258.667" y="-157.333" type="line"/>
      <point x="331.667" y="12.333" type="line"/>
      <point x="247.333" y="12.333" type="line"/>
    </contour>
  </outline>
</glyph>
<glyph name="ordmasculine" format="2">
  <advance width="390"/>
  <unicode hex="00BA"/>
  <outline>
    <contour>
      <point x="44.333" y="585" type="line" smooth="yes"/>
      <point x="44.333" y="489.085"/>
      <point x="98.129" y="436"/>
      <point x="195.333" y="436" type="curve" smooth="yes"/>
      <point x="290.983" y="436"/>
      <point x="346" y="490.405"/>
      <point x="346" y="585" type="curve" smooth="yes"/>
      <point x="346" y="620" type="line" smooth="yes"/>
      <point x="346" y="712.531"/>
      <point x="290.825" y="766"/>
      <point x="195.333" y="766" type="curve" smooth="yes"/>
      <point x="99.046" y="766"/>
      <point x="44.333" y="713.098"/>
      <point x="44.333" y="620" type="curve" smooth="yes"/>
    </contour>
    <contour>
      <point x="195.333" y="507.333" type="curve" smooth="yes"/>
      <point x="148.425" y="507.333"/>
      <point x="123.333" y="534.521"/>
      <point x="123.333" y="585.333" type="curve" smooth="yes"/>
      <point x="123.333" y="620" type="line" smooth="yes"/>
      <point x="123.333" y="668.199"/>
      <point x="148.867" y="694.667"/>
      <point x="195.333" y="694.667" type="curve" smooth="yes"/>
      <point x="241.444" y="694.667"/>
      <point x="266.333" y="668.502"/>
      <point x="266.333" y="620" type="curve" smooth="yes"/>
      <point x="266.333" y="585.333" type="line" smooth="yes"/>
      <point x="266.333" y="534.939"/>
      <point x="241.21" y="507.333"/>
    </contour>
  </outline>
</glyph>
<glyph name="guillemotright" format="2">
  <advance width="575"/>
  <unicode hex="00BB"/>
  <outline>
    <contour>
      <point x="64.333" y="52.667" type="line"/>
      <point x="310.667" y="270" type="line"/>
      <point x="64.333" y="487.667" type="line"/>
      <point x="64.333" y="383" type="line"/>
      <point x="194.333" y="270" type="line"/>
      <point x="64.333" y="158" type="line"/>
    </contour>
    <contour>
      <point x="307.333" y="52.667" type="line"/>
      <point x="554.667" y="270" type="line"/>
      <point x="307.333" y="487.667" type="line"/>
      <point x="307.333" y="383" type="line"/>
      <point x="437" y="270" type="line"/>
      <point x="307.333" y="158" type="line"/>
    </contour>
  </outline>
</glyph>
<glyph name="onequarter" format="2">
  <advance width="830"/>
  <unicode hex="00BC"/>
  <outline>
    <contour>
      <point x="120" y="0" type="line"/>
      <point x="204.333" y="0" type="line"/>
      <point x="616" y="710" type="line"/>
      <point x="530.667" y="710" type="line"/>
    </contour>
    <contour>
      <point x="100.54" y="279.881" type="line"/>
      <point x="188.874" y="279.881" type="line"/>
      <point x="188.874" y="707.548" type="line"/>
      <point x="100.54" y="707.548" type="line"/>
      <point x="12.207" y="655.214" type="line"/>
      <point x="12.207" y="563.881" type="line"/>
      <point x="100.54" y="616.548" type="line"/>
    </contour>
    <contour>
      <point x="467.934" y="67.333" type="line"/>
      <point x="670.6" y="67.333" type="line"/>
      <point x="670.6" y="-3.333" type="line"/>
      <point x="752.267" y="-3.333" type="line"/>
      <point x="752.267" y="67.333" type="line"/>
      <point x="788.267" y="67.333" type="line"/>
      <point x="788.267" y="138" type="line"/>
      <point x="752.267" y="138" type="line"/>
      <point x="752.267" y="235.333" type="line"/>
      <point x="670.6" y="235.333" type="line"/>
      <point x="670.6" y="138" type="line"/>
      <point x="550.267" y="138" type="line"/>
      <point x="668.267" y="424.333" type="line"/>
      <point x="586.934" y="424.333" type="line"/>
      <point x="467.934" y="138" type="line"/>
    </contour>
  </outline>
</glyph>
<glyph name="onehalf" format="2">
  <advance width="830"/>
  <unicode hex="00BD"/>
  <outline>
    <contour>
      <point x="112" y="0" type="line"/>
      <point x="196.333" y="0" type="line"/>
      <point x="608" y="710" type="line"/>
      <point x="522.667" y="710" type="line"/>
    </contour>
    <contour>
      <point x="100.54" y="279.881" type="line"/>
      <point x="188.874" y="279.881" type="line"/>
      <point x="188.874" y="707.548" type="line"/>
      <point x="100.54" y="707.548" type="line"/>
      <point x="12.207" y="655.214" type="line"/>
      <point x="12.207" y="563.881" type="line"/>
      <point x="100.54" y="616.548" type="line"/>
    </contour>
    <contour>
      <point x="504.201" y="0" type="line"/>
      <point x="793.868" y="0" type="line"/>
      <point x="793.868" y="76.333" type="line"/>
      <point x="627.868" y="76.333" type="line"/>
      <point x="727.868" y="182.667" type="line" smooth="yes"/>
      <point x="772.224" y="229.673"/>
      <point x="792.535" y="259.111"/>
      <point x="792.535" y="305" type="curve" smooth="yes"/>
      <point x="792.535" y="314" type="line" smooth="yes"/>
      <point x="792.535" y="388.773"/>
      <point x="737.249" y="435"/>
      <point x="647.868" y="435" type="curve" smooth="yes"/>
      <point x="555.415" y="435"/>
      <point x="500.201" y="389.135"/>
      <point x="500.201" y="312.333" type="curve" smooth="yes"/>
      <point x="500.201" y="302.333" type="line"/>
      <point x="585.201" y="302.333" type="line"/>
      <point x="585.201" y="310" type="line" smooth="yes"/>
      <point x="585.201" y="343.711"/>
      <point x="606.194" y="362"/>
      <point x="644.868" y="362" type="curve" smooth="yes"/>
      <point x="683.73" y="362"/>
      <point x="703.535" y="344.444"/>
      <point x="703.535" y="310" type="curve" smooth="yes"/>
      <point x="703.535" y="303.333" type="line" smooth="yes"/>
      <point x="703.535" y="281.449"/>
      <point x="692.342" y="262.667"/>
      <point x="665.535" y="235" type="curve" smooth="yes"/>
      <point x="504.201" y="68.667" type="line"/>
    </contour>
  </outline>
</glyph>
<glyph name="questiondown" format="2">
  <advance width="501"/>
  <unicode hex="00BF"/>
  <outline>
    <contour>
      <point x="202" y="412.333" type="line"/>
      <point x="315.333" y="412.333" type="line"/>
      <point x="315.333" y="526.667" type="line"/>
      <point x="202" y="526.667" type="line"/>
    </contour>
    <contour>
      <point x="368.667" y="25" type="line"/>
      <point x="368.213" y="-42.054"/>
      <point x="331.778" y="-75"/>
      <point x="258" y="-75" type="curve" smooth="yes"/>
      <point x="184.987" y="-75"/>
      <point x="145.333" y="-43.904"/>
      <point x="145.333" y="13.333" type="curve" smooth="yes"/>
      <point x="145.333" y="52.538"/>
      <point x="158.747" y="78.725"/>
      <point x="197" y="114" type="curve" smooth="yes"/>
      <point x="252" y="164.667" type="line" smooth="yes"/>
      <point x="297.517" y="206.673"/>
      <point x="310.333" y="237.01"/>
      <point x="310.333" y="302.667" type="curve" smooth="yes"/>
      <point x="310.333" y="336.333" type="line"/>
      <point x="208" y="336.333" type="line"/>
      <point x="208" y="310.333" type="line" smooth="yes"/>
      <point x="208" y="265.498"/>
      <point x="199.49" y="245.695"/>
      <point x="167.333" y="215.667" type="curve" smooth="yes"/>
      <point x="105.333" y="157.667" type="line" smooth="yes"/>
      <point x="60.696" y="115.965"/>
      <point x="40.333" y="69.087"/>
      <point x="40.333" y="8" type="curve" smooth="yes"/>
      <point x="40.333" y="-101.282"/>
      <point x="122.091" y="-168"/>
      <point x="256" y="-168" type="curve" smooth="yes"/>
      <point x="392.298" y="-168"/>
      <point x="466.664" y="-100.692"/>
      <point x="469.333" y="25" type="curve"/>
    </contour>
  </outline>
</glyph>
<glyph name="AE" format="2">
  <advance width="1022"/>
  <unicode hex="00C6"/>
  <anchor x="558" y="765.333" name="top"/>
  <outline>
    <contour>
      <point x="5.333" y="0" type="line"/>
      <point x="124.667" y="0" type="line"/>
      <point x="217.667" y="158" type="line"/>
      <point x="489.333" y="158" type="line"/>
      <point x="489.333" y="0" type="line"/>
      <point x="981" y="0" type="line"/>
      <point x="981" y="94.333" type="line"/>
      <point x="596.333" y="94.333" type="line"/>
      <point x="596.333" y="310.667" type="line"/>
      <point x="926.333" y="310.667" type="line"/>
      <point x="926.333" y="405" type="line"/>
      <point x="596.333" y="405" type="line"/>
      <point x="596.333" y="612.667" type="line"/>
      <point x="981" y="612.667" type="line"/>
      <point x="981" y="707" type="line"/>
      <point x="431.667" y="707" type="line"/>
    </contour>
    <contour>
      <point x="270.333" y="248" type="line"/>
      <point x="489.333" y="617.333" type="line"/>
      <point x="489.333" y="248" type="line"/>
    </contour>
  </outline>
</glyph>
<glyph name="multiply" format="2">
  <advance width="528"/>
  <unicode hex="00D7"/>
  <outline>
    <contour>
      <point x="141.333" y="96.667" type="line"/>
      <point x="264.333" y="219.667" type="line"/>
      <point x="387" y="96.667" type="line"/>
      <point x="449.667" y="160.333" type="line"/>
      <point x="327" y="283.667" type="line"/>
      <point x="449.667" y="406" type="line"/>
      <point x="387" y="469" type="line"/>
      <point x="264.333" y="346.333" type="line"/>
      <point x="141.333" y="469" type="line"/>
      <point x="79" y="406.667" type="line"/>
      <point x="201.667" y="283.667" type="line"/>
      <point x="79" y="160.333" type="line"/>
    </contour>
  </outline>
</glyph>
<glyph name="Thorn" format="2">
  <advance width="649"/>
  <unicode hex="00DE"/>
  <outline>
    <contour>
      <point x="69.333" y="0" type="line"/>
      <point x="176.333" y="0" type="line"/>
      <point x="176.333" y="157" type="line"/>
      <point x="372" y="157" type="line" smooth="yes"/>
      <point x="531.727" y="157"/>
      <point x="620" y="232.673"/>
      <point x="620" y="369.667" type="curve" smooth="yes"/>
      <point x="620" y="508.155"/>
      <point x="532.461" y="584.667"/>
      <point x="374" y="584.667" type="curve" smooth="yes"/>
      <point x="176.333" y="584.667" type="line"/>
      <point x="176.333" y="707" type="line"/>
      <point x="69.333" y="707" type="line"/>
    </contour>
    <contour>
      <point x="176.333" y="251" type="line"/>
      <point x="176.333" y="490.333" type="line"/>
      <point x="373.667" y="490.333" type="line" smooth="yes"/>
      <point x="469.992" y="490.333"/>
      <point x="513.333" y="452.704"/>
      <point x="513.333" y="369.333" type="curve" smooth="yes"/>
      <point x="513.333" y="289.098"/>
      <point x="469.717" y="251.222"/>
      <point x="377" y="251" type="curve"/>
    </contour>
  </outline>
</glyph>
<glyph name="germandbls" format="2">
  <advance width="579"/>
  <unicode hex="00DF"/>
  <outline>
    <contour>
      <point x="64.333" y="0" type="line"/>
      <point x="164.667" y="0" type="line"/>
      <point x="164.667" y="513" type="line" smooth="yes"/>
      <point x="164.667" y="594.737"/>
      <point x="202.696" y="627.333"/>
      <point x="298" y="627.333" type="curve" smooth="yes"/>
      <point x="381.299" y="627.333"/>
      <point x="419" y="602.52"/>
      <point x="419" y="547.667" type="curve" smooth="yes"/>
      <point x="419" y="494.661"/>
      <point x="387.106" y="470.667"/>
      <point x="316.667" y="470.667" type="curve" smooth="yes"/>
      <point x="284" y="470.667" type="line"/>
      <point x="284" y="384.333" type="line"/>
      <point x="309.333" y="384.333" type="line" smooth="yes"/>
      <point x="400.615" y="384.333"/>
      <point x="428.333" y="348.849"/>
      <point x="428.333" y="232" type="curve" smooth="yes"/>
      <point x="428.333" y="114.111"/>
      <point x="405.037" y="82.667"/>
      <point x="317.667" y="82.667" type="curve" smooth="yes"/>
      <point x="284.667" y="82.667" type="line"/>
      <point x="284.667" y="-4" type="line"/>
      <point x="325" y="-4" type="line" smooth="yes"/>
      <point x="476.327" y="-4"/>
      <point x="528.333" y="56.86"/>
      <point x="528.333" y="234" type="curve" smooth="yes"/>
      <point x="528.333" y="350.881"/>
      <point x="505.339" y="405.549"/>
      <point x="445.333" y="431.333" type="curve"/>
      <point x="495.932" y="455.508"/>
      <point x="519" y="493.3"/>
      <point x="519" y="552" type="curve" smooth="yes"/>
      <point x="519" y="657.324"/>
      <point x="439.393" y="715.667"/>
      <point x="295.667" y="715.667" type="curve" smooth="yes"/>
      <point x="138.181" y="715.667"/>
      <point x="64.333" y="647.879"/>
      <point x="64.333" y="503.333" type="curve" smooth="yes"/>
    </contour>
  </outline>
</glyph>
<glyph name="ae" format="2">
  <advance width="922"/>
  <unicode hex="00E6"/>
  <anchor x="458" y="591.333" name="top"/>
  <outline>
    <contour>
      <point x="58" y="371" type="line"/>
      <point x="155" y="371" type="line"/>
      <point x="155" y="374" type="line" smooth="yes"/>
      <point x="155" y="424.684"/>
      <point x="195.986" y="453"/>
      <point x="269.333" y="453" type="curve" smooth="yes"/>
      <point x="356.222" y="453"/>
      <point x="399.667" y="416"/>
      <point x="399.667" y="342" type="curve" smooth="yes"/>
      <point x="399.667" y="308.667" type="line"/>
      <point x="243.667" y="308.667" type="line" smooth="yes"/>
      <point x="111.322" y="308.667"/>
      <point x="41.333" y="255.742"/>
      <point x="41.333" y="155.667" type="curve" smooth="yes"/>
      <point x="41.333" y="52.823"/>
      <point x="119.101" y="-7.667"/>
      <point x="251.333" y="-7.667" type="curve" smooth="yes"/>
      <point x="343.112" y="-7.667"/>
      <point x="409.889" y="19.222"/>
      <point x="451.667" y="73.667" type="curve"/>
      <point x="495" y="18.556"/>
      <point x="560.556" y="-9"/>
      <point x="648.333" y="-9" type="curve" smooth="yes"/>
      <point x="775.702" y="-9"/>
      <point x="867.667" y="60.373"/>
      <point x="867.667" y="163.667" type="curve" smooth="yes"/>
      <point x="867.667" y="168.333" type="line"/>
      <point x="769.333" y="168.333" type="line"/>
      <point x="769.333" y="165.333" type="line" smooth="yes"/>
      <point x="769.333" y="111.198"/>
      <point x="718.951" y="78.333"/>
      <point x="648.333" y="78.333" type="curve" smooth="yes"/>
      <point x="549.597" y="78.333"/>
      <point x="499.67" y="129.965"/>
      <point x="499.67" y="233.235" type="curve" smooth="yes"/>
      <point x="499.67" y="237" type="line"/>
      <point x="871.333" y="237" type="line"/>
      <point x="871.333" y="297.667" type="line" smooth="yes"/>
      <point x="871.333" y="450.25"/>
      <point x="785.708" y="537.333"/>
      <point x="635.667" y="537.333" type="curve" smooth="yes"/>
      <point x="560.49" y="537.333"/>
      <point x="499.755" y="512.691"/>
      <point x="458" y="466" type="curve"/>
      <point x="418.444" y="511.111"/>
      <point x="355.667" y="533.667"/>
      <point x="269.667" y="533.667" type="curve" smooth="yes"/>
      <point x="138.569" y="533.667"/>
      <point x="58" y="472.899"/>
      <point x="58" y="374" type="curve" smooth="yes"/>
    </contour>
    <contour>
      <point x="499.667" y="309.333" type="line"/>
      <point x="504.493" y="402.569"/>
      <point x="550.354" y="449.667"/>
      <point x="636.333" y="449.667" type="curve" smooth="yes"/>
      <point x="724.641" y="449.667"/>
      <point x="771.333" y="404.108"/>
      <point x="771.333" y="317.667" type="curve" smooth="yes"/>
      <point x="771.333" y="309.333" type="line"/>
    </contour>
    <contour>
      <point x="399.667" y="237" type="line"/>
      <point x="399.667" y="199.333" type="line" smooth="yes"/>
      <point x="399.667" y="116.936"/>
      <point x="352.679" y="75"/>
      <point x="260.333" y="75" type="curve" smooth="yes"/>
      <point x="180.438" y="75"/>
      <point x="139.667" y="102.929"/>
      <point x="139.667" y="157.667" type="curve" smooth="yes"/>
      <point x="139.667" y="212.319"/>
      <point x="177.282" y="237"/>
      <point x="260.667" y="237" type="curve" smooth="yes"/>
    </contour>
  </outline>
</glyph>
<glyph name="eth" format="2">
  <advance width="566"/>
  <unicode hex="00F0"/>
  <outline>
    <contour>
      <point x="136.333" y="525" type="line"/>
      <point x="259.333" y="558.667" type="line"/>
      <point x="333.333" y="467.667" type="line"/>
      <point x="313.333" y="476.333"/>
      <point x="289" y="480.667"/>
      <point x="260.333" y="480.667" type="curve" smooth="yes"/>
      <point x="131.199" y="480.667"/>
      <point x="51" y="393.159"/>
      <point x="51" y="252.333" type="curve" smooth="yes"/>
      <point x="51" y="223" type="line" smooth="yes"/>
      <point x="51" y="76.283"/>
      <point x="137.418" y="-11"/>
      <point x="282.667" y="-11" type="curve" smooth="yes"/>
      <point x="428.652" y="-11"/>
      <point x="515" y="77.311"/>
      <point x="515" y="226.667" type="curve" smooth="yes"/>
      <point x="515" y="255.333" type="line" smooth="yes"/>
      <point x="515" y="344.679"/>
      <point x="486.797" y="418.653"/>
      <point x="416" y="505.333" type="curve" smooth="yes"/>
      <point x="352.333" y="583.667" type="line"/>
      <point x="446.333" y="608.667" type="line"/>
      <point x="426.667" y="677.333" type="line"/>
      <point x="302.667" y="644" type="line"/>
      <point x="249.667" y="710" type="line"/>
      <point x="136.333" y="710" type="line"/>
      <point x="209.667" y="619.333" type="line"/>
      <point x="116.667" y="594.667" type="line"/>
    </contour>
    <contour>
      <point x="283.667" y="78.333" type="curve" smooth="yes"/>
      <point x="194.713" y="78.333"/>
      <point x="147" y="129.512"/>
      <point x="147" y="225" type="curve" smooth="yes"/>
      <point x="147" y="253.667" type="line" smooth="yes"/>
      <point x="147" y="346.182"/>
      <point x="195.289" y="396.667"/>
      <point x="283.667" y="396.667" type="curve" smooth="yes"/>
      <point x="370.394" y="396.667"/>
      <point x="418.333" y="345.489"/>
      <point x="418.333" y="252.667" type="curve" smooth="yes"/>
      <point x="418.333" y="225" type="line" smooth="yes"/>
      <point x="418.333" y="129.268"/>
      <point x="371.529" y="78.333"/>
    </contour>
  </outline>
</glyph>
<glyph name="divide" format="2">
  <advance width="528"/>
  <unicode hex="00F7"/>
  <outline>
    <contour>
      <point x="263.333" y="382.333" type="curve" smooth="yes"/>
      <point x="297.556" y="382.333"/>
      <point x="323" y="407.778"/>
      <point x="323" y="442" type="curve" smooth="yes"/>
      <point x="323" y="475.268"/>
      <point x="297.17" y="500.667"/>
      <point x="263.333" y="500.667" type="curve" smooth="yes"/>
      <point x="230.761" y="500.667"/>
      <point x="205" y="474.76"/>
      <point x="205" y="442" type="curve" smooth="yes"/>
      <point x="205" y="408.752"/>
      <point x="230.83" y="382.333"/>
    </contour>
    <contour>
      <point x="52.333" y="236" type="line"/>
      <point x="475.667" y="236" type="line"/>
      <point x="475.667" y="329.667" type="line"/>
      <point x="52.333" y="329.667" type="line"/>
    </contour>
    <contour>
      <point x="263.333" y="66" type="curve" smooth="yes"/>
      <point x="297.523" y="66"/>
      <point x="323" y="91.194"/>
      <point x="323" y="125" type="curve" smooth="yes"/>
      <point x="323" y="158.907"/>
      <point x="297.425" y="184.333"/>
      <point x="263.333" y="184.333" type="curve" smooth="yes"/>
      <point x="230.511" y="184.333"/>
      <point x="205" y="158.385"/>
      <point x="205" y="125" type="curve" smooth="yes"/>
      <point x="205" y="92.388"/>
      <point x="231.096" y="66"/>
    </contour>
  </outline>
</glyph>
<glyph name="oslash" format="2">
  <advance width="582"/>
  <unicode hex="00F8"/>
  <anchor x="292" y="591.333" name="top"/>
  <outline>
    <component base="o"/>
    <contour>
      <point x="56.333" y="-30.667" type="line"/>
      <point x="124.333" y="-30.667" type="line"/>
      <point x="526" y="553.667" type="line"/>
      <point x="459.333" y="553.667" type="line"/>
    </contour>
  </outline>
</glyph>
<glyph name="dcaron" format="2">
  <advance width="688"/>
  <unicode hex="010F"/>
  <outline>
    <component base="d"/>
    <contour>
      <point x="586" y="519.667" type="line"/>
      <point x="674.667" y="596" type="line"/>
      <point x="674.667" y="707" type="line"/>
      <point x="586" y="707" type="line"/>
    </contour>
  </outline>
</glyph>
<glyph name="Dcroat" format="2">
  <advance width="731"/>
  <unicode hex="0110"/>
  <outline>
    <component base="D" xScale="1" xOffset="45.667"/>
    <contour>
      <point x="32.667" y="406.333" type="line"/>
      <point x="32.667" y="311.667" type="line"/>
      <point x="391.333" y="311.667" type="line"/>
      <point x="391.333" y="406.333" type="line"/>
    </contour>
  </outline>
</glyph>
<glyph name="dcroat" format="2">
  <advance width="590"/>
  <unicode hex="0111"/>
  <outline>
    <component base="d"/>
    <contour>
      <point x="276" y="581" type="line"/>
      <point x="593.333" y="581" type="line"/>
      <point x="593.333" y="644.667" type="line"/>
      <point x="276" y="644.667" type="line"/>
    </contour>
  </outline>
</glyph>
<glyph name="gcommaaccent" format="2">
  <advance width="590"/>
  <unicode hex="0123"/>
  <outline>
    <component base="g"/>
    <contour>
      <point x="248" y="564" type="line"/>
      <point x="336" y="564" type="line"/>
      <point x="336" y="707" type="line"/>
      <point x="248" y="630.667" type="line"/>
    </contour>
  </outline>
</glyph>
<glyph name="Hbar" format="2">
  <advance width="696"/>
  <unicode hex="0126"/>
  <outline>
    <contour>
      <point x="34.333" y="513.667" type="line"/>
      <point x="664" y="513.667" type="line"/>
      <point x="664" y="608.333" type="line"/>
      <point x="34.333" y="608.333" type="line"/>
    </contour>
    <contour>
      <point x="155.973" y="312.333" type="line"/>
      <point x="542.027" y="312.333" type="line"/>
      <point x="542.027" y="406" type="line"/>
      <point x="155.973" y="406" type="line"/>
    </contour>
    <contour>
      <point x="521.667" y="0" type="line"/>
      <point x="627.667" y="0" type="line"/>
      <point x="627.667" y="707" type="line"/>
      <point x="521.667" y="707" type="line"/>
    </contour>
    <contour>
      <point x="69.333" y="0" type="line"/>
      <point x="176.333" y="0" type="line"/>
      <point x="176.333" y="707" type="line"/>
      <point x="69.333" y="707" type="line"/>
    </contour>
  </outline>
</glyph>
<glyph name="hbar" format="2">
  <advance width="585"/>
  <unicode hex="0127"/>
  <outline>
    <component base="h"/>
    <contour>
      <point x="22" y="590.333" type="line"/>
      <point x="345" y="590.333" type="line"/>
      <point x="345" y="655" type="line"/>
      <point x="22" y="655" type="line"/>
    </contour>
  </outline>
</glyph>
<glyph name="IJ" format="2">
  <advance width="703"/>
  <unicode hex="0132"/>
  <outline>
    <contour>
      <point x="80.667" y="168.333" type="line"/>
      <point x="111.926" y="58.056"/>
      <point x="211.129" y="-6"/>
      <point x="351" y="-6" type="curve" smooth="yes"/>
      <point x="527.568" y="-6"/>
      <point x="634" y="91.509"/>
      <point x="634" y="253.333" type="curve" smooth="yes"/>
      <point x="634" y="707" type="line"/>
      <point x="527.333" y="707" type="line"/>
      <point x="527.333" y="258.667" type="line" smooth="yes"/>
      <point x="527.333" y="145.685"/>
      <point x="466.821" y="87.667"/>
      <point x="351" y="87.667" type="curve" smooth="yes"/>
      <point x="272.016" y="87.667"/>
      <point x="218.454" y="115.164"/>
      <point x="193.667" y="168.333" type="curve"/>
    </contour>
    <contour>
      <point x="69.333" y="329.333" type="line"/>
      <point x="176.333" y="329.333" type="line"/>
      <point x="176.333" y="707" type="line"/>
      <point x="69.333" y="707" type="line"/>
    </contour>
  </outline>
</glyph>
<glyph name="ij" format="2">
  <advance width="534"/>
  <unicode hex="0133"/>
  <outline>
    <contour>
      <point x="71.333" y="610" type="line"/>
      <point x="171.333" y="610" type="line"/>
      <point x="171.333" y="707.333" type="line"/>
      <point x="71.333" y="707.333" type="line"/>
    </contour>
    <contour>
      <point x="371" y="610" type="line"/>
      <point x="470.333" y="610" type="line"/>
      <point x="470.333" y="707.333" type="line"/>
      <point x="371" y="707.333" type="line"/>
    </contour>
    <contour>
      <point x="67.667" y="-14.333" type="line"/>
      <point x="73.753" y="-106.947"/>
      <point x="156.626" y="-165.333"/>
      <point x="258" y="-165.333" type="curve" smooth="yes"/>
      <point x="382.238" y="-165.333"/>
      <point x="470.333" y="-78.43"/>
      <point x="470.333" y="46.333" type="curve" smooth="yes"/>
      <point x="470.333" y="526.333" type="line"/>
      <point x="371" y="526.333" type="line"/>
      <point x="371" y="255.667" type="line" smooth="yes"/>
      <point x="371" y="171.095"/>
      <point x="328.919" y="119.667"/>
      <point x="260" y="119.667" type="curve" smooth="yes"/>
      <point x="201.003" y="119.667"/>
      <point x="171.333" y="167.622"/>
      <point x="171.333" y="262.667" type="curve" smooth="yes"/>
      <point x="171.333" y="526.333" type="line"/>
      <point x="71" y="526.333" type="line"/>
      <point x="71" y="257.667" type="line" smooth="yes"/>
      <point x="71" y="115.095"/>
      <point x="142.601" y="30"/>
      <point x="265" y="30" type="curve" smooth="yes"/>
      <point x="303.807" y="30"/>
      <point x="354.051" y="53.511"/>
      <point x="371.333" y="88" type="curve"/>
      <point x="371.333" y="39.667" type="line" smooth="yes"/>
      <point x="371.333" y="-37.439"/>
      <point x="334.546" y="-82.667"/>
      <point x="260.667" y="-82.667" type="curve" smooth="yes"/>
      <point x="212.444" y="-82.667"/>
      <point x="175.199" y="-54.609"/>
      <point x="165" y="-14.333" type="curve"/>
    </contour>
  </outline>
</glyph>
<glyph name="kgreenlandic" format="2">
  <advance width="577"/>
  <unicode hex="0138"/>
  <anchor x="249.333" y="765.333" name="top"/>
  <anchor x="267" y="-86" name="bottom"/>
  <outline>
    <contour>
      <point x="64.333" y="0" type="line"/>
      <point x="164.667" y="0" type="line"/>
      <point x="164.667" y="526.667" type="line"/>
      <point x="64.333" y="500" type="line"/>
    </contour>
    <contour>
      <point x="153.837" y="147.541" type="line"/>
      <point x="537.667" y="526.667" type="line"/>
      <point x="410.667" y="526.667" type="line"/>
      <point x="153.837" y="264.011" type="line"/>
    </contour>
    <contour>
      <point x="439.333" y="0" type="line"/>
      <point x="561.667" y="0" type="line"/>
      <point x="323.465" y="336.875" type="line"/>
      <point x="253.945" y="268.309" type="line"/>
    </contour>
  </outline>
</glyph>
<glyph name="Lcaron" format="2">
  <advance width="589"/>
  <unicode hex="013D"/>
  <outline>
    <component base="L"/>
    <contour>
      <point x="276" y="519.667" type="line"/>
      <point x="364.667" y="596" type="line"/>
      <point x="364.667" y="707" type="line"/>
      <point x="276" y="707" type="line"/>
    </contour>
  </outline>
</glyph>
<glyph name="lcaron" format="2">
  <advance width="336"/>
  <unicode hex="013E"/>
  <outline>
    <component base="l"/>
    <contour>
      <point x="232" y="519.667" type="line"/>
      <point x="320.667" y="596" type="line"/>
      <point x="320.667" y="707" type="line"/>
      <point x="232" y="707" type="line"/>
    </contour>
  </outline>
</glyph>
<glyph name="Lslash" format="2">
  <advance width="589"/>
  <unicode hex="0141"/>
  <outline>
    <component base="L"/>
    <contour>
      <point x="21.333" y="289.667" type="line"/>
      <point x="393.667" y="451.333" type="line"/>
      <point x="393.667" y="556.333" type="line"/>
      <point x="22.333" y="394.667" type="line"/>
    </contour>
  </outline>
</glyph>
<glyph name="lslash" format="2">
  <advance width="313"/>
  <unicode hex="0142"/>
  <outline>
    <component base="l"/>
    <contour>
      <point x="1.833" y="279" type="line"/>
      <point x="246" y="412" type="line"/>
      <point x="246" y="523.667" type="line"/>
      <point x="1.833" y="390.667" type="line"/>
    </contour>
  </outline>
</glyph>
<glyph name="Eng" format="2">
  <advance width="730"/>
  <unicode hex="014A"/>
  <outline>
    <contour>
      <point x="69.333" y="0" type="line"/>
      <point x="176.333" y="0" type="line"/>
      <point x="176.333" y="520.667" type="line"/>
      <point x="554.333" y="0" type="line"/>
      <point x="554.343" y="-10.165" type="line" smooth="yes"/>
      <point x="554.382" y="-71.242"/>
      <point x="537.727" y="-84.333"/>
      <point x="481" y="-84.333" type="curve" smooth="yes"/>
      <point x="435" y="-84.333" type="line"/>
      <point x="435" y="-173" type="line"/>
      <point x="496.667" y="-173" type="line" smooth="yes"/>
      <point x="608.726" y="-173"/>
      <point x="662.333" y="-120.369"/>
      <point x="662.333" y="-10.333" type="curve"/>
      <point x="661.667" y="707" type="line"/>
      <point x="554.333" y="707" type="line"/>
      <point x="554.333" y="185.333" type="line"/>
      <point x="176.333" y="707" type="line"/>
      <point x="69.333" y="707" type="line"/>
    </contour>
  </outline>
</glyph>
<glyph name="eng" format="2">
  <advance width="585"/>
  <unicode hex="014B"/>
  <outline>
    <contour>
      <point x="64.333" y="0" type="line"/>
      <point x="164.667" y="0" type="line"/>
      <point x="164.667" y="305" type="line" smooth="yes"/>
      <point x="164.667" y="392.096"/>
      <point x="215.003" y="444"/>
      <point x="299.333" y="444" type="curve" smooth="yes"/>
      <point x="379.849" y="444"/>
      <point x="421" y="400.048"/>
      <point x="421" y="314" type="curve" smooth="yes"/>
      <point x="421" y="-4.333" type="line" smooth="yes"/>
      <point x="421" y="-62.298"/>
      <point x="398.702" y="-84.333"/>
      <point x="340" y="-84.333" type="curve" smooth="yes"/>
      <point x="294" y="-84.333" type="line"/>
      <point x="294" y="-173" type="line"/>
      <point x="355.667" y="-173" type="line" smooth="yes"/>
      <point x="467.726" y="-173"/>
      <point x="521.333" y="-120.369"/>
      <point x="521.333" y="-10.333" type="curve" smooth="yes"/>
      <point x="521.333" y="330.667" type="line" smooth="yes"/>
      <point x="521.333" y="458.448"/>
      <point x="449.61" y="533"/>
      <point x="326.667" y="533" type="curve" smooth="yes"/>
      <point x="257.301" y="533"/>
      <point x="200.854" y="508.202"/>
      <point x="163" y="461" type="curve"/>
      <point x="163" y="526.667" type="line"/>
      <point x="64.333" y="526.667" type="line"/>
    </contour>
  </outline>
</glyph>
<glyph name="OE" format="2">
  <advance width="1069"/>
  <unicode hex="0152"/>
  <outline>
    <contour>
      <point x="545.333" y="0" type="line"/>
      <point x="1027.33" y="0" type="line"/>
      <point x="1027.33" y="94.333" type="line"/>
      <point x="648.333" y="94.333" type="line"/>
      <point x="648.333" y="310.667" type="line"/>
      <point x="972.667" y="310.667" type="line"/>
      <point x="972.667" y="405" type="line"/>
      <point x="648.333" y="405" type="line"/>
      <point x="648.333" y="612.667" type="line"/>
      <point x="1027.33" y="612.667" type="line"/>
      <point x="1027.33" y="707" type="line"/>
      <point x="545.333" y="707" type="line"/>
      <point x="545.333" y="656" type="line"/>
      <point x="495.556" y="697.333"/>
      <point x="431" y="718"/>
      <point x="351.667" y="718" type="curve" smooth="yes"/>
      <point x="163.013" y="718"/>
      <point x="60" y="608.267"/>
      <point x="60" y="407.333" type="curve" smooth="yes"/>
      <point x="60" y="301" type="line" smooth="yes"/>
      <point x="60" y="99.595"/>
      <point x="161.746" y="-9.667"/>
      <point x="349.333" y="-9.667" type="curve" smooth="yes"/>
      <point x="429.557" y="-9.667"/>
      <point x="494.889" y="10.667"/>
      <point x="545.333" y="52.667" type="curve"/>
    </contour>
    <contour>
      <point x="355" y="86.667" type="curve" smooth="yes"/>
      <point x="227.757" y="86.667"/>
      <point x="167.667" y="155.43"/>
      <point x="167.667" y="301" type="curve" smooth="yes"/>
      <point x="167.667" y="400.667" type="line" smooth="yes"/>
      <point x="167.667" y="551.717"/>
      <point x="227.525" y="622.667"/>
      <point x="355" y="622.667" type="curve" smooth="yes"/>
      <point x="481.682" y="622.667"/>
      <point x="542.333" y="550.735"/>
      <point x="542.333" y="400.667" type="curve" smooth="yes"/>
      <point x="542.333" y="301" type="line" smooth="yes"/>
      <point x="542.333" y="156.778"/>
      <point x="481.081" y="86.667"/>
    </contour>
  </outline>
</glyph>
<glyph name="oe" format="2">
  <advance width="954"/>
  <unicode hex="0153"/>
  <outline>
    <contour>
      <point x="531.333" y="237.667" type="line"/>
      <point x="903.667" y="237.667" type="line"/>
      <point x="903.667" y="299" type="line" smooth="yes"/>
      <point x="903.667" y="450.5"/>
      <point x="817.807" y="537.333"/>
      <point x="668" y="537.333" type="curve" smooth="yes"/>
      <point x="586.732" y="537.333"/>
      <point x="523.139" y="509.754"/>
      <point x="481.667" y="456.667" type="curve"/>
      <point x="441.18" y="509.616"/>
      <point x="376.354" y="537.333"/>
      <point x="292.667" y="537.333" type="curve" smooth="yes"/>
      <point x="138.417" y="537.333"/>
      <point x="51" y="448.709"/>
      <point x="51" y="292.333" type="curve" smooth="yes"/>
      <point x="51" y="236.667" type="line" smooth="yes"/>
      <point x="51" y="79.861"/>
      <point x="138.413" y="-9"/>
      <point x="292.667" y="-9" type="curve" smooth="yes"/>
      <point x="377.112" y="-9"/>
      <point x="441.422" y="18.108"/>
      <point x="482.667" y="71.667" type="curve"/>
      <point x="525.111" y="17.889"/>
      <point x="590.111" y="-9"/>
      <point x="677.667" y="-9" type="curve" smooth="yes"/>
      <point x="807.757" y="-9"/>
      <point x="900.333" y="59.783"/>
      <point x="900.333" y="163.667" type="curve" smooth="yes"/>
      <point x="900.333" y="168.333" type="line"/>
      <point x="801.667" y="168.333" type="line"/>
      <point x="801.667" y="165.333" type="line" smooth="yes"/>
      <point x="801.667" y="111.703"/>
      <point x="751.048" y="78.333"/>
      <point x="681.333" y="78.333" type="curve" smooth="yes"/>
      <point x="581.333" y="78.333"/>
      <point x="531.333" y="130"/>
      <point x="531.333" y="234" type="curve" smooth="yes"/>
    </contour>
    <contour>
      <point x="292" y="80" type="curve" smooth="yes"/>
      <point x="197.999" y="80"/>
      <point x="151" y="133"/>
      <point x="151" y="238.333" type="curve" smooth="yes"/>
      <point x="151" y="290.333" type="line" smooth="yes"/>
      <point x="151" y="395.222"/>
      <point x="198" y="447.667"/>
      <point x="292" y="447.667" type="curve" smooth="yes"/>
      <point x="384.828" y="447.667"/>
      <point x="431.333" y="395.152"/>
      <point x="431.333" y="290.333" type="curve" smooth="yes"/>
      <point x="431.333" y="238.333" type="line" smooth="yes"/>
      <point x="431.333" y="132.776"/>
      <point x="385.556" y="80"/>
    </contour>
    <contour>
      <point x="531.313" y="310" type="line"/>
      <point x="531.313" y="318.072" type="line" smooth="yes"/>
      <point x="531.313" y="406.092"/>
      <point x="585.633" y="449.667"/>
      <point x="668.667" y="449.667" type="curve" smooth="yes"/>
      <point x="756.21" y="449.667"/>
      <point x="803.667" y="403.656"/>
      <point x="803.667" y="318.667" type="curve" smooth="yes"/>
      <point x="803.667" y="310" type="line"/>
    </contour>
  </outline>
</glyph>
<glyph name="Rcommaaccent" format="2">
  <advance width="680"/>
  <unicode hex="0156"/>
  <outline>
    <contour>
      <point x="69.333" y="0" type="line"/>
      <point x="176.333" y="0" type="line"/>
      <point x="176.333" y="293.333" type="line"/>
      <point x="359.667" y="293.333" type="line"/>
      <point x="521" y="0" type="line"/>
      <point x="645" y="0" type="line"/>
      <point x="470" y="304.667" type="line"/>
      <point x="568.994" y="330.412"/>
      <point x="621" y="397.655"/>
      <point x="621" y="500" type="curve" smooth="yes"/>
      <point x="621" y="632.725"/>
      <point x="533.586" y="707"/>
      <point x="377.333" y="707" type="curve" smooth="yes"/>
      <point x="69.333" y="707" type="line"/>
    </contour>
    <contour>
      <point x="176.333" y="385.333" type="line"/>
      <point x="176.333" y="612.667" type="line"/>
      <point x="376" y="612.667" type="line" smooth="yes"/>
      <point x="468.559" y="612.667"/>
      <point x="514" y="575.502"/>
      <point x="514" y="500" type="curve"/>
      <point x="514.222" y="421.732"/>
      <point x="471.723" y="385.333"/>
      <point x="380" y="385.333" type="curve" smooth="yes"/>
    </contour>
    <contour>
      <point x="296" y="-173" type="line"/>
      <point x="384.667" y="-96.667" type="line"/>
      <point x="384.667" y="-30" type="line"/>
      <point x="296" y="-30" type="line"/>
    </contour>
  </outline>
</glyph>
<glyph name="rcommaaccent" format="2">
  <advance width="392"/>
  <unicode hex="0157"/>
  <outline>
    <contour>
      <point x="64.333" y="0" type="line"/>
      <point x="164.667" y="0" type="line"/>
      <point x="164.667" y="299.667" type="line" smooth="yes"/>
      <point x="164.667" y="390.453"/>
      <point x="219.147" y="446.667"/>
      <point x="307" y="446.667" type="curve"/>
      <point x="329.444" y="446.222"/>
      <point x="350.778" y="442.778"/>
      <point x="371" y="436.333" type="curve"/>
      <point x="371" y="532" type="line"/>
      <point x="358.111" y="534.222"/>
      <point x="343.222" y="535.333"/>
      <point x="326.333" y="535.333" type="curve" smooth="yes"/>
      <point x="253.85" y="535.333"/>
      <point x="197.912" y="508.858"/>
      <point x="163" y="458" type="curve"/>
      <point x="163" y="526.667" type="line"/>
      <point x="64.333" y="526.667" type="line"/>
    </contour>
    <contour>
      <point x="72" y="-173" type="line"/>
      <point x="160.667" y="-96.667" type="line"/>
      <point x="160.667" y="-30" type="line"/>
      <point x="72" y="-30" type="line"/>
    </contour>
  </outline>
</glyph>
<glyph name="tcaron" format="2">
  <advance width="398"/>
  <unicode hex="0165"/>
  <outline>
    <component base="t"/>
    <contour>
      <point x="291" y="550.667" type="line"/>
      <point x="379.667" y="627" type="line"/>
      <point x="379.667" y="738" type="line"/>
      <point x="291" y="738" type="line"/>
    </contour>
  </outline>
</glyph>
<glyph name="Tbar" format="2">
  <advance width="565"/>
  <unicode hex="0166"/>
  <outline>
    <component base="T"/>
    <contour>
      <point x="125" y="304" type="line"/>
      <point x="442.333" y="304" type="line"/>
      <point x="442.333" y="394.333" type="line"/>
      <point x="125" y="394.333" type="line"/>
    </contour>
  </outline>
</glyph>
<glyph name="tbar" format="2">
  <advance width="396"/>
  <unicode hex="0167"/>
  <outline>
    <component base="t"/>
    <contour>
      <point x="30" y="298.667" type="line"/>
      <point x="353" y="298.667" type="line"/>
      <point x="353" y="374.667" type="line"/>
      <point x="30" y="374.667" type="line"/>
    </contour>
  </outline>
</glyph>
<glyph name="longs" format="2">
  <advance width="321"/>
  <unicode hex="017F"/>
  <anchor x="142.667" y="765.333" name="top"/>
  <outline>
    <contour>
      <point x="64.333" y="0" type="line"/>
      <point x="164" y="0" type="line"/>
      <point x="164" y="453.667" type="line"/>
      <point x="289.667" y="453.667" type="line"/>
      <point x="289.667" y="526.667" type="line"/>
      <point x="164" y="526.667" type="line"/>
      <point x="164" y="562.333" type="line" smooth="yes"/>
      <point x="164" y="612.651"/>
      <point x="187.974" y="635"/>
      <point x="242" y="635" type="curve" smooth="yes"/>
      <point x="289.667" y="635" type="line"/>
      <point x="289.667" y="707" type="line"/>
      <point x="220" y="707" type="line" smooth="yes"/>
      <point x="118.502" y="707"/>
      <point x="64.333" y="655.401"/>
      <point x="64.333" y="558.667" type="curve" smooth="yes"/>
    </contour>
  </outline>
</glyph>
<glyph name="Schwa" format="2">
  <advance width="689"/>
  <unicode hex="018F"/>
  <outline>
    <contour>
      <point x="162" y="480.333" type="line"/>
      <point x="162" y="485" type="line" smooth="yes"/>
      <point x="162" y="571.037"/>
      <point x="225.603" y="621.666"/>
      <point x="334" y="621.666" type="curve" smooth="yes"/>
      <point x="463.942" y="621.666"/>
      <point x="526" y="552.381"/>
      <point x="526" y="407.333" type="curve" smooth="yes"/>
      <point x="526" y="307.666" type="line" smooth="yes"/>
      <point x="526" y="156.768"/>
      <point x="464.838" y="85.6663"/>
      <point x="335" y="85.6663" type="curve" smooth="yes"/>
      <point x="229.368" y="85.6663"/>
      <point x="162" y="156.531"/>
      <point x="162" y="257" type="curve" smooth="yes"/>
      <point x="162" y="379.362" type="line"/>
      <point x="55.3337" y="379.362" type="line"/>
      <point x="55.3337" y="261" type="line" smooth="yes"/>
      <point x="55.3337" y="94.3823"/>
      <point x="162.622" y="-9.66667"/>
      <point x="334.334" y="-9.66667" type="curve" smooth="yes"/>
      <point x="528.565" y="-9.66667"/>
      <point x="633.667" y="99.4113"/>
      <point x="633.667" y="301" type="curve" smooth="yes"/>
      <point x="633.667" y="407.333" type="line" smooth="yes"/>
      <point x="633.667" y="608.5"/>
      <point x="528.745" y="718"/>
      <point x="336" y="718" type="curve" smooth="yes"/>
      <point x="166.152" y="718"/>
      <point x="56.3337" y="626.675"/>
      <point x="56.3337" y="485.666" type="curve" smooth="yes"/>
      <point x="56.3337" y="480.333" type="line"/>
    </contour>
    <contour>
      <point x="90.5987" y="379.333" type="line"/>
      <point x="90.5987" y="285.666" type="line"/>
      <point x="588.23" y="285.666" type="line"/>
      <point x="588.23" y="379.333" type="line"/>
    </contour>
  </outline>
</glyph>
<glyph name="florin" format="2">
  <advance width="479"/>
  <unicode hex="0192"/>
  <outline>
    <contour>
      <point x="11" y="-158" type="line"/>
      <point x="65.667" y="-158" type="line" smooth="yes"/>
      <point x="180.175" y="-158"/>
      <point x="231.392" y="-109.753"/>
      <point x="250" y="15.667" type="curve" smooth="yes"/>
      <point x="297.667" y="337" type="line"/>
      <point x="438" y="337" type="line"/>
      <point x="438" y="427" type="line"/>
      <point x="311.333" y="427" type="line"/>
      <point x="327" y="529" type="line" smooth="yes"/>
      <point x="336.696" y="592.119"/>
      <point x="359.499" y="613.333"/>
      <point x="417.667" y="613.333" type="curve" smooth="yes"/>
      <point x="469" y="613.333" type="line"/>
      <point x="469" y="707" type="line"/>
      <point x="409" y="707" type="line" smooth="yes"/>
      <point x="295.887" y="707"/>
      <point x="244.293" y="658.694"/>
      <point x="225.667" y="535.333" type="curve" smooth="yes"/>
      <point x="209.333" y="427" type="line"/>
      <point x="92.667" y="427" type="line"/>
      <point x="92.667" y="337" type="line"/>
      <point x="195.667" y="337" type="line"/>
      <point x="149.667" y="23" type="line" smooth="yes"/>
      <point x="140.13" y="-42.1"/>
      <point x="117.363" y="-62.667"/>
      <point x="56.667" y="-62.667" type="curve" smooth="yes"/>
      <point x="11" y="-62.667" type="line"/>
    </contour>
  </outline>
</glyph>
<glyph name="lbar" format="2">
  <advance width="313"/>
  <unicode hex="019A"/>
  <outline>
    <component base="l"/>
    <contour>
      <point x="11" y="323.667" type="line"/>
      <point x="290" y="323.667" type="line"/>
      <point x="290" y="418.333" type="line"/>
      <point x="11" y="418.333" type="line"/>
    </contour>
  </outline>
</glyph>
<glyph name="Ocenteredtilde" format="2">
  <advance width="704"/>
  <unicode hex="019F"/>
  <outline>
    <component base="O"/>
    <contour>
      <point x="144.333" y="307" type="line"/>
      <point x="564" y="307" type="line"/>
      <point x="564" y="401.667" type="line"/>
      <point x="144.333" y="401.667" type="line"/>
    </contour>
  </outline>
</glyph>
<glyph name="kcaron" format="2">
  <advance width="577"/>
  <unicode hex="01E9"/>
  <outline>
    <contour>
      <point x="64.333" y="0" type="line"/>
      <point x="164.667" y="0" type="line"/>
      <point x="164.667" y="158.333" type="line"/>
      <point x="262.667" y="255.667" type="line"/>
      <point x="439.333" y="0" type="line"/>
      <point x="561.667" y="0" type="line"/>
      <point x="332.333" y="324.333" type="line"/>
      <point x="537.667" y="526.667" type="line"/>
      <point x="410.667" y="526.667" type="line"/>
      <point x="164.667" y="275" type="line"/>
      <point x="164.667" y="707" type="line"/>
      <point x="64.333" y="707" type="line"/>
    </contour>
    <contour>
      <point x="74.667" y="768.333" type="line"/>
      <point x="150.333" y="768.333" type="line"/>
      <point x="285.667" y="919" type="line"/>
      <point x="195.667" y="919" type="line"/>
      <point x="113" y="830.667" type="line"/>
      <point x="29.333" y="919" type="line"/>
      <point x="-60.667" y="919" type="line"/>
    </contour>
  </outline>
</glyph>
<glyph name="dotlessj" format="2">
  <advance width="250"/>
  <unicode hex="0237"/>
  <anchor x="125" y="591.333" name="top"/>
  <outline>
    <contour>
      <point x="-55" y="-157" type="line"/>
      <point x="7.333" y="-157" type="line" smooth="yes"/>
      <point x="116.89" y="-157"/>
      <point x="174.667" y="-101.441"/>
      <point x="174.667" y="4" type="curve" smooth="yes"/>
      <point x="174.667" y="524" type="line"/>
      <point x="75" y="524" type="line"/>
      <point x="75" y="11.333" type="line" smooth="yes"/>
      <point x="75" y="-45.4"/>
      <point x="53.41" y="-66.333"/>
      <point x="-2.667" y="-66.333" type="curve" smooth="yes"/>
      <point x="-55" y="-66.333" type="line"/>
    </contour>
  </outline>
</glyph>
<glyph name="Lbar" format="2">
  <advance width="589"/>
  <unicode hex="023D"/>
  <outline>
    <component base="L"/>
    <contour>
      <point x="17.667" y="341" type="line"/>
      <point x="340.667" y="341" type="line"/>
      <point x="340.667" y="435.667" type="line"/>
      <point x="17.667" y="435.667" type="line"/>
    </contour>
  </outline>
</glyph>
<glyph name="obarred" format="2">
  <advance width="582"/>
  <unicode hex="0275"/>
  <outline>
    <component base="o"/>
    <contour>
      <point x="131.667" y="218.667" type="line"/>
      <point x="454.667" y="218.667" type="line"/>
      <point x="454.667" y="313.333" type="line"/>
      <point x="131.667" y="313.333" type="line"/>
    </contour>
  </outline>
</glyph>
<glyph name="apostrophemod" format="2">
  <unicode hex="02BC"/>
  <anchor x="47.333" y="707" name="_dot"/>
  <outline>
    <contour>
      <point x="-48" y="433.333" type="line"/>
      <point x="47.333" y="516.667" type="line"/>
      <point x="47.333" y="707" type="line"/>
      <point x="-48" y="707" type="line"/>
    </contour>
  </outline>
</glyph>
<glyph name="circumflex" format="2">
  <advance width="512"/>
  <unicode hex="02C6"/>
  <outline>
    <contour>
      <point x="82.333" y="584.333" type="line"/>
      <point x="172.667" y="584.333" type="line"/>
      <point x="256" y="673" type="line"/>
      <point x="338.667" y="584.333" type="line"/>
      <point x="428.667" y="584.333" type="line"/>
      <point x="293.333" y="735" type="line"/>
      <point x="217.667" y="735" type="line"/>
    </contour>
  </outline>
</glyph>
<glyph name="caron" format="2">
  <advance width="512"/>
  <unicode hex="02C7"/>
  <outline>
    <contour>
      <point x="218" y="581.333" type="line"/>
      <point x="293.667" y="581.333" type="line"/>
      <point x="429" y="732" type="line"/>
      <point x="339" y="732" type="line"/>
      <point x="256.333" y="643.667" type="line"/>
      <point x="172.667" y="732" type="line"/>
      <point x="82.667" y="732" type="line"/>
    </contour>
  </outline>
</glyph>
<glyph name="breve" format="2">
  <advance width="512"/>
  <unicode hex="02D8"/>
  <outline>
    <contour>
      <point x="94" y="740.333" type="line"/>
      <point x="94" y="721.333" type="line" smooth="yes"/>
      <point x="94" y="628.351"/>
      <point x="150.444" y="578.333"/>
      <point x="255.333" y="578.333" type="curve" smooth="yes"/>
      <point x="360.223" y="578.333"/>
      <point x="416.667" y="628.351"/>
      <point x="416.667" y="721.333" type="curve" smooth="yes"/>
      <point x="416.667" y="740.333" type="line"/>
      <point x="333.333" y="740.333" type="line"/>
      <point x="333.333" y="721.333" type="line" smooth="yes"/>
      <point x="333.333" y="668.165"/>
      <point x="307.831" y="642.333"/>
      <point x="255.333" y="642.333" type="curve" smooth="yes"/>
      <point x="202.836" y="642.333"/>
      <point x="177.333" y="668.165"/>
      <point x="177.333" y="721.333" type="curve" smooth="yes"/>
      <point x="177.333" y="740.333" type="line"/>
    </contour>
  </outline>
</glyph>
<glyph name="ring" format="2">
  <advance width="512"/>
  <unicode hex="02DA"/>
  <outline>
    <contour>
      <point x="155.333" y="681.333" type="curve" smooth="yes"/>
      <point x="155.333" y="624.42"/>
      <point x="197.845" y="582.333"/>
      <point x="255.333" y="582.333" type="curve" smooth="yes"/>
      <point x="311.778" y="582.333"/>
      <point x="354.333" y="624.889"/>
      <point x="354.333" y="681.333" type="curve" smooth="yes"/>
      <point x="354.333" y="739.015"/>
      <point x="311.872" y="782.333"/>
      <point x="255.333" y="782.333" type="curve" smooth="yes"/>
      <point x="198.064" y="782.333"/>
      <point x="155.333" y="739.176"/>
    </contour>
    <contour>
      <point x="255.333" y="630.333" type="curve" smooth="yes"/>
      <point x="226.181" y="630.333"/>
      <point x="205" y="651.811"/>
      <point x="205" y="681.333" type="curve" smooth="yes"/>
      <point x="205" y="711.788"/>
      <point x="226.227" y="734"/>
      <point x="255.333" y="734" type="curve" smooth="yes"/>
      <point x="283.903" y="734"/>
      <point x="305.333" y="711.427"/>
      <point x="305.333" y="681.333" type="curve" smooth="yes"/>
      <point x="305.333" y="652.032"/>
      <point x="284.061" y="630.333"/>
    </contour>
  </outline>
</glyph>
<glyph name="ogonek" format="2">
  <advance width="384"/>
  <unicode hex="02DB"/>
  <outline>
    <contour>
      <point x="60" y="-56" type="line"/>
      <point x="94.82" y="-157.565"/>
      <point x="189.069" y="-217.333"/>
      <point x="324" y="-217.333" type="curve"/>
      <point x="324" y="-120.667" type="line"/>
      <point x="260.752" y="-120.667"/>
      <point x="211.755" y="-104.277"/>
      <point x="181" y="-75.333" type="curve"/>
      <point x="324" y="-0.333" type="line"/>
      <point x="324" y="16.333" type="line"/>
      <point x="239" y="16.333" type="line"/>
    </contour>
  </outline>
</glyph>
<glyph name="tilde" format="2">
  <advance width="512"/>
  <unicode hex="02DC"/>
  <outline>
    <contour>
      <point x="100.667" y="591.333" type="line"/>
      <point x="138.946" y="622.871"/>
      <point x="155.15" y="630.667"/>
      <point x="182.667" y="630.667" type="curve" smooth="yes"/>
      <point x="235.256" y="630.667"/>
      <point x="261.251" y="591.667"/>
      <point x="323.333" y="591.667" type="curve" smooth="yes"/>
      <point x="356.868" y="591.667"/>
      <point x="383.854" y="603.735"/>
      <point x="410.333" y="630.667" type="curve"/>
      <point x="410.333" y="710.667" type="line"/>
      <point x="373.174" y="678.98"/>
      <point x="356.838" y="671"/>
      <point x="329" y="671" type="curve" smooth="yes"/>
      <point x="275.14" y="671"/>
      <point x="250.738" y="710"/>
      <point x="188" y="710" type="curve" smooth="yes"/>
      <point x="155.656" y="710"/>
      <point x="130.046" y="698.573"/>
      <point x="100.667" y="671" type="curve"/>
    </contour>
  </outline>
</glyph>
<glyph name="hungarumlaut" format="2">
  <advance width="512"/>
  <unicode hex="02DD"/>
  <outline>
    <contour>
      <point x="285" y="594.667" type="line"/>
      <point x="375.667" y="594.667" type="line"/>
      <point x="514.667" y="727.333" type="line"/>
      <point x="396" y="727.333" type="line"/>
    </contour>
    <contour>
      <point x="109" y="594.667" type="line"/>
      <point x="199.667" y="594.667" type="line"/>
      <point x="338.667" y="727.333" type="line"/>
      <point x="220" y="727.333" type="line"/>
    </contour>
  </outline>
</glyph>
<glyph name="uni0300" format="2">
  <unicode hex="0300"/>
  <anchor x="0" y="591.333" name="_top"/>
  <outline>
    <contour>
      <point x="-29.667" y="591.333" type="line"/>
      <point x="66.333" y="591.333" type="line"/>
      <point x="-57.333" y="724" type="line"/>
      <point x="-188.333" y="724" type="line"/>
    </contour>
  </outline>
</glyph>
<glyph name="uni0302" format="2">
  <unicode hex="0302"/>
  <anchor x="0" y="591.333" name="_top"/>
  <outline>
    <contour>
      <point x="-173.167" y="584.333" type="line"/>
      <point x="-82.833" y="584.333" type="line"/>
      <point x="0.5" y="673" type="line"/>
      <point x="83.167" y="584.333" type="line"/>
      <point x="173.167" y="584.333" type="line"/>
      <point x="37.833" y="735" type="line"/>
      <point x="-37.833" y="735" type="line"/>
    </contour>
  </outline>
</glyph>
<glyph name="uni0303" format="2">
  <unicode hex="0303"/>
  <anchor x="0" y="591.333" name="_top"/>
  <outline>
    <contour>
      <point x="-154.833" y="591.333" type="line"/>
      <point x="-116.554" y="622.871"/>
      <point x="-100.35" y="630.667"/>
      <point x="-72.833" y="630.667" type="curve" smooth="yes"/>
      <point x="-20.244" y="630.667"/>
      <point x="5.751" y="591.667"/>
      <point x="67.833" y="591.667" type="curve" smooth="yes"/>
      <point x="101.368" y="591.667"/>
      <point x="128.354" y="603.735"/>
      <point x="154.833" y="630.667" type="curve"/>
      <point x="154.833" y="710.667" type="line"/>
      <point x="117.674" y="678.98"/>
      <point x="101.338" y="671"/>
      <point x="73.5" y="671" type="curve" smooth="yes"/>
      <point x="19.64" y="671"/>
      <point x="-4.762" y="710"/>
      <point x="-67.5" y="710" type="curve" smooth="yes"/>
      <point x="-99.844" y="710"/>
      <point x="-125.454" y="698.573"/>
      <point x="-154.833" y="671" type="curve"/>
    </contour>
  </outline>
</glyph>
<glyph name="uni0304" format="2">
  <unicode hex="0304"/>
  <anchor x="0" y="591.333" name="_top"/>
  <outline>
    <contour>
      <point x="-158.667" y="604" type="line"/>
      <point x="158.667" y="604" type="line"/>
      <point x="158.667" y="694.333" type="line"/>
      <point x="-158.667" y="694.333" type="line"/>
    </contour>
  </outline>
</glyph>
<glyph name="uni0307" format="2">
  <unicode hex="0307"/>
  <anchor x="0" y="591.333" name="_top"/>
  <outline>
    <contour>
      <point x="-51.333" y="606.667" type="line"/>
      <point x="51.333" y="606.667" type="line"/>
      <point x="51.333" y="704" type="line"/>
      <point x="-51.333" y="704" type="line"/>
    </contour>
  </outline>
</glyph>
<glyph name="uni0308" format="2">
  <unicode hex="0308"/>
  <anchor x="0" y="591.333" name="_top"/>
  <outline>
    <contour>
      <point x="-159.667" y="591" type="line"/>
      <point x="-65" y="591" type="line"/>
      <point x="-65" y="695.333" type="line"/>
      <point x="-159.667" y="695.333" type="line"/>
    </contour>
    <contour>
      <point x="65.667" y="591" type="line"/>
      <point x="159.667" y="591" type="line"/>
      <point x="159.667" y="695.333" type="line"/>
      <point x="65.667" y="695.333" type="line"/>
    </contour>
  </outline>
</glyph>
<glyph name="uni030B" format="2">
  <unicode hex="030B"/>
  <anchor x="0" y="594" name="_top"/>
  <outline>
    <contour>
      <point x="-141" y="594.667" type="line"/>
      <point x="-50.333" y="594.667" type="line"/>
      <point x="88.667" y="727.333" type="line"/>
      <point x="-30" y="727.333" type="line"/>
    </contour>
    <contour>
      <point x="35" y="594.667" type="line"/>
      <point x="125.667" y="594.667" type="line"/>
      <point x="264.667" y="727.333" type="line"/>
      <point x="146" y="727.333" type="line"/>
    </contour>
  </outline>
</glyph>
<glyph name="uni030C" format="2">
  <unicode hex="030C"/>
  <anchor x="0" y="591.333" name="_top"/>
  <outline>
    <contour>
      <point x="-37.833" y="581.333" type="line"/>
      <point x="37.833" y="581.333" type="line"/>
      <point x="173.167" y="732" type="line"/>
      <point x="83.167" y="732" type="line"/>
      <point x="0.5" y="643.667" type="line"/>
      <point x="-83.167" y="732" type="line"/>
      <point x="-173.167" y="732" type="line"/>
    </contour>
  </outline>
</glyph>
<glyph name="uni030F" format="2">
  <unicode hex="030F"/>
  <anchor x="0" y="590.667" name="_top"/>
  <outline>
    <contour>
      <point x="-103.585" y="591.333" type="line"/>
      <point x="-7.58471" y="591.333" type="line"/>
      <point x="-131.251" y="724" type="line"/>
      <point x="-262.251" y="724" type="line"/>
    </contour>
    <contour>
      <point x="-20.0369" y="678.667" type="line"/>
      <point x="118.629" y="591.333" type="line"/>
      <point x="129.629" y="636.667" type="line"/>
      <point x="-4.03685" y="724" type="line"/>
    </contour>
  </outline>
</glyph>
<glyph name="uni0312" format="2">
  <unicode hex="0312"/>
  <outline>
    <contour>
      <point x="-83" y="591.333" type="line"/>
      <point x="40.333" y="591.333" type="line"/>
      <point x="158" y="724" type="line"/>
      <point x="65" y="724" type="line"/>
    </contour>
  </outline>
</glyph>
<glyph name="uni0323" format="2">
  <unicode hex="0323"/>
  <anchor x="0" y="-86" name="_bottom"/>
  <anchor x="0" y="-135" name="_dot"/>
  <outline>
    <contour>
      <point x="-50" y="-183.333" type="line"/>
      <point x="52.667" y="-183.333" type="line"/>
      <point x="52.667" y="-86" type="line"/>
      <point x="-50" y="-86" type="line"/>
    </contour>
  </outline>
</glyph>
<glyph name="alpha" format="2">
  <advance width="746"/>
  <unicode hex="03B1"/>
  <outline>
    <contour>
      <point x="699.333" y="94" type="line"/>
      <point x="614.261" y="95.111"/>
      <point x="574.667" y="138.041"/>
      <point x="574.667" y="224" type="curve" smooth="yes"/>
      <point x="574.667" y="300.667" type="line" smooth="yes"/>
      <point x="574.667" y="386.838"/>
      <point x="613.792" y="429"/>
      <point x="699.333" y="429.667" type="curve"/>
      <point x="699.333" y="508" type="line"/>
      <point x="618.25" y="508"/>
      <point x="557.893" y="483.517"/>
      <point x="518.667" y="438" type="curve"/>
      <point x="482.539" y="496.869"/>
      <point x="404.738" y="531.333"/>
      <point x="308" y="531.333" type="curve" smooth="yes"/>
      <point x="148.936" y="531.333"/>
      <point x="61.667" y="452.256"/>
      <point x="61.667" y="308.333" type="curve" smooth="yes"/>
      <point x="61.667" y="216.667" type="line" smooth="yes"/>
      <point x="61.667" y="72.313"/>
      <point x="148.932" y="-7"/>
      <point x="308" y="-7" type="curve" smooth="yes"/>
      <point x="404.851" y="-7"/>
      <point x="480.337" y="26.532"/>
      <point x="518.667" y="86.667" type="curve"/>
      <point x="553.124" y="42.82"/>
      <point x="618.977" y="16.333"/>
      <point x="699.333" y="16.333" type="curve"/>
    </contour>
    <contour>
      <point x="308" y="72" type="curve" smooth="yes"/>
      <point x="209.391" y="72.444"/>
      <point x="161" y="121.084"/>
      <point x="161" y="219.667" type="curve" smooth="yes"/>
      <point x="161" y="305" type="line" smooth="yes"/>
      <point x="161" y="404.058"/>
      <point x="208.653" y="451.667"/>
      <point x="308" y="451.667" type="curve" smooth="yes"/>
      <point x="404.738" y="451.667"/>
      <point x="450.667" y="404.374"/>
      <point x="450.667" y="305" type="curve" smooth="yes"/>
      <point x="450.667" y="219.667" type="line" smooth="yes"/>
      <point x="450.667" y="120.831"/>
      <point x="403.957" y="72.444"/>
    </contour>
  </outline>
</glyph>
<glyph name="Djecyr" format="2">
  <advance width="796"/>
  <unicode hex="0402"/>
  <anchor x="283" y="-86" name="bottom"/>
  <anchor x="251" y="765.333" name="top"/>
  <anchor x="244.667" y="0" name="b.cedilla"/>
  <outline>
    <contour>
      <point x="230" y="0" type="line"/>
      <point x="336" y="0" type="line"/>
      <point x="336" y="612.667" type="line"/>
      <point x="558.667" y="612.667" type="line"/>
      <point x="558.667" y="707" type="line"/>
      <point x="6.667" y="707" type="line"/>
      <point x="6.667" y="612.667" type="line"/>
      <point x="230" y="612.667" type="line"/>
    </contour>
    <contour>
      <point x="440.696" y="0" type="line"/>
      <point x="495.333" y="0" type="line" smooth="yes"/>
      <point x="654.155" y="0"/>
      <point x="741.333" y="76.318"/>
      <point x="741.333" y="215.333" type="curve" smooth="yes"/>
      <point x="741.333" y="352.434"/>
      <point x="652.936" y="428.333"/>
      <point x="493.333" y="428.333" type="curve" smooth="yes"/>
      <point x="276.153" y="428.333" type="line"/>
      <point x="276.153" y="333.667" type="line"/>
      <point x="498.333" y="333.667" type="line" smooth="yes"/>
      <point x="591.632" y="333.667"/>
      <point x="634" y="296.799"/>
      <point x="634" y="215.667" type="curve" smooth="yes"/>
      <point x="634" y="131.769"/>
      <point x="591.089" y="94.771"/>
      <point x="494.333" y="94.393" type="curve" smooth="yes"/>
      <point x="440.696" y="94.198" type="line"/>
    </contour>
  </outline>
</glyph>
<glyph name="Eukrcyr" format="2">
  <advance width="694"/>
  <unicode hex="0404"/>
  <anchor x="358" y="765.333" name="top"/>
  <outline>
    <contour>
      <point x="531.667" y="228" type="line"/>
      <point x="531.667" y="223.333" type="line" smooth="yes"/>
      <point x="531.667" y="135.728"/>
      <point x="469.96" y="86.667"/>
      <point x="359.667" y="86.667" type="curve" smooth="yes"/>
      <point x="229.725" y="86.667"/>
      <point x="167.667" y="155.952"/>
      <point x="167.667" y="301" type="curve" smooth="yes"/>
      <point x="167.667" y="400.667" type="line" smooth="yes"/>
      <point x="167.667" y="551.565"/>
      <point x="228.829" y="622.667"/>
      <point x="358.667" y="622.667" type="curve" smooth="yes"/>
      <point x="468.482" y="622.667"/>
      <point x="531.667" y="572.215"/>
      <point x="531.667" y="484.667" type="curve" smooth="yes"/>
      <point x="531.667" y="480.667" type="line"/>
      <point x="638.333" y="480.667" type="line"/>
      <point x="638.333" y="487.333" type="line" smooth="yes"/>
      <point x="638.333" y="630.338"/>
      <point x="532.312" y="718"/>
      <point x="359.333" y="718" type="curve" smooth="yes"/>
      <point x="165.102" y="718"/>
      <point x="60" y="608.922"/>
      <point x="60" y="407.333" type="curve" smooth="yes"/>
      <point x="60" y="301" type="line" smooth="yes"/>
      <point x="60" y="99.833"/>
      <point x="164.922" y="-9.667"/>
      <point x="357.667" y="-9.667" type="curve" smooth="yes"/>
      <point x="531.262" y="-9.667"/>
      <point x="637.333" y="78.437"/>
      <point x="637.333" y="222.667" type="curve" smooth="yes"/>
      <point x="637.333" y="228" type="line"/>
    </contour>
    <contour>
      <point x="436.266" y="312.333" type="line"/>
      <point x="105.437" y="312.333" type="line"/>
      <point x="105.437" y="406" type="line"/>
      <point x="436.266" y="406" type="line"/>
    </contour>
  </outline>
</glyph>
<glyph name="Ljecyr" format="2">
  <advance width="1040"/>
  <unicode hex="0409"/>
  <outline>
    <component base="Elcyr"/>
    <contour>
      <point x="519.486" y="0" type="line"/>
      <point x="738.666" y="0" type="line" smooth="yes"/>
      <point x="897.488" y="0"/>
      <point x="984.666" y="76.318"/>
      <point x="984.666" y="215.333" type="curve" smooth="yes"/>
      <point x="984.666" y="352.434"/>
      <point x="896.269" y="428.333"/>
      <point x="736.666" y="428.333" type="curve" smooth="yes"/>
      <point x="519.486" y="428.333" type="line"/>
      <point x="519.486" y="333.667" type="line"/>
      <point x="741.666" y="333.667" type="line" smooth="yes"/>
      <point x="834.965" y="333.667"/>
      <point x="877.333" y="296.799"/>
      <point x="877.333" y="215.667" type="curve" smooth="yes"/>
      <point x="877.333" y="131.769"/>
      <point x="834.423" y="94.381"/>
      <point x="737.666" y="94.333" type="curve" smooth="yes"/>
      <point x="519.486" y="94.258" type="line"/>
    </contour>
  </outline>
</glyph>
<glyph name="Njecyr" format="2">
  <advance width="1100"/>
  <unicode hex="040A"/>
  <outline>
    <component base="H"/>
    <contour>
      <point x="579.486" y="0" type="line"/>
      <point x="798.666" y="0" type="line" smooth="yes"/>
      <point x="957.488" y="0"/>
      <point x="1044.67" y="76.318"/>
      <point x="1044.67" y="215.333" type="curve" smooth="yes"/>
      <point x="1044.67" y="352.434"/>
      <point x="956.269" y="428.333"/>
      <point x="796.666" y="428.333" type="curve" smooth="yes"/>
      <point x="579.486" y="428.333" type="line"/>
      <point x="579.486" y="333.667" type="line"/>
      <point x="801.666" y="333.667" type="line" smooth="yes"/>
      <point x="894.965" y="333.667"/>
      <point x="937.333" y="296.799"/>
      <point x="937.333" y="215.667" type="curve" smooth="yes"/>
      <point x="937.333" y="131.769"/>
      <point x="894.423" y="94.381"/>
      <point x="797.666" y="94.333" type="curve" smooth="yes"/>
      <point x="579.486" y="94.258" type="line"/>
    </contour>
  </outline>
</glyph>
<glyph name="Tshecyr" format="2">
  <advance width="823"/>
  <unicode hex="040B"/>
  <outline>
    <contour>
      <point x="230" y="0" type="line"/>
      <point x="336" y="0" type="line"/>
      <point x="336" y="612.667" type="line"/>
      <point x="558.667" y="612.667" type="line"/>
      <point x="558.667" y="707" type="line"/>
      <point x="6.667" y="707" type="line"/>
      <point x="6.667" y="612.667" type="line"/>
      <point x="230" y="612.667" type="line"/>
    </contour>
    <contour>
      <point x="768" y="0" type="line"/>
      <point x="768" y="215.333" type="line" smooth="yes"/>
      <point x="768" y="352.434"/>
      <point x="679.602" y="448.333"/>
      <point x="520" y="448.333" type="curve" smooth="yes"/>
      <point x="461.613" y="448.333"/>
      <point x="394.457" y="442"/>
      <point x="336.071" y="428.333" type="curve"/>
      <point x="302.82" y="428.333" type="line"/>
      <point x="302.82" y="333.667" type="line"/>
      <point x="336.071" y="333.667" type="line"/>
      <point x="396.107" y="347.333"/>
      <point x="464.963" y="353.667"/>
      <point x="525" y="353.667" type="curve" smooth="yes"/>
      <point x="618.299" y="353.667"/>
      <point x="660.667" y="296.799"/>
      <point x="660.667" y="215.667" type="curve" smooth="yes"/>
      <point x="660.667" y="-0.097" type="line"/>
    </contour>
  </outline>
</glyph>
<glyph name="Dzhecyr" format="2">
  <advance width="655"/>
  <unicode hex="040F"/>
  <outline>
    <contour>
      <point x="274" y="-170" type="line"/>
      <point x="381" y="-170" type="line"/>
      <point x="381" y="94.333" type="line"/>
      <point x="274" y="94.333" type="line"/>
    </contour>
    <contour>
      <point x="132.667" y="0" type="line"/>
      <point x="525.333" y="0" type="line"/>
      <point x="525.333" y="94.333" type="line"/>
      <point x="132.667" y="94.333" type="line"/>
    </contour>
    <contour>
      <point x="478.666" y="0" type="line"/>
      <point x="585.666" y="0" type="line"/>
      <point x="585.666" y="707" type="line"/>
      <point x="478.666" y="707" type="line"/>
    </contour>
    <contour>
      <point x="69.3337" y="0" type="line"/>
      <point x="176.334" y="0" type="line"/>
      <point x="176.334" y="707" type="line"/>
      <point x="69.3337" y="707" type="line"/>
    </contour>
  </outline>
</glyph>
<glyph name="Becyr" format="2">
  <advance width="676"/>
  <unicode hex="0411"/>
  <outline>
    <contour>
      <point x="156.153" y="0" type="line"/>
      <point x="375.333" y="0" type="line" smooth="yes"/>
      <point x="534.155" y="0"/>
      <point x="621.333" y="76.318"/>
      <point x="621.333" y="215.333" type="curve" smooth="yes"/>
      <point x="621.333" y="352.434"/>
      <point x="532.936" y="428.333"/>
      <point x="373.333" y="428.333" type="curve" smooth="yes"/>
      <point x="156.153" y="428.333" type="line"/>
      <point x="156.153" y="333.667" type="line"/>
      <point x="378.333" y="333.667" type="line" smooth="yes"/>
      <point x="471.632" y="333.667"/>
      <point x="514" y="296.799"/>
      <point x="514" y="215.667" type="curve" smooth="yes"/>
      <point x="514" y="131.769"/>
      <point x="471.09" y="94.381"/>
      <point x="374.333" y="94.333" type="curve" smooth="yes"/>
      <point x="156.153" y="94.258" type="line"/>
    </contour>
    <contour>
      <point x="156.066" y="612.667" type="line"/>
      <point x="566.333" y="612.667" type="line"/>
      <point x="566.333" y="707" type="line"/>
      <point x="156.066" y="707" type="line"/>
    </contour>
    <contour>
      <point x="69.333" y="0" type="line"/>
      <point x="176.333" y="0" type="line"/>
      <point x="176.333" y="707.063" type="line"/>
      <point x="69.333" y="707" type="line"/>
    </contour>
  </outline>
</glyph>
<glyph name="Gecyr" format="2">
  <advance width="601"/>
  <unicode hex="0413"/>
  <anchor x="323.667" y="765.333" name="top"/>
  <outline>
    <contour>
      <point x="156.066" y="612.667" type="line"/>
      <point x="566.333" y="612.667" type="line"/>
      <point x="566.333" y="707" type="line"/>
      <point x="156.066" y="707" type="line"/>
    </contour>
    <contour>
      <point x="69.333" y="0" type="line"/>
      <point x="176.333" y="0" type="line"/>
      <point x="176.333" y="707.063" type="line"/>
      <point x="69.333" y="707" type="line"/>
    </contour>
  </outline>
</glyph>
<glyph name="Decyr" format="2">
  <advance width="680"/>
  <unicode hex="0414"/>
  <outline>
    <contour>
      <point x="436.452" y="-0.02" type="line"/>
      <point x="563.333" y="-0.02" type="line"/>
      <point x="563.333" y="-170" type="line"/>
      <point x="670.333" y="-170" type="line"/>
      <point x="670.333" y="94.31" type="line"/>
      <point x="436.452" y="94.31" type="line"/>
    </contour>
    <contour>
      <point x="91.599" y="0" type="line"/>
      <point x="182.879" y="66.358"/>
      <point x="267.421" y="240.235"/>
      <point x="279.667" y="375.518" type="curve" smooth="yes"/>
      <point x="309.667" y="707.063" type="line"/>
      <point x="202.667" y="707" type="line"/>
      <point x="172.667" y="419.909" type="line" smooth="yes"/>
      <point x="157.337" y="274.073"/>
      <point x="118.471" y="157.917"/>
      <point x="52.96" y="94.267" type="curve"/>
    </contour>
    <contour>
      <point x="502.667" y="0" type="line"/>
      <point x="609.667" y="0" type="line"/>
      <point x="609.667" y="707.063" type="line"/>
      <point x="502.667" y="707" type="line"/>
    </contour>
    <contour>
      <point x="211.273" y="613.349" type="line"/>
      <point x="528.777" y="613.349" type="line"/>
      <point x="528.777" y="707.016" type="line"/>
      <point x="211.273" y="707.016" type="line"/>
    </contour>
    <contour>
      <point x="230.176" y="-0.022" type="line"/>
      <point x="456.443" y="-0.022" type="line"/>
      <point x="456.443" y="94.311" type="line"/>
      <point x="230.176" y="94.311" type="line"/>
    </contour>
    <contour>
      <point x="10" y="-170" type="line"/>
      <point x="117" y="-170" type="line"/>
      <point x="117" y="-0.02" type="line"/>
      <point x="249.963" y="-0.02" type="line"/>
      <point x="249.963" y="94.31" type="line"/>
      <point x="10" y="94.247" type="line"/>
    </contour>
  </outline>
</glyph>
